<?xml version="1.0" encoding="utf-8"?>
<!-- Generator: Adobe Illustrator 22.0.1, SVG Export Plug-In . SVG Version: 6.00 Build 0)  -->
<svg version="1.1" id="Layer_1" xmlns="http://www.w3.org/2000/svg" xmlns:xlink="http://www.w3.org/1999/xlink" x="0px" y="0px"
	 viewBox="0 0 203 266.5" style="enable-background:new 0 0 203 266.5;" xml:space="preserve">
<style type="text/css">
	.st0{fill:#E2E2E1;}
	.st1{fill:#FBB017;}
	.st2{fill:#F5881F;}
	.st3{fill:#16202B;}
	.st4{fill:#6BA342;}
	.st5{fill:#52803B;}
	.st6{fill:#CE2732;}
</style>
<g>
	<rect x="0.3" y="-0.2" class="st0" width="202.3" height="266.8"/>
	<g id="XMLID_225_">
		<g id="XMLID_182_">
			<path id="XMLID_202_" class="st1" d="M119,157.7c-2.6,13.5-12.4,43.2-48.4,43.2c-45.8,0-51.6-48.1-51.8-49.7
				c0.1,0.1,25.3,16.4,56.3,16.4C92.8,167.7,108.7,162.3,119,157.7z"/>
			<g id="XMLID_200_">
				<path id="XMLID_201_" class="st2" d="M39.1,165.2c6.3,12.3,18.3,25.6,41.4,25.6c7.3,0,13.4-1.3,18.6-3.5
					c-6.6,5.7-15.8,9.7-28.6,9.7c-31.5,0-42.5-24.7-46.2-38C28.2,160.9,33.2,163.1,39.1,165.2z"/>
			</g>
		</g>
		<path id="XMLID_215_" class="st3" d="M13.8,142L13.8,142c0,30.4,15.7,64.8,65,64.8c44.5,0,61.6-28.7,64.5-56
			c5.2-1,17.5-3.6,32-7.7c10.3-2.9,18.2-6.6,18.2-11.2c0-5.7-13.4-5.1-28.8-2.6c-13.7,2.2-23.5,6.1-28.6,8.3
			c-11-5.6-32.5-14.7-57.3-14.7C42.9,123,13.9,141.9,13.8,142L13.8,142L13.8,142z M123.8,140.8c0,7.8-20.2,14.1-45,14.1
			c-24.9,0-45-6.3-45-14.1c0-7.8,20.2-15.8,45-15.8C103.7,125,123.8,133.1,123.8,140.8z M13.8,142c0.1,0.1,29.2,18.9,65,18.9
			c20.5,0,38.8-6.2,50.7-11.5c-3,15.5-14.3,49.9-55.9,49.9C20.7,199.3,14,143.8,13.8,142z"/>
		<path id="XMLID_183_" class="st4" d="M128.7,120c-15.3,7.5-26.7-6.2-26.7-6.2L128.7,120z"/>
		<path id="XMLID_198_" class="st4" d="M147.8,93.3c1.3,12.2-14.1,11.2-14.1,11.2L147.8,93.3z"/>
		<path id="XMLID_203_" class="st4" d="M23.5,107.3c-1.3,12.2,14.1,11.2,14.1,11.2L23.5,107.3z"/>
		<path id="XMLID_197_" class="st5" d="M36.1,103.3c0,0-5,3.4,3.1,11.2C39.2,114.6,36.4,109.6,36.1,103.3z"/>
		<path id="XMLID_220_" class="st6" d="M85.4,101.6c0.5,2.7,2.9,4.9,5.6,5.5c2.7,0.6,5.6-0.5,7.6-2.4c1,1.9,3.4,3.1,5.5,2.5
			c8.9-2.5,4.1-10.4,4.1-10.4s8.3-5,2.8-11.1c-2.5-2.7-7.6-2-9.7,1c-1.9-3.7-7.3-5.1-10.8-2.8c-3.5,2.3-4.2,7.8-1.5,11
			C86.5,95.8,84.9,98.9,85.4,101.6z M89.4,98.1c-0.1-1.9,1.2-3.7,3-4.1c-1.5-2.4-0.5-5.9,2-7.2c2.5-1.2,6,0.2,6.9,2.8
			c1.7-1.8,5.1-1.8,6.5,0.2C111,94.5,105,97,105,97s2.5,5.7-3.6,6.5c-1.4,0.2-2.9-0.8-3.4-2.1c-1.5,1.1-3.5,1.5-5.3,0.9
			C90.9,101.7,89.5,100,89.4,98.1z"/>
		<path id="XMLID_213_" class="st6" d="M68,142.4c4.6,0.1,9.1-2.9,10.9-7.2c1.9-4.2,1.3-9.3-1.1-13.3c3.5-0.9,6.2-4.5,6-8.1
			c-0.8-15.3-15.4-10.4-15.4-10.4s-5.1-15.3-17-8.5c-5.3,3-6,11.6-1.9,16.2c-6.8,1.7-11,10-8.4,16.5c2.5,6.5,11.2,9.7,17.4,6.4
			C59,138.6,63.4,142.2,68,142.4z M63.8,134.6c-3.1-0.5-5.6-3.3-5.6-6.4c-4.4,1.6-9.8-1.3-10.9-5.8c-1.1-4.5,2.5-9.6,7.1-10.2
			c-2.3-3.4-1.1-9,2.7-10.5c8.5-3.4,10.5,7.2,10.5,7.2s10.2-2,9.3,8.3c-0.2,2.4-2.3,4.5-4.7,4.8c1.2,2.8,1.2,6.3-0.5,8.9
			C70.1,133.4,66.9,135.1,63.8,134.6z"/>
		<g id="XMLID_184_">
			<path id="XMLID_224_" class="st2" d="M96.1,137.3c1.7-2.9,5.4-6.3,10.3-9.1c4.9-2.7,9.8-4.1,13.1-4l2.4-1.3l1.8,3.2
				c1.8,3.1-3.1,9.2-11,13.6c-7.5,4.2-15,5.3-17.1,2.5l0,0l-1.9-3.5L96.1,137.3z"/>
			<path id="XMLID_223_" class="st1" d="M93.8,138.6c1.8,3.1,9.5,2.2,17.3-2.2c7.8-4.4,12.7-10.4,11-13.6c-1.7-3.1-9.5-2.2-17.3,2.2
				C96.9,129.4,92,135.5,93.8,138.6z"/>
			<path id="XMLID_222_" class="st2" d="M98.8,135c0,0,5.1,0.4,9.7-2.1c4.6-2.6,6.9-7.2,6.9-7.2s-5.1-0.4-9.7,2.1
				C101.1,130.4,98.8,135,98.8,135z"/>
		</g>
		<g id="XMLID_226_">
			<path id="XMLID_229_" class="st2" d="M84.8,141.6c0-3.4,1.7-8.2,4.6-13c2.9-4.8,6.5-8.4,9.5-9.9l1.4-2.3l3.1,1.9
				c3.1,1.9,1.7,9.6-2.9,17.2c-4.5,7.4-10.5,11.9-13.7,10.5l0,0l-3.4-2.1L84.8,141.6z"/>
			
				<ellipse id="XMLID_228_" transform="matrix(0.5249 -0.8512 0.8512 0.5249 -67.207 140.0611)" class="st1" cx="91.9" cy="130.2" rx="16.2" ry="6.5"/>
			<path id="XMLID_227_" class="st2" d="M86,138.4c0,0,4.7-2.1,7.5-6.6c2.8-4.5,2.6-9.6,2.6-9.6s-4.7,2.1-7.5,6.6
				C85.8,133.2,86,138.4,86,138.4z"/>
		</g>
		<g id="XMLID_230_">
			<path id="XMLID_233_" class="st2" d="M67.4,76.6c2.1,0.3,4.9,1.7,7.6,3.9c2.7,2.2,4.6,4.7,5.3,6.6l1.3,1.1l-1.4,1.7
				c-1.4,1.7-6,0.3-10.3-3.2c-4.1-3.4-6.4-7.4-5.3-9.2l0,0l1.6-1.9L67.4,76.6z"/>
			
				<ellipse id="XMLID_232_" transform="matrix(0.6315 -0.7754 0.7754 0.6315 -36.2466 87.3896)" class="st1" cx="73.8" cy="81.8" rx="4" ry="10"/>
			<path id="XMLID_231_" class="st2" d="M69.3,77.6c0,0,0.9,3,3.5,5.1c2.5,2.1,5.7,2.3,5.7,2.3s-0.9-3-3.5-5.1
				C72.5,77.9,69.3,77.6,69.3,77.6z"/>
		</g>
	</g>
</g>
</svg>
