<?xml version="1.0" encoding="utf-8"?>
<!-- Generator: Adobe Illustrator 22.0.1, SVG Export Plug-In . SVG Version: 6.00 Build 0)  -->
<svg version="1.1" id="Layer_1" xmlns="http://www.w3.org/2000/svg" xmlns:xlink="http://www.w3.org/1999/xlink" x="0px" y="0px"
	 viewBox="0 0 907.1 575.8" style="enable-background:new 0 0 907.1 575.8;" xml:space="preserve">
<style type="text/css">
	.st0{fill:#BF2026;}
	.st1{fill:#FFFFFF;}
	.st2{fill:#645D60;}
</style>
<g>
	<g>
		<path class="st0" d="M903,269.8c0-18.3-14.9-33.2-33.2-33.2c-3.5,0-6.9,0.5-10,1.5l-13.3,1.9c-134.3,18.8-282.6-6.4-282.6-6.4
			c-4.3-37.7-12.7-48.5-16.4-51.4C515.3,86.3,424.7,17.1,317.9,17.1c-119.3,0-218.4,86.4-238.2,200c-7.3-5.8-19-18.1-31.5-43.2
			c-1.4-2.7-4.1-4.4-7.2-4.4c-3.5,0-11.2,3.5-17.9,16.5c-7.8,15.2-12,38.6-12.4,69.7c-0.4,25.5,2,70.1,22,82.9
			c1.3,0.8,2.8,1.3,4.3,1.3c0.7,0,1.5-0.1,2.2-0.3c2.2-0.6,4-2.2,5-4.2c6.2-12.9,21.1-36.6,34.2-42.3
			C95,410.4,195.9,500.8,317.9,500.8c102.7,0,190.4-64,225.5-154.3c17.8-14.8,19.3-49.7,19.3-49.7C675,275.5,846,299.7,846,299.7
			l15.6,2.3c2.1,0.5,4.3,0.9,6.6,1l2.6,0.4V303C888.7,302.4,903,287.7,903,269.8z M35.6,317.7c-5.8-11.6-9.2-34.1-8.8-61.8
			c0.5-39.6,7.3-57.5,12.2-65.3c15.9,28.7,30.7,40,38.4,44.2c-0.8,7.9-1.2,16-1.2,24.2c0,6,0.2,11.9,0.7,17.8
			C58.8,281.7,43.5,303.9,35.6,317.7z"/>
		<ellipse class="st0" cx="316.8" cy="262.8" rx="164.7" ry="158.7"/>
		<path class="st1" d="M318.5,23.8c-9.2,0-18.2,0.5-27.2,1.5c7.7-0.7,15.4-1.1,23.2-1.1C446.3,24.2,553,129.7,553,259.9
			C553,360.3,489.6,446,400.2,480c91.2-32.9,156.3-119.5,156.3-221C556.4,129.1,449.9,23.8,318.5,23.8z"/>
		<path class="st1" d="M136.5,274.2C136.5,171.9,219.4,89,321.7,89c68,0,127.4,36.6,159.6,91.2c-30-59.8-91.9-100.9-163.3-100.9
			c-100.9,0-182.6,81.8-182.6,182.6c0,8.1,0.5,16,1.5,23.8C136.6,281.9,136.5,278.1,136.5,274.2z"/>
		<path class="st1" d="M316.2,438.4c-69.3,0-129.7-38.1-161.4-94.4c30,59.7,91.8,100.6,163.2,100.6c96.4,0,175.4-74.7,182.1-169.4
			C489.2,367.1,411,438.4,316.2,438.4z"/>
		<path class="st1" d="M864.7,246.6c10.5,0,19.3,6.8,22.5,16.2c-2.6-10.1-11.8-17.6-22.7-17.6c-12.9,0-23.4,10.5-23.4,23.4
			c0,0.2,0,0.5,0,0.7C841.6,256.7,852,246.6,864.7,246.6z"/>
		<circle class="st1" cx="865.1" cy="270" r="18.7"/>
		<path class="st1" d="M566.1,315.2c-1.4,5.7-5.3,9.7-8.8,8.9c-3.5-0.8-5.1-6.2-3.8-11.9c1.4-5.7,5.3-9.7,8.8-8.8
			C565.8,304.2,567.5,309.5,566.1,315.2z"/>
		<g>
			<path class="st1" d="M554.3,312.3c1.1-4.5,3.7-8,6.5-9c-3,0.4-6,4-7.2,8.9c-1.3,5.3,0.1,10.2,3,11.6
				C554.1,321.8,553.1,317.2,554.3,312.3z"/>
			<path class="st0" d="M567.1,315.3c-1.4,5.9-5.4,9.9-9,9.1c-3.5-0.9-5.3-6.3-3.8-12.2c1.4-5.9,5.4-9.9,9-9
				C566.8,304,568.5,309.5,567.1,315.3z"/>
		</g>
		<g>
			<path class="st1" d="M555.9,218.8c-0.9-4-0.1-7.8,1.7-9.7c-2.2,1.5-3.2,5.5-2.3,9.9c1,4.7,4,8.1,6.9,8
				C559.5,226.5,556.9,223.2,555.9,218.8z"/>
			<path class="st0" d="M567.2,216.3c1.1,5.2-0.5,10-3.6,10.7s-6.6-3-7.8-8.2c-1.1-5.2,0.5-10,3.6-10.7
				C562.6,207.5,566,211.1,567.2,216.3z"/>
		</g>
		<path class="st1" d="M29.3,184.3c0,0-20.6,53.2-1.8,140.5C27.5,324.8,4,253.8,29.3,184.3z"/>
	</g>
	<g>
		<path class="st1" d="M284,213.7c0.3,2.5,0,5.4-1,7.9c-0.6,2.5-1.9,5.1-3.8,7c-0.6,1-1.3,1.9-2.2,2.5c-0.6,0.6-1.6,1.3-2.2,1.9
			c-3.2,2.2-6.4,4.1-9.5,5.1c-1.6,0.6-3.2,1-5.1,1c-1.6,0.3-3.5,0.3-5.1,0c-0.3,0-0.3-0.3-0.6-0.6c0-0.3-0.3-0.6-0.3-1.3
			c0-0.6-0.3-1.3-0.3-2.2c0-1-0.3-1.6-0.3-2.5c0-1,0-1.9,0-2.5c0-1,0-1.6,0.3-2.5c0-0.3,0.3-1,0.6-1.3s0.6-0.6,1-0.6
			c1.3,0.3,2.9,0.3,4.1,0.3c1.3,0,2.9,0,4.1-0.3c1-0.3,2.2-0.6,3.8-1c1.3-0.6,2.5-1.3,3.8-2.2c1.3-1,2.2-1.9,3.2-3.2
			c1-1.3,1.3-2.5,1.3-4.5c0-1.9-0.3-3.5-1.3-4.8c-1-1-2.2-1.9-3.8-2.2s-2.9-0.6-4.8-0.6c-1.6,0-3.2,0.3-4.1,0.3
			c-3.8,0.6-7.3,1.6-10.8,3.2c-3.5,1.6-7.3,3.2-10.8,5.1c-4.8,2.5-9.2,5.4-13.7,8.3c-4.5,2.9-8.9,6.4-13,9.9
			c-2.2,1.6-4.1,3.5-6.4,5.4c-1.9,1.9-4.1,3.8-6,5.7c-1.9,1.9-3.8,4.1-5.7,6c-1.9,2.2-3.5,4.1-5.1,6.4c-1.6,2.2-3.2,4.5-4.8,7
			c-1.3,2.2-2.5,4.8-3.5,7.3c-1,2.2-1.3,4.1-1.3,5.7c0,1.6,0.3,3.2,1,4.1c0.6,1.3,1.3,2.2,2.2,2.9c1,0.6,1.9,1.3,3.2,1.6
			c1.6,0.6,3.5,1.3,5.1,1.6c1.9,0.3,3.8,0.6,5.7,0.6c3.8,0.3,7.9,0,12.1-0.6s7.9-1.3,12.1-2.5c7.9-2.2,15.9-5.4,23.8-9.2
			c3.8-1.9,7.6-4.1,11.1-6.7c3.5-2.2,7-5.1,10.5-7.9c0.3-0.3,0.6-0.3,1-0.3s0.6,0.3,1.3,0.6c0.3,0.3,0.6,1,0.6,1.6
			c0,1,0,1.9-0.3,2.9c-0.3,1.3-1,2.2-1.6,3.5c-0.3,0.6-1,1.3-1.3,1.6c-0.6,0.6-1,1-1.6,1.6c-3.8,3.2-7.6,6-11.4,8.6
			c-3.8,2.5-7.9,4.8-12.1,7s-8.3,4.1-12.7,5.7c-4.5,1.6-8.6,3.2-13,4.1c-4.5,1-8.9,1.9-13.7,2.2c-2.2,0.3-4.1,0.3-6.4,0.3
			c-2.2,0-4.5-0.3-6.7-0.6s-4.5-1-6.7-1.6c-2.2-1-4.1-1.9-6-3.5c-1.9-1.6-3.5-3.2-5.1-5.4c-1.6-2.2-2.5-4.8-2.9-7.6
			c-0.3-1.9-0.3-4.1-0.3-6.4c0-2.2,0.6-4.5,1.3-6.7c2.2-6,5.1-11.4,8.9-16.2c3.8-5.1,7.6-9.5,11.8-13.7s8.3-7.9,12.7-11.4
			s8.9-6.7,13.7-9.9c2.2-1.6,4.8-3.2,7.3-4.8c2.9-1.6,5.7-3.2,8.9-4.8s6.4-3.2,9.5-4.5c3.2-1.3,6.7-2.5,9.9-3.5
			c3.2-1,6.4-1.6,9.5-1.9s6-0.3,8.9,0.3c3.2,0.6,6,2.2,8.3,4.8C281.8,206.4,283.4,209.5,284,213.7z M282.1,218.4
			c0.3-2.9,0-5.4-1-7.9c-1-2.2-2.5-4.5-4.8-6c-1.3-1-2.9-1.9-4.1-2.2c-1.6-0.6-2.9-1-4.5-1s-3.2,0-4.8,0s-3.2,0.3-4.8,0.6
			c-1.9,0.3-3.8,1-5.7,1.6c-1.9,0.6-3.8,1.3-5.7,1.9c-3.8,1.6-7.3,3.2-11.1,4.8c-3.5,1.9-7,3.8-10.5,6c-3.5,2.2-7,4.5-10.2,6.7
			c-3.2,2.2-6.7,4.8-9.9,7.3c-3.5,2.9-6.4,5.4-9.2,7.9c-2.9,2.5-5.1,5.1-7.6,7.6c-1.3,1.3-2.2,2.5-3.5,3.8c-1,1.3-2.2,2.5-3.2,3.8
			c-1,1.3-2.2,2.9-3.2,4.5c-1.3,1.6-2.2,3.2-3.2,5.1c-1.3,2.2-2.2,4.5-3.2,6.7c-1,2.2-1.3,4.8-1.6,7.3c-0.3,2.5,0,4.8,0.3,7.3
			c0.3,2.5,1.6,4.5,3.2,6.4c0.6,1,1.6,1.9,2.5,2.5c1,0.6,1.9,1.3,2.9,1.9c1.9,1.3,4.1,1.9,6,2.5c1.9,0.6,4.1,1,6,1.3
			c1.9,0.3,4.1,0.3,6,0.3c1.9,0,4.1-0.3,6-0.3c1.9-0.3,4.1-0.6,6-1c1.9-0.3,3.8-1,5.7-1.3c7.9-1.9,15.6-4.8,22.6-8.3
			c7.6-3.5,14.6-7.9,21.3-12.7c1-0.6,1.9-1.6,2.9-2.2s1.6-1.6,2.5-2.5c0.3-0.3,0.6-0.6,0.6-1c0.3-0.3,0.3-0.6,0.6-1
			c0-0.3,0-0.3,0-0.6c0,0-0.3,0-0.6,0.3c-6.4,5.7-13.4,10.5-20.3,14.3c-7.3,3.8-14.6,7-22.3,9.2c-3.8,1.3-7.9,2.2-12.1,3.2
			s-8.3,1.6-12.1,1.6c-1.6,0-3.5,0-5.4-0.3c-2.2-0.3-4.1-0.6-6.4-1c-2.2-0.6-4.1-1.3-6-2.2c-1.9-1-3.5-2.2-4.8-3.5
			c-1.6-1.6-2.5-3.8-2.9-5.7c-0.6-2.2-0.6-4.1-0.6-6c0-1.9,0.3-3.8,0.6-5.4c0.3-1.6,0.6-2.9,1-3.8c1-2.2,1.9-4.5,3.5-7
			c1.6-2.2,3.2-4.8,4.8-7c2.2-3.2,4.8-6.4,7.9-9.2c2.9-3.2,6-6,9.2-8.9c3.2-2.5,6-5.4,9.2-7.6c3.2-2.5,6.4-4.8,9.9-7
			c3.2-2.2,6.7-4.5,10.2-6.4c3.5-1.9,7-3.8,10.5-5.7c3.5-1.6,7-3.2,10.8-4.8c3.8-1.6,7.6-2.5,11.8-2.9c1.9-0.3,4.1-0.3,6,0
			c1.9,0.3,4.1,1,6,1.9c2.2,1.3,3.8,2.9,5.1,4.8c1.3,2.2,1.9,4.8,1.6,7.6c-0.3,2.2-1,4.1-1.9,6c-1,1.9-2.2,3.5-3.5,5.1
			c-1.3,1.3-2.5,2.2-3.8,2.9c-1.3,1-2.5,1.6-3.8,2.2c-1.3,0.6-2.9,1.3-4.1,1.6s-2.5,0.6-4.1,0.6c-0.3,0-0.3,0-0.6,0
			c-0.3,0-0.6,0-1,0c-0.3,0-0.6,0-1,0.3c-0.3,0-0.3,0.3-0.3,0.6c0,0.6,0,1,0.3,1h0.3c1.3,0,2.9,0,4.1-0.3s2.9-0.6,4.1-1
			c2.5-1,5.4-2.5,7.9-4.5c0.6-0.6,1.3-1,1.9-1.6s1.3-1.3,1.9-1.9c1-1.3,1.9-2.5,2.9-4.1C281.4,221.9,281.8,220.3,282.1,218.4z"/>
		<path class="st1" d="M304.7,280.1c-0.6,0-1-0.3-1.6-0.6s-1-0.6-1.6-1.3c-0.6-0.6-1-1.3-1.3-1.9s-0.3-1.3-0.3-1.9
			c0-1.9,0.3-4.1,1-5.7c0.3-1.9,1-3.8,1.3-5.4c1.3-3.5,2.5-7,4.1-10.2c0.3-0.3,0.3-0.6,0.6-1c0-0.3,0.3-0.6,0.3-1l0,0
			c-3.5,2.2-6.7,5.1-9.9,7.9c-1.6,1.6-3.2,2.9-4.5,4.5c-1.6,1.6-2.9,3.2-4.5,4.8c-1.3,1.6-2.5,3.5-3.8,5.1c-1.3,1.9-2.5,3.8-3.5,5.7
			c-0.3,0.6-1,0.6-2.2,0.6c-0.6,0-1-0.3-1.6-0.6s-1-1-1.3-1.9c-0.3-0.3-0.3-1-0.6-1.3c0-0.6-0.3-1-0.3-1.6c0-1,0-2.2,0.3-3.5
			c0.6-1.9,1-3.8,1.6-5.4c0.6-1.6,1.3-3.5,1.9-5.1c0.6-1.6,1.3-3.5,2.2-5.1c0.6-1.6,1.6-3.2,2.2-4.8c1.6-3.2,3.2-6.4,5.1-9.5
			s3.5-6,5.4-8.9c1.9-2.9,3.8-5.7,6-8.6c1.9-2.9,4.1-5.4,6.4-8.3c2.2-2.5,4.8-5.1,7.3-7.6c2.5-2.5,5.1-4.8,7.9-7
			c0.3-0.3,0.6-0.3,1-0.3c0.3,0,0.6,0.3,0.6,1c0.3,1,0.6,1.6,1,2.5c0.3,1,0.6,1.6,1,2.5c0.3,1,0.6,1.9,0.6,3.2c0,1,0,1.9,0,3.2
			c0,1-0.3,1.9-1,2.5c-0.3,1-1,1.6-1.6,1.9c-2.2,1.6-4.5,3.5-6.7,5.7c-2.2,2.2-4.5,4.5-6.7,6.7c-2.2,2.2-4.5,4.8-6.4,7.3
			s-3.8,5.1-5.7,7.6c-1.9,2.5-3.8,5.4-5.4,8.3c-1.9,2.9-3.5,5.7-5.1,8.6c-0.3,0.6-0.6,1-1,1.6c-0.3,0.6-0.6,1-0.6,1.6
			c0.3-0.3,0.6-1,1-1.3c0.3-0.3,0.6-1,1-1.3c1.3-1.9,2.9-3.5,4.5-5.4c1.6-1.6,3.2-3.5,4.8-5.1c1.6-1.6,3.5-3.2,5.1-4.5
			c1.9-1.6,3.5-2.9,5.4-4.1c1-0.6,1.9-1.3,2.9-1.9s1.9-1.3,3.2-1.6c1-0.6,2.2-1,3.5-1.3c0.3-0.3,1-0.6,1.3-1c0.3-0.3,1-0.6,1.3-1
			c0.3,0,0.6,0,0.6,0c0.3,0.3,0.6,0.3,0.6,0.6c0.3,0.6,1,1.3,1.3,2.2c0.3,0.6,1,1.3,1.3,1.9c0.6,1,1,1.6,1.3,2.5
			c0.3,1,0.6,1.6,0.6,2.2s0.3,1.3,0,1.6c0,0.6-0.3,1-0.6,1c-1.3,0.6-2.5,1.6-3.5,2.5c-1.3,1-2.2,1.9-3.5,3.2
			c-2.2,2.2-4.1,4.8-5.7,7.6c-1.9,2.9-3.2,5.7-4.5,8.9c0,0.3-0.3,0.3-0.3,0.6s-0.3,0.6-0.3,0.6c2.2-1,4.8-1.9,7-3.2
			c1.3-0.6,2.2-1.6,3.5-2.2c1.3-1,2.2-1.6,3.5-2.9c1.3-1,2.2-1.9,3.2-2.9c1-1,2.2-2.2,3.2-3.2c1-1.3,1.9-2.2,2.9-3.5
			c1-1.3,1.9-2.5,2.5-3.8c0-0.3,0.3-0.3,0.6,0l0.3,0.3c0.6,0.3,0.6,1,1,1.9c0,0.3,0,0.6,0,0.6c0,0.3,0,0.3,0,0.6s-0.3,0.6-0.3,0.6
			c0,0.3-0.3,0.3-0.3,0.6c-1,1.3-1.9,2.9-2.9,4.1c-1,1.3-1.9,2.5-2.9,3.8c-2.2,2.5-4.5,5.1-6.7,7c-1.3,1-2.2,2.2-3.5,3.2
			s-2.5,1.9-3.8,2.5c-1.3,1-2.5,1.6-4.1,2.2c-1.3,0.6-2.9,1.3-4.1,1.9c0,0-0.3,0-0.6,0s-0.6,0-0.6,0L304.7,280.1z M279.9,272.5
			c0,1,0,1.3,0,1.6s0.3,0,0.6-1c0-0.3,0.3-1,0.3-1.3c0.3-0.3,0.3-1,0.3-1.3l0.6-1.9c0.3-0.6,0.3-1.3,0.6-1.6c0.3-1.3,1-2.2,1.6-3.5
			c0.3-0.6,0.6-1.3,1-1.6c0.3-0.6,0.6-1.3,1-1.6l1-1.6l1-1.6c0.3-0.6,0.6-1.3,1-1.6c0.3-0.6,0.6-1,1-1.6c0.6-1,1.3-2.2,1.9-3.2
			s1.3-2.2,1.9-3.2c1.3-1.9,2.9-4.1,4.1-6c1.3-1.9,2.9-3.8,4.1-5.7c1-1,1.6-1.9,2.2-2.9s1.6-1.9,2.2-2.5c0.6-1,1.3-1.6,1.9-2.2
			s1.3-1.6,1.9-2.2c1.3-1.3,2.5-2.5,3.8-3.8c1.3-1.3,2.5-2.5,4.1-3.8l1.3-1.3c0.3-0.3,0.3-0.3,0.6-0.6s0.3-0.3,0.3-0.6
			c0.6-1,1-1.6,1-1.6l-0.3-0.6c0-0.3-0.3,0-1,0.3c-1,0.6-1.9,1.6-3.2,2.9c-1.3,1.3-2.5,2.5-4.1,4.1c-1.6,1.6-3.2,3.2-4.8,4.8
			c-1.6,1.9-3.2,3.5-4.8,5.4c-0.6,1-1.6,1.9-2.2,2.9c-0.6,1-1.6,1.9-2.2,2.9s-1.6,1.9-2.2,2.9c-0.6,1-1.3,1.9-1.9,2.9
			c-1.3,1.9-2.5,4.1-4.1,6.4c-1.3,2.2-2.5,4.1-3.8,6.4s-2.2,4.5-3.2,6.7s-1.9,4.8-2.9,7c0,0.3-0.3,1-0.3,1.3s-0.3,0.6-0.3,1
			C280.2,271.5,280.2,272.2,279.9,272.5z M309.1,248c0.3-0.3,0.3-0.6,0.6-1c0.3-0.3,0.3-0.6,0.6-1c-1.3,0.6-2.2,1.3-3.5,2.2
			c-1.3,1-2.2,1.6-3.5,2.5c-2.5,1.9-4.8,3.8-7,6.4c-2.2,2.2-4.5,4.8-6.7,7.3c-2.2,2.5-4.1,5.1-6,7.9c0,0.3-0.3,0.3-0.3,0.6
			s-0.3,0.3-0.3,0.6s-0.3,0.3-0.3,0.6s-0.3,0.3-0.3,0.6c-0.3,0.6-0.3,1.3-0.3,1.3l0,0l0,0l0,0l0,0c1.6-2.9,3.5-5.7,5.7-8.3
			c2.2-2.5,4.1-5.1,6.4-7.3c1.3-1.3,2.2-2.2,3.5-3.5c1.3-1,2.2-2.2,3.5-3.2c1.3-1,2.5-1.9,3.5-2.9c1.3-1,2.2-1.6,3.2-2.2L309.1,248z
			 M304.7,276.9C304.7,277.2,304.7,276.9,304.7,276.9c0.3-1.6,0.6-2.9,1-4.1c0.3-1.3,0.6-2.5,1.3-3.8c0.3-1.3,1-2.5,1.3-3.5
			s1-2.2,1.6-3.5c0.6-1,1.3-2.2,1.9-3.2s1.3-1.9,1.9-2.9c1.6-1.9,2.9-3.8,4.1-5.1c1.3-1.3,2.5-2.5,4.1-3.8c0.3-0.3,0.6-0.6,0.6-0.6
			l0.6-0.6c0.3-0.3,0.3-1,0-1l-0.3-0.6c0-0.3-0.3,0-0.6,0c-1,0.6-2.2,1.6-3.8,3.2s-3.2,3.2-4.8,5.1c-1.3,1.9-2.9,3.8-3.8,6
			c-1.3,2.2-2.2,4.5-3.2,7c-1,2.2-1.6,4.8-2.2,7.6c0,0.3,0,0.3,0,0.6s0,0.3,0,0.6s0,0.6,0,1.3C304.3,276.3,304.3,276.6,304.7,276.9z
			 M309.1,276.6c-0.3,0.3-0.6,0.6-0.6,0.6c0,0.3,0.3,0.6,0.6,0.6c1.3-0.3,2.2-1,3.5-1.6s2.2-1.3,3.5-2.2c1.3-0.6,2.2-1.6,3.2-2.5
			c1-1,2.2-1.6,3.2-2.5c4.1-3.8,7.6-8.3,11.1-13c0-0.3,0.3-0.3,0.3-0.6s0.3-0.3,0.3-0.6s0.3-0.6,0.6-1c0.3-0.6,0.3-1,0.3-1l0,0l0,0
			v0.3c-1.6,2.5-3.2,4.8-5.1,7s-3.8,4.1-5.7,6c-1,1-1.9,1.9-3.2,2.9c-1,1-2.2,1.6-3.2,2.5c-1.3,1-2.2,1.6-3.2,2.2s-2.2,1.3-3.2,1.9
			c-0.3,0-0.6,0.3-1,0.3C309.7,276.3,309.4,276.6,309.1,276.6z"/>
		<path class="st1" d="M372.7,256.9c-3.5,3.8-7,7.3-11.1,10.2c-1.9,1.6-3.8,2.9-6,4.1c-1.9,1.3-4.1,2.5-6.4,3.5
			c-2.2,1-4.5,1.9-6.7,2.9c-2.2,1-4.5,1.6-7,1.9c-1,0.3-1.9,0.3-3.2,0.6c-1.3,0-2.5,0.3-3.8,0c-1.3,0-2.5-0.3-3.8-0.6
			c-1.3-0.3-2.2-1-2.9-1.6c-0.6-0.3-1.3-1.3-1.6-2.2c-0.6-1-1-2.2-1-3.5s0.6-2.5,1-3.8c1-2.2,2.2-4.1,3.2-6.4c1.3-1.9,2.5-4.1,4.1-6
			c1.6-1.9,3.5-3.8,5.1-5.4c1.9-1.6,3.5-3.2,5.4-4.5c3.8-2.9,7.6-5.1,11.8-6.7c1.9-1,4.1-1.6,6.4-2.2c0.6-0.3,1.3-0.3,2.2-0.6
			c0.6,0,1.6-0.3,2.2-0.3s1.3,0,2.2,0c0.6,0,1.3,0,1.6,0c1.3,0.3,2.2,0.6,2.5,1.6c0.3,1,0.6,1.9,0.6,3.2c0,1.3-0.3,2.5-0.6,3.5
			c-0.3,1.3-1,2.2-1.3,3.2c-1,1.6-2.2,3.2-3.5,4.8c-1.3,1.3-2.5,2.5-4.1,3.5c-1.3,1-2.9,1.9-4.5,2.9c-1.6,1-2.9,1.6-4.5,2.2
			c-1.6,0.6-3.2,1.3-4.8,1.6c-1.3,0.3-2.9,1-4.1,1.3c-1.3,0.3-2.9,0.6-4.5,1c-0.3,0.3-0.6,1-0.6,1.3c-0.3,0.3-0.6,1-0.6,1.3
			c-0.6,1-1,1.6-1.3,2.5s-1,1.9-1.3,2.9c0,0,0,0,0,0.3c0,0,0,0,0,0.3c0.3,0,0.6,0,0.6,0c0.3,0,0.6,0,1,0c1,0,1.9-0.3,2.9-0.3
			s1.9-0.3,3.2-0.6c4.1-1,7.9-2.5,12.1-4.8c1.9-1,3.8-2.2,5.7-3.2c1.9-1.3,3.8-2.5,5.7-3.8c1.9-1.3,3.5-2.9,5.4-4.5
			c1.6-1.6,3.2-3.2,4.8-5.1c0.3-0.3,0.6-0.3,1.3,0c0.6,0.3,0.6,1,0.6,2.2c0,0.3-0.3,1-0.6,1.9c-0.3,0.3-0.3,0.6-0.6,1
			C373.3,255.9,373,256.3,372.7,256.9z M330.7,265.2c-0.6,1.3-1.3,2.2-1.9,3.5c-0.6,1.3-1,2.2-1.6,3.8c0.3,0.3,0.6,0.3,1,0.3
			c0.3,0,0.6,0,1,0.3c0.3-0.3,0.3-1,0.6-1.6s0.3-1,0.6-1.6c0.3-1,0.6-1.6,1.3-2.5c0.3-1,1-1.6,1.3-2.2c1-1.3,1.9-2.9,2.9-4.1
			c1-1.6,2.2-2.9,3.8-4.1c2.5-2.5,5.4-5.1,8.3-7c0.6-0.6,1.6-1,2.2-1.6s1.6-1,2.2-1.6c1.6-1,3.2-1.6,4.8-2.5c0.3,0,0.3-0.3,0.6-0.3
			s0.3-0.3,0.6-0.3s0.3-0.3,0.6-0.3s0.3-0.3,0.6-0.3c0.6-0.3,1-0.6,1-1v-1c0,0,0,0-0.3,0c-1.6,0.3-3.5,1-5.1,1.9
			c-1.6,1-3.2,1.6-4.8,2.5c-3.2,1.9-6.4,3.8-9.2,6.4c-1.3,1.3-2.9,2.5-4.1,3.8c-1.3,1.3-2.5,2.9-3.8,4.5c-0.6,0.6-1.3,1.6-1.6,2.2
			C331.7,263.6,331.4,264.2,330.7,265.2z M349.2,273.4c1.9-1,3.8-1.9,5.4-3.2c1.9-1,3.5-2.2,5.4-3.5s3.5-2.5,5.1-4.1
			c1.6-1.3,3.2-2.9,4.8-4.5c0.3-0.3,0.3-0.6,0.6-0.6c0.3-0.3,0.3-0.3,0.6-0.6s0.3-0.6,0.6-0.6c0-0.3,0.3-0.3,0.3-0.6
			c0.6-1,1-1.3,0.6-1.3l0,0c0,0-0.3,0-0.3,0.3c-2.9,3.2-6,6.4-9.5,9.2c-3.5,2.5-7,4.8-10.8,7c-1.9,1-3.8,1.9-5.7,2.9
			c-1.9,1-3.8,1.6-5.7,2.2c-1.9,0.6-3.5,1-5.4,1.3s-3.5,0.6-5.4,0.3c0,0.3-0.3,0.6-0.3,1.3h1.3c1,0,1.9-0.3,3.2-0.3
			c1,0,1.9-0.3,2.9-0.6c1.9-0.3,4.1-1,6-1.9C345.3,275.3,347.2,274.4,349.2,273.4z M365.4,241.3c0,0.6-0.3,1.6-0.6,2.5
			c-0.3,1-0.6,1.9-1.3,3.2c-0.6,1-1.3,1.9-2.2,3.2c-0.3,0.3-1,1-1.3,1.3s-1,1-1.3,1.3c-1,1-1.9,1.6-2.9,2.2c-1,0.6-1.9,1.3-2.9,1.9
			c-1.9,1.3-4.1,2.2-6.4,3.2c-2.2,1-4.5,1.6-6.7,2.2c-0.3,0-0.3,0-0.6,0.3c-0.3,0-0.3,0-0.3,0.3c-0.3,0-0.6,0.3-1,0.3
			c-0.6,0.3-0.6,0.3-0.6,0.3l0,0h0.3c2.5-0.6,4.8-1.3,7-1.9s4.5-1.6,6.7-2.9c1.3-0.6,2.2-1,3.2-1.6c1-0.6,1.9-1.3,2.9-1.9
			s1.9-1.6,2.9-2.2s1.6-1.6,2.2-2.2c0.3-0.3,0.3-0.3,0.6-0.6c0-0.3,0.3-0.3,0.3-0.6c0.3-0.3,0.3-0.3,0.6-0.6c0-0.3,0.3-0.3,0.3-0.6
			s0.3-0.3,0.3-0.6s0.3-0.6,0.3-0.6c0-0.3,0.3-0.6,0.3-1c0-0.3,0.3-0.6,0.3-1c0-0.3,0-0.3,0.3-0.6c0-0.3,0-0.3,0-0.6s0-0.6,0-1.3
			c0-0.6,0-1,0-1h-0.3C365.4,241,365.4,241,365.4,241.3z M340.3,259.1c1-0.3,1.9-0.6,2.9-1c1-0.3,1.9-0.6,2.9-1.3
			c1.3-0.6,2.9-1.6,4.1-2.2s2.5-1.6,3.8-2.5s2.2-1.9,3.5-2.9c1-1,1.9-2.2,2.5-3.5c0.3-0.3,0.6-1,0.6-1s-0.3,0-0.3,0.3
			c0,0-0.3,0-0.3,0.3c-0.6,0.3-1.6,0.6-2.2,1c-1,0.3-1.6,1-2.5,1.3c-1.6,1-3.2,1.9-4.8,3.2c-0.6,0.6-1.6,1.3-2.2,1.6
			c-0.6,0.6-1.6,1.3-2.2,1.9s-1.6,1.3-2.2,1.9c-0.6,0.6-1.3,1.3-2.2,1.9c0,0.3-0.3,0.3-0.3,0.6C340.9,258.8,340.6,258.8,340.3,259.1
			L340.3,259.1z"/>
		<path class="st1" d="M368.2,302c-3.5,4.5-7.3,8.3-11.8,11.8c-4.5,3.5-9.2,6.4-14.3,8.3c-1,0-1.9,0-2.5-0.6
			c-0.6-0.3-1.3-1.3-1.6-2.5s-0.3-2.5-0.3-4.5c0.3-1.9,0.6-3.5,1-4.8c1.9-5.4,4.1-10.5,6.7-15.6c2.5-5.1,5.1-10.2,7.9-15.6
			c5.4-9.9,11.4-19.1,17.8-28.3c6.4-8.9,13.4-17.8,20.7-26.7c3.8-4.1,7.3-8.3,11.1-12.1c3.8-3.8,7.9-7.6,12.4-11.4
			c0.6-0.3,1-0.6,1.6-0.6c0.3,0,0.6,0.3,1,1c0.3,1.3,0.3,2.2,0.6,3.5c0,1,0.3,2.2,0.3,3.2c0,1,0,2.2,0,3.2c0,1-0.3,2.2-1,3.5
			c-1,2.9-2.5,5.1-4.5,6.7c-6,5.1-11.8,10.8-17.2,16.5c-5.4,6-10.8,12.4-16.5,19.4c2.9,0.3,6,0.3,9.2-0.6c3.2-0.6,6-1.6,8.9-3.2
			c1.3-0.6,2.2-1,3.2-1.6s1.9-1.3,2.9-2.2c0.3-0.3,0.3-0.3,0.3,0c0.6,0.6,0.6,1.6,0.6,2.5c0,1-0.6,1.9-1.3,2.2
			c-1.9,1.6-4.1,3.2-6.7,4.5c-2.2,1.3-4.8,2.2-7.3,3.2c-1.9,0.6-3.8,1.3-6,1.6c-1.9,0.3-4.1,0.6-6,0.3c1,1.6,1.3,3.2,1.6,5.1
			s0.3,4.1,0,6c-0.3,2.2-0.6,4.1-1,6c-0.3,1.9-1,3.8-1.6,5.4c-1.3,3.2-2.5,5.7-4.1,8.3c-0.6,1.3-1.6,2.5-2.5,3.8
			C370.1,299.8,369.2,301.1,368.2,302z M343.4,310.9c0,0.3,0,0.6-0.3,1c0,0.3,0,1-0.3,1.3c0,0.3,0,0.6,0,0.6s0.3-0.3,0.3-0.6
			c1.3-3.8,2.9-7.6,4.8-11.1c1-1.9,1.9-3.8,2.9-5.4c1-1.9,1.9-3.5,2.9-5.4c1.9-3.5,4.1-7,6-10.2c2.2-3.5,4.1-6.7,6.4-9.9
			c2.2-3.2,4.5-6.4,6.7-9.5c2.2-3.2,4.8-6,7-9.2c2.5-3.2,5.1-6,7.3-8.6c2.2-2.5,4.5-5.1,6.4-7.3c2.2-2.2,4.1-4.5,6-6.4
			c1.9-1.9,4.1-4.1,6.4-6.4c0.6-0.6,1.3-1.3,1.9-1.9c0.6-0.6,1.3-1.3,1.9-1.9c1-1.3,1.6-1.9,1.6-2.5c0-0.6,0-1-0.3-0.6
			c-0.3,0-0.6,0.3-1,0.6c-1.3,1.3-2.9,2.9-5.1,4.8c-1.9,1.9-4.1,4.1-6.7,6.7c-2.2,2.5-4.8,5.1-7.3,7.9c-2.5,2.9-5.1,5.7-7.6,8.9
			c-4.8,5.7-9.5,12.1-14,18.4c-2.2,3.2-4.5,6.7-6.7,9.9c-2.2,3.2-4.1,6.7-6.4,10.2c-1.9,3.5-4.1,7-6,10.5c-1.9,3.5-3.5,7.3-5.4,11.1
			c-0.3,1-1,2.2-1.3,3.2C344.1,308.7,343.7,309.7,343.4,310.9z M345.3,318.9c0,0.3,0,0.6,0,0.6s0.3,0,0.6-0.3c1.9-1,3.8-2.2,5.7-3.5
			c1.9-1.3,3.8-2.9,5.7-4.1c1-0.6,1.9-1.6,2.5-2.2c1-1,1.9-1.6,2.5-2.5c1-1,1.6-1.9,2.5-2.9c1-1,1.6-1.9,2.5-2.9
			c0.6-1,1.6-1.9,2.2-2.9s1.6-2.2,2.2-3.2c0.3-0.6,0.6-1,1-1.6c0.3-0.6,0.6-1.3,1-1.6c0.6-1.3,1.3-2.2,1.6-3.5c0.6-1,1-2.2,1.3-3.5
			c0.3-1.3,0.6-2.5,1-4.1c0.3-1.6,0.6-3.2,0.6-5.1c0-1.3,0-2.9,0-4.8c-0.3-1.6-0.3-3.2-0.6-4.5c0-0.3,0-0.3-0.3-0.6
			c0-0.3-0.3-0.6-0.3-0.6c0-0.3-0.3-0.3-0.3-0.3s0,0.3,0,0.6c0.6,1.6,1,3.2,1,5.1c0,1.9,0,3.5,0,5.4c0,0.3-0.3,0.6-0.3,1.3
			c0,0.6-0.3,1.6-0.3,2.9c-0.3,1.6-1,3.2-1.3,4.8c-0.6,1.6-1.3,3.2-2.2,4.8c-1.6,3.2-3.5,6.4-5.7,9.2c-2.2,2.9-4.8,5.7-7.9,8.3
			c-3.5,3.2-7,6-10.8,8.3c-0.3,0.3-0.6,0.6-1.3,0.6c-0.3,0.3-1,0.6-1.3,0.6c-0.3,0.3-0.6,0.6-1,0.6
			C345.7,318.2,345.3,318.6,345.3,318.9z M374.6,263.6c-3.5,4.1-6.7,8.6-9.9,13.7c-3.2,5.1-6.4,10.2-9.2,15.3
			c-1.3,2.2-2.5,4.8-3.8,7c-1.3,2.2-2.5,4.8-3.5,7.3c-0.6,1-1,2.2-1.3,3.2s-1,2.2-1.3,3.2c1.9-1.3,4.1-2.2,6-3.5s4.1-2.5,6-4.5
			c1.9-1.6,3.8-3.2,5.4-5.1c1.9-1.9,3.5-3.8,5.1-6c1.3-1.9,2.9-4.1,4.1-6.7c1.3-2.5,2.2-5.1,2.9-7.6c0.6-2.5,1-5.4,1-7.9
			C376.2,268.7,375.5,266.1,374.6,263.6z M385.4,260.7c-1,0.3-2.2,0.3-3.2,0.3s-2.2,0-3.2,0c0,0-0.3,0-0.6,0s-0.6,0-0.6,0
			c-0.3,0-0.3,0-0.6,0s-0.3,0.3-0.3,0.3c1,0.6,1.9,1,3.2,0.6c1.3,0,2.5-0.3,3.5-0.3c2.2-0.3,4.1-0.6,6.7-1.6c1-0.3,2.2-1,3.2-1.3
			s2.2-1,3.2-1.3c1.9-1,3.8-2.2,6-3.8c0,0,0.3-0.3,0.6-0.3c0.3-0.3,0.3-0.3,0.6-0.6c0.3-0.3,0.3-0.3,0.6-0.6
			c0.3-0.3,0.3-0.3,0.3-0.6s0,0-0.3,0c-1.9,1.6-3.8,2.9-5.7,3.8c-1.9,1-4.1,1.9-6.4,2.9c-1,0.3-2.2,0.6-3.2,1
			C387.6,260.1,386.7,260.4,385.4,260.7z"/>
		<path class="st1" d="M411.1,268.7c-0.6,2.2-1.9,3.8-3.5,5.4c-1.6,1.6-3.5,2.9-5.1,3.8c-1.6,1-3.5,1.6-5.4,1.9
			c-1,0-1.9,0.3-2.9,0.3c-1,0-1.9,0-2.9-0.3c0,0-0.3,0-0.3-0.3s-0.3-0.6-0.3-0.6c0-1.6,0-2.5-0.3-3.2s-0.3-1-0.6-1.3
			c-0.6-1.3-0.6-2.5,0-3.8c0.3-1.3,1-2.5,1.9-3.2c1.9-1.3,3.5-2.5,5.4-3.8c1.9-1.3,3.8-2.2,6-3.2c-0.6,0-1.3-0.3-1.9-0.6
			c-0.6-0.3-1.3-0.6-1.9-1.3c-0.3-0.6-0.6-1.3-0.6-2.2c0-0.6,0-1.6,0-2.5c0-1,0.3-1.6,0.6-2.5c0.6-2.5,1.9-4.8,3.5-6.7
			c1.6-1.9,3.5-3.5,5.4-5.1c2.2-1.6,4.5-2.5,7-3.5c2.5-0.6,5.1-1,7.6-0.6c0.3,0,0.3,0.3,0.6,0.6c0.3,0.3,0.3,0.6,0.3,1.3
			c0.3,1.6,0.6,3.2,0.6,4.5c0.3,1.3,0.3,2.2,0.3,2.9c0,0.6,0,1.3,0,1.6s0,0.6,0,1.3c0,0.3-0.3,0.6-0.3,1.3c-0.3,0.3-0.3,0.6-1,0.6
			c-1.9-0.6-3.8-0.6-6-0.3c-1.9,0.3-4.5,1-6.7,1.9c-0.6,0.3-1.3,1-1.9,1.3c-0.6,0.6-1.3,1.3-1.9,1.9c-0.6,0.6-1,1.6-1,2.2
			c-0.3,1-0.3,1.9,0,2.9c1.3-0.6,2.5-1,3.5-1.6c1.3-0.3,2.5-1,3.8-1.3c3.2-1,6.4-1.9,9.5-2.5c3.2-0.6,6.7-1.3,10.5-1.9
			c0.3,0,0.3,0,1,0s0.6,0,1-0.3c0.3,0,0.6,0,1,0c0.3,0,0.6,0,0.6,0.3c0.3,1.3,0,2.2-1,2.9c-1,0.6-1.6,1.3-2.9,1.6
			c-1.9,0.3-3.8,1-5.7,1.3c-1.9,0.3-3.8,1-5.7,1.6c-1.9,0.6-3.8,1.3-5.4,1.9c-1.9,0.6-3.5,1.3-5.4,2.2c-0.3,0-0.6,0.3-1,0.3
			s-0.6,0.3-1,0.6c0.3,0.3,0.6,0.6,0.6,1c0.3,0.3,0.6,0.6,0.6,1.3c0.3,0.3,0.3,1,0.3,1.3C411.5,267.7,411.5,268.3,411.1,268.7z
			 M402.9,273.1c0.3-0.3,1-0.6,1.9-1.3c0.6-0.6,1.6-1.3,2.2-1.9s1.3-1.6,1.9-2.2c0.6-0.6,0.6-1.6,0.6-2.2h-0.3
			c-0.6,1.3-1.3,2.5-2.2,3.5c-1,1-1.9,1.9-3.2,2.5c-1.3,0.6-2.2,1-3.5,1.3c-1.6,0.3-2.9,0.3-4.5,0.3c-0.6,0-1.3,0.3-1.6,0.6
			s-0.3,0.6,0,0.6c1.3,0,2.5,0,4.1,0C400,274.4,401.3,273.7,402.9,273.1z M404.5,263.9c-1.9,1-3.5,1.9-5.1,3.2s-3.2,2.5-5.1,3.8
			c0,0.3,0,0.3,0.6,0.6c0.6,0,1,0,1.3-0.3c1-1,1.9-1.6,2.9-2.2c1-0.6,1.9-1.6,2.9-2.2c1.3-1,2.5-1.6,4.1-2.5c1.3-1,3.2-1.6,5.1-2.5
			c1.6-0.6,3.2-1.3,4.8-1.9s3.2-1.3,5.1-1.6c1.6-0.3,2.9-0.6,3.5-1c0.6-0.3,1.3-0.3,1.6-0.3c1.3-0.3,2.5-0.6,3.8-1
			c1.3-0.3,2.5-0.6,4.1-1c0.3,0,0.3-0.3,1-0.3c0.3-0.3,0.3-0.3,0-0.3c-1.6,0.3-2.9,0.6-3.5,0.6c-0.6,0-1.3,0.3-1.6,0.3
			s-1,0.3-1.6,0.3s-1.9,0.3-3.5,1c-3.5,1-6.7,1.9-10.2,3.2C410.8,260.7,407.6,262.3,404.5,263.9z M408.3,264.5
			c-1.3,0.6-2.5,1.3-3.5,1.9c-1.3,0.6-2.2,1.3-3.5,2.2c-0.6,0.3-1,0.6-1.6,1s-1,0.6-1.6,1.3c1.3,0,2.5-0.3,4.1-1
			c1.3-0.6,2.5-1.3,3.8-2.5C406.7,266.7,407.6,265.8,408.3,264.5z M404.5,256.6c0,0.3,0,0.6,0.3,1.3c0,0.6,0.3,1,0.6,1
			c0,0,0,0,0-0.3s0-0.6,0-1.3c0-1.6,0.3-3.2,1-4.5c0.6-1.3,1.6-2.2,2.9-3.2s2.5-1.6,4.1-1.9c1.6-0.6,2.9-1,4.1-1c0.3,0,0.6,0,1.3,0
			s1,0,1.6,0s1,0,1.3,0c0.3,0,1,0,1.3-0.3c0.3,0,0.6-0.3,0.3-0.6c0-0.3-0.3-0.3-0.3-0.3c-0.3,0-0.6,0-1.3,0c-0.3,0-1,0-1.3,0
			c-0.6,0-1,0-1.3,0c-2.2,0.3-4.5,0.6-6.7,1.6c-2.2,0.6-4.1,2.2-5.7,4.5c-0.6,0.6-1,1.6-1.6,2.5
			C404.5,254.3,404.1,255.3,404.5,256.6z"/>
		<path class="st1" d="M468.7,237.2c0.6,1.6,1.3,3.2,1.9,4.8c0.3,1,0.3,1.9,0.3,3.2c0,1.3-0.3,2.2-0.3,3.2c-0.3,1-0.6,1.9-1.3,2.9
			c-0.6,1-1,1.3-1.9,1.6c-1.3,0.6-2.2,1-3.2,1.3c-1,0.3-2.2,0.6-3.2,1.3c-2.5,1-5.4,1.9-7.9,2.9c-2.9,1-5.4,2.2-8.3,3.5
			c-2.9,1.3-5.4,2.9-7.9,4.5c-2.5,1.6-5.1,3.5-7.3,6c1.6-0.3,3.5-0.6,5.4-0.6c1.9,0,3.8,0,6,0c1.6,0,2.9,0.3,4.5,0.6
			c1.6,0.3,2.9,1,4.5,1.3c1.3,0.6,2.9,1,4.1,1.6c1.3,0.6,2.9,1.3,4.1,1.9c0.3,0.3,0.3,0.3,0.3,0.6c0,1-0.3,1.3-0.6,1.9
			c-0.3,0.3-1,0.6-1.6,0.6c-0.3,0-0.3,0-0.6,0c-0.3,0-0.3,0-0.6-0.3c-1.3-0.6-2.9-1-4.1-1.3c-1.3-0.3-2.9-0.6-4.1-1
			c-1.3-0.3-2.9-0.3-4.1-0.6c-1.3,0-2.9,0-4.1,0c-2.9,0.3-5.4,0.6-8.3,1.6c-1.3,0.3-2.2,0.6-3.5,1.3c-1.3,0.3-2.2,1-3.5,1.3
			c-0.6,0.3-1,0.3-1.6,0.6s-1,0-1.6-0.3c-0.6-1-1-2.2-1.3-4.1c0-1,0-1.9,0.3-3.2c0.3-1,0.6-1.9,1.3-2.5c1.9-2.9,3.8-5.4,6-7.6
			c2.2-2.2,4.5-4.5,7-6.4c2.5-1.9,4.8-3.8,7.6-5.4c2.5-1.6,5.4-3.5,7.9-4.8c-1,0-2.2,0.3-3.2,0.3c-1.3,0-2.2,0-3.5,0
			c-1.3,0-2.9-0.3-4.1-0.6c-1.3-0.3-2.9-0.6-4.1-1.3c-0.3,0-0.3-0.3-0.3-0.3c0-0.3,0-0.3,0-0.6c0.3-1,0.6-1.6,1-2.5
			c0.3-1,1-1.6,1.6-2.2s1.3-0.6,1.9-0.6c1.3,0.3,2.2,1,3.5,1c1.3,0.3,2.5,0.3,3.5,0.6c1.3,0,2.5,0.3,3.8,0.3s2.5,0,3.8,0
			s2.5-0.3,3.8-0.6s2.5-0.3,3.8-0.6s2.5-0.6,3.8-1c1.3-0.3,2.5-1,3.8-1.6C467.7,236.2,468.4,236.5,468.7,237.2z M463.9,251.8
			c0.6-0.3,1.3-0.3,1.9-1c1-0.3,1.3-1,1.3-1.9c0,0-0.6,0-1.6,0.3c-1,0.3-1.9,0.6-3.2,1c-1.3,0.3-2.2,0.6-3.2,1.3
			c-1,0.3-1.9,0.6-2.2,0.6c-1.6,0.6-3.5,1.3-5.1,2.2c-1.9,0.6-3.5,1.6-5.1,2.2c-1.6,1-3.5,1.6-5.1,2.5s-3.2,1.9-5.1,3.2
			c-1.9,1.3-3.8,2.9-5.7,4.5c-1.9,1.6-3.5,3.2-5.1,5.1c-0.3,0.3-0.6,1-1.3,1.6c-0.3,0.6-0.6,1.3-0.3,1.6c0,0.3,0.3,0,0.3-0.3
			c1.3-1.6,2.9-3.2,4.5-4.8c1.6-1.6,3.2-2.9,4.8-4.1c1.6-1.3,3.2-2.2,5.1-3.2c1.6-1,3.5-1.9,5.1-2.9s3.5-1.6,5.1-2.2
			s3.5-1.6,5.1-2.2s3.5-1.3,5.1-1.9C460.7,252.8,462.3,252.4,463.9,251.8z M436.9,272.5c-1.6,0.3-3.2,0.3-4.8,0.6s-3.2,0.3-4.5,0.6
			c-0.3,0.3-0.6,0.6-0.6,0.6c-0.3,0.3-0.6,0.3-0.6,0.6c1-0.3,1.9-0.6,2.5-0.6s1.9-0.3,2.9-0.6c1,0,1.9-0.3,2.9-0.3s2.2-0.3,3.5-0.3
			c0.6,0,1,0,1.6,0s1,0,1.6,0c1,0,1.9,0.3,3.2,0.3c1,0,2.2,0.3,3.2,0.6c1,0.3,2.2,0.6,3.2,1c1,0.3,2.2,0.6,3.2,1.3
			c0,0,0.3,0,0.6,0.3c0.3,0,0.6,0.3,1,0.3c0.3,0,0.6,0,0.6,0c0.3,0,0,0,0-0.3c-1-0.3-2.2-1-3.2-1.3s-2.2-0.6-3.2-1.3
			c-1-0.3-2.2-0.6-3.2-1c-1-0.3-2.2-0.6-3.2-0.6c-1.3,0-2.2-0.3-3.2-0.3C439.1,272.5,437.8,272.5,436.9,272.5z M446.7,243.2
			c1.9,0,3.8,0,5.7-0.3c1,0,1.9-0.3,2.9-0.3c1-0.3,1.9-0.3,2.9-0.6c0.6-0.3,1-0.6,1.6-0.6c0.6-0.3,1-0.6,1.6-0.6
			c-1.3,0.3-2.5,0.6-3.8,1c-1.3,0.3-2.5,0.3-3.5,0.6c-1,0-1.9,0.3-2.9,0.3c-1,0-1.9,0.3-2.9,0.3c-1.9,0-3.8-0.3-5.1-0.6
			c-1.3-0.3-2.9-0.6-4.5-1c0,0-0.3,0-0.6,0s-0.6,0-1,0c-0.3,0-0.3,0-0.6,0.3c0,0,0,0.3,0.3,0.3c0.6,0.3,1.3,0.6,1.9,0.6
			c0.6,0.3,1.3,0.3,1.9,0.3c1,0,1.6,0.3,2.5,0.3C444.8,242.9,445.8,243.2,446.7,243.2z"/>
	</g>
	<g>
		<path class="st2" d="M149.5,532.9h-0.2c0.3-2.6,2.2-4.7,5.7-6.5c1.5-0.7,4.7-1.9,9.5-3.4c2-0.8,5-1.9,9.1-3.3
			c0.2,0,0.5-0.2,0.7-0.4h0.3v-0.2c-0.3,0-0.6-0.2-0.9-0.5c-1.6,0.3-2.6,0.4-3,0.4s-0.6-0.1-0.7-0.2c-0.1,0-0.2-0.1-0.4-0.1
			c-0.7,0-2.8,0.4-6.2,1.2s-5.4,1.3-6,1.6c-1,0.5-2.6,1.4-4.7,2.5c0.4,0,0.7,0.2,0.7,0.4c-0.5,0-1.3,0.2-2.4,0.5
			c-1.2,0.4-1.8,0.7-1.8,1l0.5-0.1c0.1,0,0.1,0,0.1,0.1h0.2v0.2h-0.2v0.2c-0.5,0.1-2,1.2-4.5,3.1c-2.5,2-3.8,3.1-3.8,3.4l-0.2-0.2
			c-1.1,0.8-2.5,2.9-4.4,6.3c-1.5,2.7-2.2,5.5-2.2,8.2c0,3.1,1,5.6,3,7.4c2.1,1.9,5,2.8,8.9,2.8v-0.2c0.5-0.2,0.8-0.3,0.9-0.3
			c0.1,0,0.2,0,0.2,0.1h0.2v-0.4h0.2v0.2l0.9-0.2l1,0.4v-0.2c0.2-0.1,0.7-0.3,1.5-0.6s1.3-0.4,1.4-0.3c0.4-0.3,1-0.8,1.7-1.4
			l0.7-0.2v0.6h0.4v-0.2h-0.2c0.3-0.1,0.5-0.2,0.6-0.4h0.2c0.6-0.5,2-1.4,4.1-2.8c2.3-1.5,3.6-2.2,4-2.2l-0.2-0.2
			c1.1-0.7,2.1-1.5,3.2-2.2c1.5-1.1,2.3-1.9,2.3-2.4h0.5v0.1c-0.1,0.1-0.2,0.1-0.3,0.2c-0.2,0.4-0.4,1.1-0.8,1.9
			c-0.3,0.2-0.8,0.5-1.3,1c-0.4,0.5-1.1,1.1-2,2c-4,3.9-7.5,6.3-10.5,7.3c-0.5,0.1-1.1,0.4-1.7,0.7h0.4c-0.6,0.3-1.4,0.7-2.5,1.2
			v-0.1c-1.6,0.3-3.6,0.7-6,1.4v-0.2h0.2v-0.2c0,0-0.1-0.1-0.2-0.2l-2.1,0.2c-0.4-0.2-1-0.5-1.7-0.9l0.2-0.3h-0.3l-3.6-0.2v-0.1h0.3
			V558c0.4,0,0.6-0.2,0.6-0.3l-0.2-0.2l-2.2-0.1c-0.6-0.4-1.2-0.8-1.9-1.4l0.2-0.4c-2.6-1.4-4.4-4-5.4-8c-0.2-0.8-0.3-1.2-0.3-1.1
			c0-0.1,0.1-0.2,0.2-0.2c0.1,0,0.1,0,0.2,0.1c0.1,0,0.1,0,0-0.1h0.3c-0.5-0.7-0.7-1.8-0.7-3.2c0-0.5,0-0.9,0-0.9l0.4-3.1
			c0.4-0.4,0.8-0.9,1.5-1.5c0.1-0.5,0.8-1.5,2.2-2.9s2.2-2.2,2.7-2.2v-0.2c-0.1,0-0.6-0.1-1.5-0.3v-0.2l0.6-0.5
			c0.5,0.1,1.1,0.2,1.7,0.5h0.2v-0.3c1.1-2.2,3.2-4.4,6.5-6.5c2.7-1.8,5.7-3.2,9-4.4c0-0.1,0.2-0.3,0.4-0.5c0.7-0.2,1.7-0.6,3.1-1.1
			c2.1-0.9,4.2-1.8,6.2-2.7c2.3-0.9,4.6-1.3,6.9-1.4c0.8-0.1,1.9-0.3,3.4-0.5c1,0.3,2.1,0.9,3.3,2s1.8,2.1,1.8,2.9
			c0,0.6-0.3,1-0.9,1.3c-0.2,0.1-2.3,0.7-6.4,1.8C156.5,526,149.5,529.6,149.5,532.9z"/>
		<path class="st2" d="M176.8,534.8c0.6-0.5,1.2-1.3,2.1-2.1c0.3-0.3,0.5-0.9,0.6-1.8s0.3-1.4,0.5-1.6c0.5-0.4,1.2-1,2.1-1.7
			c0.4-0.4,0.9-1.1,1.6-1.9c0.4-0.4,1.1-0.9,1.9-1.7c0.4-0.5,1.1-1.1,2-2c0.4-0.4,1.9-1.5,4.3-3.4c0.8-0.6,1.5-1.2,2.3-1.7
			c1-0.7,1.8-1.1,2.6-1.4c0.7-0.2,1.7-0.5,2.9-1.1c0.7,0.2,1.5,0.5,2.3,0.9c1.1,0.5,1.6,1,1.6,1.5c0,0.2-0.1,0.3-0.2,0.5
			c-0.2,0.2-0.7,0.5-1.5,0.8c-1.1,0.4-1.7,0.6-1.8,0.7c-0.6,0.5-1.7,1.1-3.2,2h-0.1c-0.1,0.1-1,0.6-2.6,1.3
			c-0.3,0.1-0.6,0.4-0.9,0.9l-0.1,0.1l-0.2,0.1c-0.1,0-0.1,0-0.1,0l0,0l0,0h0.4v0.2l0,0c0,0.1-0.1,0.2-0.2,0.2
			c-0.9,0.6-2.1,1.6-3.7,2.9c-0.3,0.5-0.9,1-1.8,1.6l0,0c0,0.3-0.9,1.2-2.8,2.6c-0.2,0.1-0.4,0.3-0.5,0.5h-0.1v0.1
			c0,0.3-0.2,0.7-0.6,1.1c-0.5,0.4-0.9,0.6-1.3,0.6v-0.9l0.2-0.1c0.1-0.1,0.2-0.2,0.3-0.3l0.4,0.1v-0.1l0,0c0.4-0.6,0.7-0.9,0.7-1.1
			c0,0,0-0.1-0.1-0.1c-0.3,0-0.8,0.4-1.7,1.2c-0.9,0.9-1.7,1.9-2.3,2.9c-0.1,0.4-0.4,0.8-0.9,1.4c-0.7,0.7-1.1,1.2-1.2,1.3l0,0
			c-1.8,2.5-2.9,4.1-3.6,5.1c-1.2,1.9-2.1,3.7-2.8,5.4c-0.4,1.1-0.9,2.2-1.3,3.2c-0.4,1.3-0.7,2.4-0.7,3.4c0.5-0.6,1.2-1.5,2.1-2.7
			c1.3-1.7,2.2-2.5,2.5-2.5c0.1,0,0.2,0,0.2,0.1c0,0.4-0.7,1.6-2.2,3.5s-2.4,3-2.7,3c-0.6,0-1.1-0.2-1.6-0.7s-0.7-1-0.7-1.5
			c0,0.1,0.2-0.5,0.5-1.7l0.5-1.9c0.2-0.9,0.9-2.5,2.1-4.8c0.8-1.2,2-3.1,3.6-5.6c0.5-0.5,1.2-1.4,2-2.6l0,0
			C175.5,536.4,176,535.6,176.8,534.8z M174.2,548.9c-0.2,0-0.3-0.1-0.3-0.2c0-0.1,0.1-0.3,0.3-0.5s0.4-0.3,0.5-0.3s0.3,0.1,0.3,0.4
			C175,548.7,174.7,548.9,174.2,548.9z M187.1,555.1l0.5-0.2c0.4,2.6,1.7,3.9,4,3.9c0,0,0.2,0,0.5-0.1s0.8-0.4,1.6-0.8
			c0.7-0.4,1.1-1,1.1-1.8c0.2,0.6,0.3,1,0.3,1c0,0.3-0.3,0.7-0.8,1.3c-1.5,1.6-3.1,2.4-4.7,2.4c-1.2,0-2.6-0.7-4-2.1
			c-0.4-0.1-0.7-0.5-1-1l0.4-0.1v-0.1c-0.6-0.7-1.1-1.7-1.5-3c-0.3-1-0.6-2.1-0.9-3.1h0.1l-0.1-0.1c-0.1-0.3-0.1-0.7-0.1-1.2
			c0-0.2,0-0.5,0-0.8c-0.1,0-0.2,0.1-0.3,0.1v-0.1H182c0.1-0.3,0.1-0.6,0.1-0.9c0-3.3-0.3-4.9-1-4.9c-0.1,0-1.4,1.1-4.1,3.4
			c-0.6,0.5-1.1,0.9-1.5,1.1v-0.5c0.3-0.5,0.8-1.2,1.5-2.1c0.4-0.4,0.9-0.9,1.6-1.6c0.4-0.4,0.9-1.1,1.7-1.9c1-1,1.5-1.5,1.6-1.6
			c0.8-0.7,1.5-1.1,1.9-1.2c1-0.2,1.7-0.3,2-0.3c0.5,1.4,0.8,2.2,0.8,2.4c0,0.8,0,2.1,0,3.7c0,1.7,0,2.9,0,3.7
			c0,0.6-0.1,0.9-0.2,1.1c0.1,0.2,0.1,0.4,0.2,0.6h0.1l0,0l0.4-0.1c0,1.6,0.2,2.8,0.6,3.5c0.1,0.1,0.2,0.2,0.2,0.4
			c0,0.1,0,0.1-0.1,0.1v0.1h-0.4c-0.1,0-0.2,0-0.2,0.1l0,0C187,554.7,187,554.9,187.1,555.1z M189.1,525.4c0.3-0.1,0.7-0.3,1.3-0.6
			l-0.5-0.1L189.1,525.4z M190.4,524.8c0.4-0.2,0.8-0.5,1.4-1l-0.2-0.3C190.9,523.9,190.5,524.3,190.4,524.8z"/>
		<path class="st2" d="M209,548.5l-0.1-0.1c0.3-0.4,0.7-0.8,1.1-1.4c0-0.1,0.1-0.2,0.2-0.4c0.1-0.2,0.2-0.3,0.4-0.3s0.3,0.1,0.3,0.2
			c0,0.1,0,0.2,0,0.2c0,0.4-0.2,1-0.6,1.6c-0.4,0.7-0.9,1.1-1.4,1.2v0.1c-0.1,0.1-0.4,0.4-0.7,0.8c-0.6,0.7-1,1.1-1.2,1.4
			c-0.6,0.6-1.1,0.9-1.5,0.9l-1,0.5c0,0.1,0,0.1,0,0.2c0,0.2-0.1,0.3-0.4,0.4c-0.2,0.2-0.4,0.2-0.7,0.2c-0.3,0.1-0.7,0.4-1.4,0.8
			l0,0c-0.2,0.2-0.7,0.4-1.4,0.5c-0.3,0.2-0.8,0.3-1.6,0.3c-1.6,0-2.7-0.1-3-0.2c-0.7-0.2-1.5-0.8-2.2-1.9l0.6-0.1l-0.4-0.2
			l-0.7-1.6h0.5l0,0c0,0,0,0-0.1-0.1v0.2h-0.4v-0.9c0-0.3,0.2-0.7,0.7-1.4s0.7-1.1,0.7-1.1l0.3,0.1l-0.3,0.2v0.3l-1.1,0.2v-0.2
			c0.1-0.1,0.3-0.3,0.6-0.5c0,0.1,0,0.1,0,0.1l0.1-0.1v-0.3c0-0.7,0.3-1,0.8-1.1H195c-0.1,0.1-0.3,0.1-0.4,0.2c0-0.2,0-0.3,0-0.4
			l0.1-0.3h0.4c0.1,0,0.1-0.1,0.2-0.2c0.1,0,0.1,0.1,0.1,0.1c-0.1,0-0.2,0-0.4,0.1l-0.2,0.1v-0.3c0.4-0.5,0.7-0.8,0.8-0.8
			s0.2,0,0.1,0.1h-0.1c0.1,0,0.1,0.1,0.1,0.1l-0.1,0.1l0,0l-0.2,0.1c0-0.1,0-0.3,0.1-0.5c-0.1,0-0.1,0-0.2,0c-0.2,0-0.3-0.1-0.3-0.2
			c0-0.1,0-0.1,0-0.2v-0.2c0-0.1,0-0.2,0-0.3s0-0.2-0.1-0.4l0.5-0.4h0.3l0,0l0,0h0.1h0.1c0.1,0,0.2,0,0.6-0.1l-0.4,0.3v0.1l-0.2-0.1
			c0.1,0,0.2-0.1,0.4-0.3c0.1-0.5,0.3-1.2,0.6-2.2l1-0.1c0.1,0,0.1-0.1,0.1-0.1v0.2h-0.4h-0.1c0-0.1,0-0.4-0.1-0.9l0.3-0.2V540
			l0.6-0.3v-0.2l0,0c0.3-0.4,0.8-0.8,1.7-1.3c0.1,0,0.1-0.1,0.2-0.1l0.2-0.1l0.1,0.2h-0.1c-0.1,0-0.1,0-0.2,0l0,0
			c-0.2,0-0.4,0-0.5,0v-0.1l-0.3,0.2v-0.5h0.1l0.1-0.1l0.5-0.1l0.2,0.1l0.1-0.1l0.1,0.1h-0.2h-0.4c0-0.1,0-0.2,0-0.3l-0.2,0.1v-0.4
			c0.9-0.4,1.3-0.8,1.3-1.2l0.3-0.2v-0.2l0.3,0.1l0.9-0.7v-0.2l0.6-0.2l0.2-0.4c0-0.1,0.1-0.2,0.2-0.2c0.2,0,0.4,0.1,0.7,0.2h0.4
			c1,0,2,0.4,3.1,1.3c1.1,0.9,1.7,1.8,1.7,2.6c0,0.1,0.1,0.4,0.2,0.6s0.2,0.5,0.2,0.7s0,0.4-0.1,0.5c-0.7,1.4-1.9,2.9-3.6,4.3
			c-1.6,1.4-3.3,2.4-5,3.2c-1.1,0.5-2,0.7-2.6,0.7c-0.2,0-0.4-0.1-0.8-0.2c0.3-0.1,0.7-0.3,1.2-0.5c0.2,0,0.4-0.1,0.6-0.2l-0.1-0.1
			c0.1-0.1,0.2-0.2,0.4-0.2c0.2-0.1,0.6-0.2,1.4-0.4c0.6-0.2,1-0.3,1-0.5c0.1-0.1,0.6-0.6,1.4-1.6l0.6-0.1l0.7-0.9l-0.1-0.2l0.5-0.2
			v-0.2h0.1c1-0.9,1.6-1.7,2-2.6c0.1-0.1,0.1-0.1,0.2-0.1v-0.1c0.3-0.4,0.4-0.9,0.4-1.3c0-0.9-0.5-1.3-1.5-1.3c-0.4,0-0.7,0-0.7,0
			s0.1,0,0.4,0l-0.3,0.2c-0.6,0.1-1,0.5-1,1c-0.2,0-0.3,0-0.3,0c0.1,0.1,0.2,0.2,0.2,0.2c-0.3,0-0.5,0.1-0.7,0.2l0.4,0.1
			c-0.5,0.2-0.9,0.4-1.4,0.7c-0.6,0.3-1,0.6-1,0.9c0,0.1,0.2,0.2,0.5,0.4l-1.1-0.1l0.1-0.1l0,0l0,0c0,0,0.1,0,0.3,0v0.5
			c-0.1-0.1-0.1-0.2,0-0.2l0,0c0.1,0,0.2,0,0.4-0.1c-0.3,0-0.4,0-0.4,0.1l0,0c0,0.1,0,0.1,0,0.2h-0.2c-0.4,0.5-0.9,1.2-1.6,2.1
			l0.5,0.2h-0.5l-0.3,0.2l0,0v0.3l-0.4,0.3l0.1,0.1l-0.7,0.9h-0.2v0.3h-0.4l0.1-0.1l0,0h0.1c0.1,0,0.2,0.1,0.2,0.3l-0.8,0.7l0.1,0.2
			h-0.2v0.4c-0.3,0.2-0.5,0.5-0.7,1s-0.4,0.9-0.5,1.1h0.4l-0.6,0.3c0,0.1,0,0.2,0,0.4c0,0.1,0,0.4,0.1,0.7s0.1,0.6,0.1,0.7
			c0,0.3,0.2,0.7,0.5,1.2s0.6,0.7,0.9,0.7c0.6,0,1.5-0.2,2.6-0.6c1.1-0.4,2-0.6,2.5-0.7l1.4-0.9C205.6,551.6,206.9,550.4,209,548.5
			L209,548.5L209,548.5z M196,544.3l0.2-0.6l1,1.4C196.6,544.5,196.2,544.3,196,544.3z M197.6,541.5v-0.3l0.4-0.3v0.6H197.6z
			 M199.9,538.4l0.4-0.5c0.2,0.1,0.3,0.3,0.3,0.5H199.9z"/>
		<path class="st2" d="M213.8,562.3c-0.6,1-1.4,1.5-2.6,1.5c-0.6,0-1.2-0.2-1.7-0.5c0,0-0.3-0.4-0.8-1c-0.4-0.5-0.6-0.8-0.6-1
			c0-0.7,0.1-1.9,0.4-3.7c0.4-0.2,0.5-0.6,0.5-1.2c0.1-0.1,0.3-0.4,0.6-0.9c0.2-0.4,0.4-0.6,0.7-0.6c0.1-0.2,0.1-0.4,0.2-0.6
			l-0.1-0.2c0,0,0-0.1,0.1-0.1c0.1-0.8,0.3-1.7,0.7-2.9c0.1-0.1,0.2-0.2,0.2-0.2s0.1,0.1,0.2,0.3c0.1,0.2,0.2,0.3,0.3,0.3
			c0,0,0.1-0.1,0.3-0.5s0.3-0.6,0.3-0.6c0.3,0,0.4,0,0.4,0.1s-0.1,0.4-0.3,0.9s-0.3,0.8-0.4,1.1c-0.1,0.6-0.4,1.8-0.9,3.5
			c-0.4,1.4-0.7,2.6-0.7,3.5c0,1.3,0.3,2.4,0.9,3.3c0.4-0.1,0.7-0.3,1.1-0.5v0.1l0.2,0.4h0.1c0.2-0.5,0.5-0.7,0.8-0.7L213.8,562.3
			L213.8,562.3z M239.7,539.2c0,0.1-0.1,0.2-0.3,0.2c-0.4-0.1-0.5-0.1-0.4-0.1c-0.4,0-0.5-0.1-0.5-0.2c0.1,0-0.1-0.1-0.6-0.2
			c-0.3,0.4-0.6,0.5-1.1,0.5c-0.1,0-0.5,0-1.1-0.1l-0.2,0.4l-0.8-0.3c-0.3,0.2-0.6,0.3-1,0.2c-0.1,0.2-0.3,0.4-0.6,0.6
			c0-0.1,0-0.2-0.1-0.5h-0.1c-0.6,0.3-1.2,0.4-1.9,0.4c-0.2,0-0.5,0-0.8,0c-0.4,0-0.7,0-0.8,0c-1.1,0-2.4,0.1-3.9,0.3l-0.1-0.1
			c-0.6,0-1.2,0.1-1.8,0.1c-0.6,0.3-1.2,0.4-1.7,0.4l0,0l-0.7,0.7c-0.2,0-0.4-0.1-0.7-0.1l-2.3,2c-0.3,0.4-0.8,0.8-1.4,1.1v0.2
			l-0.1,0.1c-0.5,0.4-1,0.9-1.3,1.7c-0.1,0.1-0.8,1.2-2.1,3.2c-0.1,0-0.1,0.1-0.2,0.1c-0.2,0-0.4-0.1-0.5-0.3
			c-0.2-0.2-0.2-0.3-0.2-0.4c0.2-0.6,0.7-1.4,1.5-2.4s1.4-2,1.7-2.9c0.2-0.5,0.6-0.9,1.1-1.2l0.6-0.5c-0.3-0.2-0.5-0.2-0.7-0.2
			c0.4-0.6,1.1-1.5,2.2-2.6c-2.9-0.4-4.4-1.4-4.4-3c0-0.4,0.1-0.7,0.4-1c0.3-0.3,0.4-0.5,0.4-0.5c0.3-0.3,0.5-0.5,0.6-0.5
			s0.1,0.1,0.1,0.2c0,0.1,0.1,0.2,0.1,0.2c0,0.1-0.2,0.4-0.5,0.9c-0.2,0.4-0.3,0.7-0.3,0.9c0,0.8,1.3,1.5,4,2
			c1.3-2.2,3.7-5.5,7.2-10c1.2-1.6,3.2-3.9,5.9-7c1.2-1.1,3-2.8,5.4-5.1c1.1-1.1,2.4-2.1,4-2.9c1.5-0.8,3-1.5,4.5-2.3
			c2.3,0.4,3.4,1.1,3.4,2c0,0.2-0.1,0.3-0.2,0.5c-0.9,0.5-2.2,1.2-3.8,2.1c-0.9,0.8-2.1,1.7-3.5,2.8l-0.1-0.2
			c-0.7,0.9-1.5,1.4-2.3,1.6l0.1,0.1l-1.1,0.7v-0.1l0,0l0.3-0.3v-0.1l0,0l0,0c-0.3,0.2-0.7,0.4-1.1,0.7l-0.6,1.1
			c0.6,0,0.9,0,0.9,0.2c0,0.1-0.1,0.3-0.4,0.5c0,0-1,0.9-3,2.5s-3.1,2.9-3.2,3.9c-1,0.6-2.1,1.7-3.5,3.4l0.2,0.5l-2.7,2.6
			c-0.1,0.2-0.3,0.5-0.8,1.1c-0.4,0.5-0.6,0.8-0.6,1.1c0,0.2,0.1,0.3,0.3,0.3c0.4,0,1.5-0.5,3.2-1.6c1.7-1,2.8-1.6,3.3-1.7v-0.1
			c2-1.3,4.1-2.6,6.4-3.9l0.3,0.1c0,0,0.2-0.2,0.4-0.6l0.8,0.1l0,0l0,0c0,0.1,0,0.2,0,0.3c0,0.3-0.1,0.4-0.2,0.5
			c-0.2,0.1-0.3,0.1-0.4,0.2c0.1,0,0.2,0.1,0.2,0.2c0,0-0.2,0.1-0.5,0.1l0,0l-1.1,0.6l-0.1,0.5c-0.2,0-0.3-0.1-0.3-0.4
			c0-0.2,0-0.4,0.1-0.7h-0.1c-0.1,0.1-0.2,0.3-0.4,0.5l0.1,0.1v0.1c-0.4,0.3-0.6,0.5-0.6,0.5c0.1,0,0.2,0,0.4,0.1
			c-0.1,0.1-0.2,0.2-0.4,0.4h-0.1l0,0l-0.3-0.1l-0.7,0.8l-0.2-0.3l-0.6,0.6l0,0c-0.3,0-0.8,0.3-1.5,0.8s-1,0.8-1.1,1H231l-3,1.3
			l-1.2,0.9l0,0c0-0.1,0-0.2-0.1-0.2l0,0v0.1c-0.2,0.1-0.4,0.2-0.8,0.5c0.3,0,0.5,0,0.7,0c0.6,0,1-0.1,1.3-0.2c0.3,0,0.6,0,1,0
			c0.2,0,0.6,0,1.1-0.1c0.5,0,0.9-0.1,1.1-0.1c0.2,0,0.6,0,1,0.1c0.4,0,0.8,0.1,1,0.1c0.1,0,0.7-0.1,1.9-0.2
			c1.2-0.2,2.2-0.2,2.9-0.2C239.1,538.5,239.7,538.7,239.7,539.2z M237,539l0.1-0.2h-0.3v0.1h-0.2L237,539z M253,517.3l-0.4,0.1
			c-0.1,0.3-0.2,0.7-0.3,1.2c-0.2,0.3-0.4,0.6-0.6,1c-0.9,1.5-1.9,3-3.1,4.6l0,0l-0.1-0.1h-0.2c-0.7,1-1.8,2-3.3,3
			c-2.5,1.5-3.8,2.3-3.8,2.4c-0.4,0.3-0.9,0.7-1.5,1.4l-0.1,0.1v-0.1c0-0.4,0.2-0.8,0.5-1.1c0.5-0.6,2.7-2.4,6.7-5.5l0.2,0.2
			l0.2-0.2v-0.1c0.2-0.5,0.5-1,1-1.6h0.1c0-0.1,0-0.1,0-0.2c0-0.2,0.1-0.2,0.2-0.2s0.2,0,0.3,0.1l1.3-2.7l0,0
			c-0.1,0,0.1,0.1,0.6,0.3c0-0.3,0-0.8,0-1.4l0.3-0.2l0.6-2.9c0-0.3,0-0.8-0.1-1.4c-0.1-0.6-0.1-1.1-0.1-1.5c0-0.1,0.1-0.2,0.2-0.2
			c0.1,0,0.2,0,0.4,0.1c0.9,0.6,1.4,1.6,1.4,3.1C253.1,515.8,253,516.4,253,517.3z"/>
		<path class="st2" d="M268.5,554.2L268.5,554.2c0.1,0,0.3-0.1,0.5-0.4c0.2-0.2,0.5-0.4,0.8-0.4l0.1-0.1l0,0c0-0.1,0-0.1,0-0.1
			c0-0.2,0.2-0.3,0.5-0.4c0.3-0.1,0.5-0.2,0.7-0.2l0,0l1.8-1.4l0,0c0.5-0.4,0.9-0.7,1.4-0.9v-0.4l0.5-0.1h0.1l1.6-1.8
			c0.1,0,0.2,0,0.4,0.1c0.2-0.2,0.4-0.3,0.4-0.5c0-0.1,0.4-0.2,1.1-0.5c-0.6,0.9-1.4,2.3-2.5,4c-0.9,1.4-1.9,2.6-2.9,3.5l-0.3-0.2
			l0.4-0.5l-0.1-0.5l0.2-0.1l0,0h-0.3c0.1-0.3,0.2-0.4,0.3-0.5c0.1,0,0.1,0,0.1,0.1c0,0-0.1,0.1-0.2,0.1l0.4,0.2l-0.6,0.4v0.2
			l-0.5,0.4c-0.1,0.4-0.3,0.8-0.6,1.1h-0.3l-0.1-0.1v0.3l-0.4,0.4h-0.2l-0.8,0.9v-0.2l-0.1,0.1c-0.3,0-0.6,0.2-1.1,0.5l-2,0.2
			c-0.1-0.1-0.7-0.5-2-1.4c-0.8-0.5-1.2-1.1-1.2-1.8h0.2l-0.2-0.9c0,0-0.2,0.2-0.4,0.3c0.1-0.3,0.2-0.6,0.3-0.7
			c0.1-0.8,0.3-2.1,0.7-3.9c0.2-0.6,0.4-1.5,0.7-2.8h0.1l0.8-1.5v-0.2l-0.4,0.5c-0.9,1.1-1.9,2.2-2.8,3.2c-1.3,1.5-2.4,2.4-3.2,2.7
			c-0.3,0.1-0.7,0.5-1.3,1.1c-0.5,0.1-1.1,0.5-1.9,1.3c-0.8,0.8-1.5,1.2-2.1,1.2v0.3c-0.4,0.4-1.2,0.6-2.4,0.7
			c-2.9-1-4.4-2.1-4.4-3.4c0-0.3,0.1-0.6,0.2-0.9l0,0c0,0,0-0.1,0-0.2v0c-0.1-0.1-0.1-0.3,0-0.4c0.1-0.2,0.1-0.3,0.2-0.3
			c0,0,0.1,0,0.1,0.1c0.1-0.2,0.1-0.6,0.2-1.1l0.1-0.1c0-0.4,0.3-0.8,0.9-1.3c0.6-0.5,0.9-0.8,0.9-0.9c0.1,0,0.1-0.1,0.1-0.2
			c0-0.1,0-0.2-0.1-0.4s-0.1-0.3-0.1-0.4v-0.2h0.3l0.2-0.2v-0.1c-0.1-0.1-0.2-0.2-0.2-0.3s0.1-0.2,0.4-0.4l0,0c0,0,0,0,0-0.1
			s0-0.1,0-0.2c0.1-0.1,0.4-0.3,0.7-0.5c0.1,0,0.4-0.4,0.9-1.1c0.1,0,0.2,0,0.2,0h0.1h0.1c-0.1-0.1-0.2-0.2-0.2-0.2
			c0-0.5,1.1-1.6,3.3-3.2c1.5-1,2.9-2,4.4-3.1v-0.3h0.2c0.5-0.4,1.3-0.9,2.4-1.4l0.1-0.2l0.4-0.1c0.1-0.2,0.3-0.3,0.6-0.3l0.1-0.1
			h0.1c0.1,0,0.1-0.1,0.1-0.1l1.2-0.5l0.1,0.1l1-0.3c0-0.1,0.1-0.1,0.2-0.2h0.1h0.9l0.4-0.2l0.1-0.1v0.1l0.1-0.1l0.1,0.1l1.3-0.2
			c0.9,0,1.8,0.1,2.6,0.4c1.1,0.3,1.8,0.8,2,1.3v0.1l-1.5,0.7c0.1-0.3,0.2-0.4,0.2-0.4c0-0.1-0.2-0.1-0.7-0.1c-1.1,0-2.7,0.7-5,2
			c-0.1,0-1,0.5-2.5,1.5c-3.9,2.5-6.9,4.9-8.9,7.3c-0.4,0.6-1.1,1.3-1.9,2.1c-0.5,0.9-1.4,2.3-2.6,4.1c-0.1,0.5-0.3,1.3-0.5,2.4
			l0.3,0.5c2.1-0.6,3.1-1.2,3.1-1.7c0.3,0,0.5-0.1,0.5-0.1l0,0V552c0.1-0.1,0.1-0.1,0.2-0.1c0.1,0,0.1,0,0.2,0l0.2-0.2v-0.3l0.3,0.2
			l0.9-0.7c0.1-0.2,0.2-0.3,0.5-0.4c0.6-0.4,1.3-1,2.1-1.9c1-1,1.6-1.7,2-2h0.1l0.8-0.9v-0.2l1-1h0.2c0-0.2,0.2-0.4,0.4-0.7l0.2,0.1
			l0.5-0.6v-0.1c0.7-0.7,1.7-1.9,3-3.5c0-0.7,0.4-1.1,1.2-1.1c0.1,0,0.3,0,0.5,0.1c0.1-0.3,0.2-0.7,0.2-1.2c0.1,0,0.4,0,0.6-0.1
			c0.1,0,0.2,0,0.4-0.1v0.1l0.5,0.1c0.1-0.1,0.3-0.1,0.4-0.1c0.5,0,1.2,0.3,2.1,0.8c0,0,0,0,0.1,0s0.2,0,0.4,0c0.6,0,1,0.2,0.9,0.6
			v0.1c-0.5,0.7-1.5,1.7-2.8,3v0.1l-1.1,1.3l0.2,0.2l-2.3,2.3h-0.3c-0.1,0.5-0.4,1-0.7,1.5l-0.6,0.2c0,0,0.1,0.2,0.2,0.5
			c-0.9,1.4-1.3,2.5-1.1,3.5c-0.2,0.1-0.3,0.3-0.3,0.6c0,0.5,0.1,1.2,0.4,2.2l0.8-0.3c0.1,0,0.1,0,0.2,0l0,0c0,0,0.1-0.2,0.4-0.6
			l0.1,0.4l0.7-0.2L268.5,554.2L268.5,554.2z M273.6,552.9L273.6,552.9l0.1-0.2l0,0h0.3c-0.1,0.1-0.1,0.2-0.2,0.4L273.6,552.9z"/>
		<path class="st2" d="M294.8,537.6c-6.9,0.7-10.3,3-10.3,6.9c0,0.7,0.4,2,1.3,3.7c0.9,1.9,1.7,2.9,2.3,2.9c1.8,0,2.9,0,3.4-0.1
			c0.3-0.1,0.8-0.2,1.5-0.3c0.6-0.1,1.6-0.3,2.9-0.4c0.5-0.2,1.3-0.4,2.4-0.4l0.4,0.1l-0.1,0.5c-3.2,0.9-5,1.3-5.3,1.3H293
			c-0.1,0-0.1,0-0.2,0c-0.3,0-1,0.2-2.2,0.5c-1.1,0.3-2,0.4-2.8,0.4c-0.3,2.1-1.4,3.1-3.4,3.1l-2.7-0.4l0.1-0.2
			c-1.4,0-2.4-0.2-2.9-0.7c-0.5-0.4-0.7-1.2-0.7-2.4c0,0,0-0.1,0.1-0.4c0.3,0,0.6,0,0.9,0c0.5,0,0.8-0.1,0.9-0.2
			c0.7,0,1.7-0.1,3.1-0.2v-0.1c-1.1-1.7-1.7-2.8-2-3.3c-0.6-1.2-0.9-2.4-0.9-3.6c0-4.3,4.5-7.9,13.5-10.7l1.8,1
			c0.9,1.3,1.4,2.1,1.4,2.4c0,0,0,0.1,0,0.2c0,0.1,0,0.2,0,0.3l-0.5,0.5c-0.1,0-1.4,0.7-3.8,1.9c-2.1,1.1-3.2,1.6-3.3,1.6
			c-0.2,0-0.3-0.1-0.3-0.2C289,541.1,290.9,539.8,294.8,537.6z M279.6,552.5C279.6,552.4,279.6,552.4,279.6,552.5
			c0.1,0.1,0.6,0.3,1.5,0.6c1,0.3,1.5,0.4,1.8,0.4c0.1,0,0.2-0.1,0.2-0.4c0-0.3-0.1-0.4-0.3-0.4c-0.4,0-0.9,0-1.6-0.1
			s-1.2-0.1-1.5-0.1H279.6l-0.1-0.3h0.1V552.5L279.6,552.5z"/>
		<path class="st2" d="M330.1,554.2L330.1,554.2c0.1,0,0.3-0.1,0.5-0.4c0.2-0.2,0.5-0.4,0.8-0.4l0.1-0.1l0,0c0-0.1,0-0.1,0-0.1
			c0-0.2,0.2-0.3,0.5-0.4c0.3-0.1,0.5-0.2,0.7-0.2l0,0l1.8-1.4l0,0c0.5-0.4,0.9-0.7,1.4-0.9v-0.4l0.5-0.1h0.1l1.6-1.8
			c0.1,0,0.2,0,0.4,0.1c0.2-0.2,0.4-0.3,0.4-0.5c0-0.1,0.4-0.2,1.1-0.5c-0.6,0.9-1.4,2.3-2.5,4c-0.9,1.4-1.9,2.6-2.9,3.5l-0.3-0.2
			l0.4-0.5l-0.1-0.5l0.2-0.1l0,0h-0.3c0.1-0.3,0.2-0.4,0.3-0.5c0.1,0,0.1,0,0.1,0.1c0,0-0.1,0.1-0.2,0.1l0.4,0.2l-0.6,0.4v0.2
			l-0.5,0.4c-0.1,0.4-0.3,0.8-0.6,1.1h-0.3l-0.1-0.1v0.3l-0.4,0.4h-0.2l-0.8,0.9v-0.2l-0.1,0.1c-0.3,0-0.6,0.2-1.1,0.5l-2,0.2
			c-0.1-0.1-0.7-0.5-2-1.4c-0.8-0.5-1.2-1.1-1.2-1.8h0.2l-0.2-0.9c0,0-0.2,0.2-0.4,0.3c0.1-0.3,0.2-0.6,0.3-0.7
			c0.1-0.8,0.3-2.1,0.7-3.9c0.2-0.6,0.4-1.5,0.7-2.8h0.1l0.8-1.5v-0.2L327,545c-0.9,1.1-1.9,2.2-2.8,3.2c-1.3,1.5-2.4,2.4-3.2,2.7
			c-0.3,0.1-0.7,0.5-1.3,1.1c-0.5,0.1-1.1,0.5-1.9,1.3s-1.5,1.2-2.1,1.2v0.3c-0.4,0.4-1.2,0.6-2.4,0.7c-2.9-1-4.4-2.1-4.4-3.4
			c0-0.3,0.1-0.6,0.2-0.9l0,0c0,0,0-0.1,0-0.2v0c-0.1-0.1-0.1-0.3,0-0.4c0.1-0.2,0.1-0.3,0.2-0.3c0,0,0.1,0,0.1,0.1
			c0.1-0.2,0.1-0.6,0.2-1.1l0.1-0.1c0-0.4,0.3-0.8,0.9-1.3s0.9-0.8,0.9-0.9c0.1,0,0.1-0.1,0.1-0.2c0-0.1,0-0.2-0.1-0.4
			s-0.1-0.3-0.1-0.4v-0.2h0.3l0.2-0.2v-0.1c-0.1-0.1-0.2-0.2-0.2-0.3s0.1-0.2,0.4-0.4l0,0c0,0,0,0,0-0.1s0-0.1,0-0.2
			c0.1-0.1,0.4-0.3,0.7-0.5c0.1,0,0.4-0.4,0.9-1.1c0.1,0,0.2,0,0.2,0h0.1h0.1c-0.1-0.1-0.2-0.2-0.2-0.2c0-0.5,1.1-1.6,3.3-3.2
			c1.5-1,2.9-2,4.4-3.1v-0.3h0.2c0.5-0.4,1.3-0.9,2.4-1.4l0.1-0.2l0.4-0.1c0.1-0.2,0.3-0.3,0.6-0.3l0.1-0.1h0.1
			c0.1,0,0.1-0.1,0.1-0.1l1.2-0.5l0.1,0.1l1-0.3c0-0.1,0.1-0.1,0.2-0.2h0.1h0.9l0.4-0.2l0.1-0.1v0.1l0.1-0.1l0.1,0.1l1.3-0.2
			c0.9,0,1.8,0.1,2.6,0.4c1.1,0.3,1.8,0.8,2,1.3v0.1l-1.5,0.7c0.1-0.3,0.2-0.4,0.2-0.4c0-0.1-0.2-0.1-0.7-0.1c-1.1,0-2.7,0.7-5,2
			c-0.1,0-1,0.5-2.5,1.5c-3.9,2.5-6.9,4.9-8.9,7.3c-0.4,0.6-1.1,1.3-1.9,2.1c-0.5,0.9-1.4,2.3-2.6,4.1c-0.1,0.5-0.3,1.3-0.5,2.4
			l0.3,0.5c2.1-0.6,3.1-1.2,3.1-1.7c0.3,0,0.5-0.1,0.5-0.1l0,0V552c0.1-0.1,0.1-0.1,0.2-0.1s0.1,0,0.2,0l0.2-0.2v-0.3l0.3,0.2
			l0.9-0.7c0.1-0.2,0.2-0.3,0.5-0.4c0.6-0.4,1.3-1,2.1-1.9c1-1,1.6-1.7,2-2h0.1l0.8-0.9v-0.2l1-1h0.2c0-0.2,0.2-0.4,0.4-0.7l0.2,0.1
			l0.5-0.6v-0.1c0.7-0.7,1.7-1.9,3-3.5c0-0.7,0.4-1.1,1.2-1.1c0.1,0,0.3,0,0.5,0.1c0.1-0.3,0.2-0.7,0.2-1.2c0.1,0,0.4,0,0.6-0.1
			c0.1,0,0.2,0,0.4-0.1v0.1l0.5,0.1c0.1-0.1,0.3-0.1,0.4-0.1c0.5,0,1.2,0.3,2.1,0.8c0,0,0,0,0.1,0s0.2,0,0.4,0c0.6,0,1,0.2,0.9,0.6
			v0.1c-0.5,0.7-1.5,1.7-2.8,3v0.1l-1.1,1.3l0.2,0.2l-2.3,2.3h-0.3c-0.1,0.5-0.4,1-0.7,1.5l-0.6,0.2c0,0,0.1,0.2,0.2,0.5
			c-0.9,1.4-1.3,2.5-1.1,3.5c-0.2,0.1-0.3,0.3-0.3,0.6c0,0.5,0.1,1.2,0.4,2.2l0.8-0.3c0.1,0,0.1,0,0.2,0l0,0c0,0,0.1-0.2,0.4-0.6
			l0.1,0.4l0.7-0.2L330.1,554.2L330.1,554.2z M335.1,552.9L335.1,552.9l0.1-0.2l0,0h0.3c-0.1,0.1-0.1,0.2-0.2,0.4L335.1,552.9z"/>
		<path class="st2" d="M402.6,516l-0.1,1l-1.8,0.7l-0.7-0.1c-0.5,0.2-0.7,0.6-0.7,1.3s-0.1,1.1-0.4,1.2l-1-0.2l-0.1,0.1l0.9,0.9
			l-0.2,0.3l0.4,0.3l-0.3,0.2l-0.7-0.2c-0.1,0.6-0.2,1.2-0.3,1.7c-0.1,0.7-0.5,1.1-1.2,1.2c-0.3,0.2-0.5,0.8-0.8,1.7
			c-0.2,0.6-0.7,0.9-1.6,1.1V527l0.1-1.5l-0.5-0.3c0.1-1.2,0.5-3,1.1-5.3c-1.6-1.2-3.1-1.9-4.6-1.9c-0.2,0-0.4,0-0.8,0.1
			c-0.4,0-0.6,0.1-0.8,0.1c0.1,0.5-0.5,0.8-1.8,0.8c-0.1,0-0.3,0-0.6-0.1c-0.2-0.1-0.4-0.1-0.6-0.1c-0.7,0.4-1.2,0.6-1.4,0.6
			c-0.2,0-0.6,0.1-1.1,0.4s-0.9,0.4-1.3,0.4s-0.7-0.1-1.1-0.3c-0.1,0-0.3,0.2-0.6,0.6c-0.3,0.3-0.6,0.5-1,0.5l-0.5-0.2
			c-0.1,0.1-0.3,0.2-0.6,0.2c-0.3,0-0.5,0.1-0.6,0.1c-0.1,0.1-0.4,0.3-0.9,0.5c-0.1,0.1-0.3,0.2-0.5,0.3l-0.3-0.2
			c-0.1,0-0.4,0.3-0.9,0.8c-0.4,0.3-0.9,0.5-1.6,0.5l-1.6,1c-0.2,0.1-0.5,0.3-0.8,0.6c-0.3,0.7-1.1,1.3-2.3,1.7
			c-0.2,0.3-0.5,0.5-0.9,0.5c-0.5,0.4-1,1.1-1.5,2c-0.5,1-0.7,1.7-0.7,2.2c0,1,0.2,1.6,0.6,1.8s0.9,0.4,1.3,0.6
			c0.5,0.5,2,0.9,4.4,1.3c0.2,0,0.3,0.1,0.3,0.1c0,0.1-0.1,0.1-0.4,0.1c-2.9,0-4.7-0.4-5.3-1.1c0,0-0.1-0.1-0.2-0.2
			c-0.6,0-1-0.2-1.4-0.6c-0.4-0.4-0.6-0.9-0.6-1.3c0,0,0.1-0.5,0.2-1.5h-0.1c-0.3,0-0.4,0.5-0.4,1.4c0,0.4,0,0.7,0,0.9
			c0.3,1.4,1.9,2.4,4.7,2.9c1.9,0.3,5,0.5,9.2,0.5h3.6c4.4,0,7.5,0.2,9.4,0.6c2.8,0.6,4.1,1.7,4.1,3.2c0,0.4-0.1,1-0.4,1.6
			c-0.5,1-0.7,1.5-0.7,1.5c-0.6,0.2-1,0.5-1.3,0.9c-0.2,0.4-0.5,0.8-0.8,1.2c-0.3,0.1-0.9,0.5-1.9,1.2c-0.9,0.6-1.5,1-1.7,1
			c-0.8,0.3-1.3,0.7-1.4,1.1l-0.3-0.1c-1.5,1.9-6,4.1-13.4,6.8c-7.2,2.5-12.2,3.8-15.3,3.8c-1.3,0-2.5-0.3-3.7-0.8
			c-1.4-0.6-2.2-1.4-2.4-2.3c-0.1-0.5-0.2-1-0.2-1.5c0-1.8,1.4-3.6,4.3-5.3c0.2-0.1,0.5-0.2,0.8-0.4c1.1-0.6,2.3-1.2,3.6-1.7
			c0.4-0.1,0.9-0.3,1.6-0.6c0.7-0.4,1.3-0.8,2-1.1c0.8-0.4,1.6-0.6,2.3-0.6h0.1h0.1c4.9-1.5,8.8-2.3,11.8-2.3c1.1,0,1.7,0.2,1.7,0.5
			c0,0.1-0.2,0.2-0.7,0.2c-0.6,0-1.6,0-2.8,0.1c0,0.3-0.2,0.5-0.6,0.5c-0.6,0-1.4,0.2-2.6,0.6c-1.2,0.4-2.1,0.6-2.8,0.6
			c-0.3,0-0.7,0.1-1.2,0.3s-0.9,0.3-1.1,0.3c-0.4,0.3-0.9,0.4-1.3,0.4l-0.2-0.1l-0.1-0.1c-0.7,0.2-1.8,0.5-3.1,1
			c-1.1,0.6-2.2,1.2-3.2,1.8c-1.4,0.8-2.6,1.2-3.5,1.2c-0.9,1-1.3,1.7-1.3,2s-0.2,0.5-0.7,0.6v0.6c0,0.3-0.1,0.5-0.4,0.7
			c0.3,0.2,0.4,0.3,0.4,0.5s-0.1,0.3-0.3,0.5c0.1,0.2,0.2,0.4,0.2,0.5s-0.1,0.2-0.2,0.2v0.1c0.8,0.6,1.7,0.9,2.9,0.9
			c1.2,0,3.4-0.6,6.6-1.8c2.2-0.9,4.4-1.8,6.6-2.6v-0.1c0.4,0,0.7,0,0.7,0c0.1,0,0.2-0.2,0.3-0.5l0.6-0.5h0.9c0.8-0.4,1.6-0.8,2.5-1
			c0.4-0.4,2.2-1.4,5.2-3c2.7-1.4,4.6-2.4,5.8-2.9c0.6-0.5,1-1.6,1.4-3.1l-0.1-0.7c-0.1-0.5-0.3-0.8-0.7-1c-1-0.6-3.6-1-7.9-1.2
			c-5.3-0.3-8.9-0.6-10.8-1c-3.7-0.8-5.7-2.3-6.1-4.5l-0.4,0.2l-0.2-0.1c0-0.2,0-0.4,0-0.6c0-1.8,0.8-3.7,2.6-5.6
			c1.4-1.7,3.2-3.1,5.3-4.2c2.2-1.2,3.9-2.1,5.1-2.7c2-1,3.8-1.7,5.4-2.1c1.6-0.5,3.6-0.9,5.8-1.1c1-0.1,2.3-0.3,4.1-0.6
			c3,0,4.9,0.6,5.6,1.9c0.4-0.1,0.6-0.4,0.6-0.7c0-0.2,0-0.4-0.1-0.7s-0.1-0.6-0.1-0.8c0-0.5-0.1-0.8-0.4-1l0.4-0.2h0.2
			c0.7,0,2,0.3,3.8,0.8C401.1,515,402.2,515.6,402.6,516z M388.8,537.9l-0.5-0.2l-0.5,0.3l0.7,0.4L388.8,537.9z M390.3,544.7
			l-1.1,0.9l-0.5-0.2l-0.2,0.7l0.1,0.1l1.1-0.2L390.3,544.7z M393.1,542.1L393.1,542.1l-1.6,0.4l0.4,0.4l0.4,0.1L393.1,542.1z
			 M392.7,541.7c0-0.5-0.1-0.9-0.3-1.3c-0.6,0.5-0.9,1-0.8,1.4v0.2l0.4,0.1L392.7,541.7z M393.6,540.6L393.6,540.6l-0.7-0.7v0.7
			L393.6,540.6z M394,527.7l-0.9,0.9l0.2-1.2L394,527.7z"/>
		<path class="st2" d="M410.5,548.5l-0.1-0.1c0.3-0.4,0.7-0.8,1.1-1.4c0-0.1,0.1-0.2,0.2-0.4s0.2-0.3,0.4-0.3c0.2,0,0.3,0.1,0.3,0.2
			c0,0.1,0,0.2,0,0.2c0,0.4-0.2,1-0.6,1.6c-0.4,0.7-0.9,1.1-1.4,1.2v0.1c-0.1,0.1-0.4,0.4-0.7,0.8c-0.6,0.7-1,1.1-1.2,1.4
			c-0.6,0.6-1.1,0.9-1.5,0.9l-1,0.5c0,0.1,0,0.1,0,0.2c0,0.2-0.1,0.3-0.4,0.4c-0.2,0.2-0.4,0.2-0.7,0.2c-0.3,0.1-0.7,0.4-1.4,0.8
			l0,0c-0.2,0.2-0.7,0.4-1.4,0.5c-0.3,0.2-0.8,0.3-1.6,0.3c-1.6,0-2.7-0.1-3-0.2c-0.7-0.2-1.5-0.8-2.2-1.9l0.6-0.1l-0.4-0.2
			l-0.7-1.6h0.5l0,0c0,0,0,0-0.1-0.1v0.2h-0.4v-0.9c0-0.3,0.2-0.7,0.7-1.4s0.7-1.1,0.7-1.1l0.3,0.1l-0.3,0.2v0.3l-1.1,0.2v-0.2
			c0.1-0.1,0.3-0.3,0.6-0.5c0,0.1,0,0.1,0,0.1l0.1-0.1v-0.3c0-0.7,0.3-1,0.8-1.1h-0.1c-0.1,0.1-0.3,0.1-0.4,0.2c0-0.2,0-0.3,0-0.4
			l0.1-0.3h0.4c0.1,0,0.1-0.1,0.2-0.2c0.1,0,0.1,0.1,0.1,0.1c-0.1,0-0.2,0-0.4,0.1l-0.2,0.1v-0.3c0.4-0.5,0.7-0.8,0.8-0.8
			s0.2,0,0.1,0.1h-0.1c0.1,0,0.1,0.1,0.1,0.1l-0.1,0.1l0,0l-0.2,0.1c0-0.1,0-0.3,0.1-0.5c-0.1,0-0.1,0-0.2,0c-0.2,0-0.3-0.1-0.3-0.2
			c0-0.1,0-0.1,0-0.2v-0.2c0-0.1,0-0.2,0-0.3s0-0.2-0.1-0.4l0.5-0.4h0.3l0,0l0,0h0.1h0.1c0.1,0,0.2,0,0.6-0.1l-0.4,0.3v0.1l-0.2-0.1
			c0.1,0,0.2-0.1,0.4-0.3c0.1-0.5,0.3-1.2,0.6-2.2l1-0.1c0.1,0,0.1-0.1,0.1-0.1v0.2h-0.4H399c0-0.1,0-0.4-0.1-0.9l0.3-0.2V540
			l0.6-0.3v-0.2l0,0c0.3-0.4,0.8-0.8,1.7-1.3c0.1,0,0.1-0.1,0.2-0.1l0.2-0.1l0.1,0.2h-0.1c-0.1,0-0.1,0-0.2,0l0,0
			c-0.2,0-0.4,0-0.5,0v-0.1l-0.3,0.2v-0.5h0.1l0.1-0.1l0.5-0.1l0.2,0.1l0.1-0.1l0.1,0.1h-0.2h-0.4c0-0.1,0-0.2,0-0.3l-0.2,0.1v-0.4
			c0.9-0.4,1.3-0.8,1.3-1.2l0.3-0.2v-0.2l0.3,0.1l0.9-0.7v-0.2l0.6-0.2l0.2-0.4c0-0.1,0.1-0.2,0.2-0.2c0.2,0,0.4,0.1,0.7,0.2h0.4
			c1,0,2,0.4,3.1,1.3c1.1,0.9,1.7,1.8,1.7,2.6c0,0.1,0.1,0.4,0.2,0.6s0.2,0.5,0.2,0.7s0,0.4-0.1,0.5c-0.7,1.4-1.9,2.9-3.6,4.3
			c-1.6,1.4-3.3,2.4-5,3.2c-1.1,0.5-2,0.7-2.6,0.7c-0.2,0-0.4-0.1-0.8-0.2c0.3-0.1,0.7-0.3,1.2-0.5c0.2,0,0.4-0.1,0.6-0.2l-0.1-0.1
			c0.1-0.1,0.2-0.2,0.4-0.2c0.2-0.1,0.6-0.2,1.4-0.4c0.6-0.2,1-0.3,1-0.5c0.1-0.1,0.6-0.6,1.4-1.6l0.6-0.1l0.7-0.9l-0.1-0.2l0.5-0.2
			v-0.2h0.1c1-0.9,1.6-1.7,2-2.6c0.1-0.1,0.1-0.1,0.2-0.1v-0.1c0.3-0.4,0.4-0.9,0.4-1.3c0-0.9-0.5-1.3-1.5-1.3c-0.4,0-0.7,0-0.7,0
			s0.1,0,0.4,0l-0.3,0.2c-0.6,0.1-1,0.5-1,1c-0.2,0-0.3,0-0.3,0c0.1,0.1,0.2,0.2,0.2,0.2c-0.3,0-0.5,0.1-0.7,0.2l0.4,0.1
			c-0.5,0.2-0.9,0.4-1.4,0.7c-0.6,0.3-1,0.6-1,0.9c0,0.1,0.2,0.2,0.5,0.4l-1.1-0.1l0.1-0.1l0,0l0,0c0,0,0.1,0,0.3,0v0.5
			c-0.1-0.1-0.1-0.2,0-0.2l0,0c0.1,0,0.2,0,0.4-0.1c-0.3,0-0.4,0-0.4,0.1l0,0c0,0.1,0,0.1,0,0.2h-0.2c-0.4,0.5-0.9,1.2-1.6,2.1
			l0.5,0.2h-0.5l-0.3,0.2l0,0v0.3l-0.4,0.3l0.1,0.1l-0.7,0.9h-0.2v0.3h-0.4l0.1-0.1l0,0h0.1c0.1,0,0.2,0.1,0.2,0.3l-0.8,0.7l0.1,0.2
			h-0.2v0.4c-0.3,0.2-0.5,0.5-0.7,1s-0.4,0.9-0.5,1.1h0.4l-0.6,0.3c0,0.1,0,0.2,0,0.4c0,0.1,0,0.4,0.1,0.7s0.1,0.6,0.1,0.7
			c0,0.3,0.2,0.7,0.5,1.2s0.6,0.7,0.9,0.7c0.6,0,1.5-0.2,2.6-0.6c1.1-0.4,2-0.6,2.5-0.7l1.4-0.9C407,551.6,408.4,550.4,410.5,548.5
			L410.5,548.5L410.5,548.5z M397.5,544.3l0.2-0.6l1,1.4C398.1,544.5,397.7,544.3,397.5,544.3z M399,541.5v-0.3l0.4-0.3v0.6H399z
			 M401.4,538.4l0.4-0.5c0.2,0.1,0.3,0.3,0.3,0.5H401.4z"/>
		<path class="st2" d="M426.7,549.1c-0.3,0.3-0.6,0.6-0.9,0.7c0,0.1-0.1,0.1-0.1,0.1c-0.1,0.2-0.3,0.3-0.5,0.3
			c-0.4,0.6-0.8,0.9-1,0.9c-0.1,0.2-0.4,0.3-0.9,0.4c0,0.1-0.1,0.2-0.1,0.3c-0.1,0.2-0.3,0.3-0.7,0.3c-0.1,0-0.1,0.1-0.2,0.1
			s-0.3,0-0.4-0.1c-0.1,0.1-0.3,0.1-0.4,0.1c-0.6,0-1.2-0.3-1.8-1c-0.6-0.7-0.9-1.3-0.9-1.8c0-0.8,0.8-2.6,2.3-5.2
			c0.3-0.5,0.4-0.8,0.4-0.9c0,0-0.4-0.4-1.1-1.1c-0.8-0.7-1.2-1.4-1.4-2.1c-1.4,2-2.2,2.9-2.4,2.9c-0.1,0-0.2,0-0.4-0.1
			c0,0-0.1,0.2-0.4,0.5c-1.4,1.8-2.3,2.7-2.6,2.7c-0.2,0-0.3-0.1-0.3-0.2c0-0.4,0.5-1.2,1.5-2.2c0.8-0.8,1.5-1.9,2.3-3.1
			c0.7-1.1,1.3-2.1,2-3.2c0.1-0.6,0.2-1.2,0.4-1.6c1.3-3,3.3-5.7,6-8.2c1.9-1.7,3.1-2.5,3.6-2.5c0.1,0,0.7,0.2,1.8,0.8
			c1.4,0.6,2.2,1.1,2.2,1.6c0,0.1,0,0.2-0.1,0.3c-0.1,0.4-1,1.1-2.6,2.1c-1.1,0.7-2.2,1.3-3.3,2c-1.5,1.1-2.8,2.6-3.8,4.4
			c-0.1,0.4-0.4,0.9-0.7,1.7c-0.1,0.3-0.2,0.5-0.2,0.6s0,0.2,0.1,0.4s0.1,0.3,0.1,0.4c0,0.1,0,0.3-0.1,0.5s-0.1,0.4-0.1,0.5
			c0,0.4,0.5,0.9,1.5,1.7s1.5,1.4,1.5,2c0,0.5-1,2.2-2.9,5.3c-0.4,0.5-0.5,0.9-0.5,1s0.1,0.2,0.2,0.2c1.1,0,2.9-1.2,5.4-3.5
			c1-0.9,1.9-2,2.8-3.2c0.4-0.7,0.8-1,1.1-1c0.3,0,0.4,0.1,0.4,0.4c0,0.3-0.5,1.1-1.5,2.2c-0.9,1.1-1.6,1.8-2,2.2v0.1v0.1
			c-0.1,0.2-0.4,0.4-0.6,0.5c-0.1,0.1-0.2,0.3-0.4,0.5C426.9,549,426.9,549.1,426.7,549.1L426.7,549.1z"/>
		<path class="st2" d="M438.4,549.4c2.1-1.9,3.8-4.1,5.3-6.7c1.6-2.7,2.3-5.1,2.3-7c0-1-0.2-1.6-0.5-1.8s-1.1-0.4-2.4-0.4
			c-0.8,0-1.2-0.2-1.1-0.7c0.4,0.1,1.2-0.1,2.4-0.5c3.1,0,4.6,1.2,4.6,3.6c0,1.6-0.7,3.5-2.2,5.9c-1,1.6-3.2,4-6.6,7
			c-3.7,3.3-6.4,5.1-8,5.5c-1.8,1-2.9,1.5-3.4,1.5s-0.9-0.2-1.2-0.5c-0.3-0.3-0.5-0.7-0.5-1.1c0-0.1,0.1-0.4,0.4-0.9
			c0.1-0.2,0.1-0.6,0.3-1.1c0.3-0.5,0.6-1.4,1-2.5c-0.1,0-0.2-0.1-0.2-0.2v-0.1c0.3-0.7,0.7-1.1,1.1-1.1c0.6-1,1.3-2.2,1.9-3.8
			l0.1-0.2h-0.1v-0.2l0.1-0.2l-0.4-0.1c0.4-0.2,0.5-0.3,0.6-0.4l0,0v-0.1l0.1,0.1l0.1-0.1c-0.1,0.2-0.2,0.3-0.6,0.3v-0.1
			c-0.1-0.1-0.1-0.2-0.1-0.2c0-0.1,0-0.1,0.1-0.1c0.1-0.2,0.2-0.6,0.4-1.1l0,0c-0.1,0-0.2,0-0.2-0.2s0.1-0.5,0.3-1
			c0.2-0.5,0.3-0.9,0.3-1.1c0,0,0-0.1-0.1-0.2v-0.1c0-0.1,0-0.1,0-0.2c0-0.1,0.1-0.3,0.4-0.5l0.1-0.1c-0.1-0.1-0.4-0.2-0.7-0.3v-0.1
			c0,0-0.1,0.1-0.2,0.1l-0.4-0.1c-0.5-0.1-0.8-0.2-0.8-0.4s0.2-0.3,0.7-0.4c1,0.2,2,0.4,3,0.6c1.5,0.3,2.3,0.7,2.6,1
			c0.1,0.1,0.2,0.3,0.2,0.6c0,0.6-0.3,1.3-0.8,2.1c-0.1,0.1-0.2,0.2-0.3,0.2h0.1c-0.2,0.3-0.5,0.6-0.9,0.9v0.1
			c0.1,0.1,0.2,0.2,0.3,0.4c0,0.3-0.1,0.4-0.4,0.5L435,544v0.1c0,0.1,0,0.1,0,0.2l0,0c0,0.3-0.1,0.5-0.4,0.6
			c-0.2,0.6-0.5,1.1-0.8,1.4l-0.2,0.2c0,0,0,0,0,0.1s0,0.2-0.1,0.2h-0.1c0,0.1-0.2,0.3-0.5,0.6c-0.2,0.3-0.3,0.5-0.2,0.7h-0.4
			l-0.1-0.2l0.4-0.7l0,0l0.1,0.1l0.1-0.1v0.1c-0.3,0.1-0.6,0.4-0.8,1c0,0,0.1-0.1,0.2-0.2c0.1-0.1,0.2-0.1,0.4-0.1l0.1,0.1
			c0,0.1,0,0.2-0.1,0.2c-0.2,0.5-0.5,0.7-0.9,0.7v-0.2l0.1-0.1v-0.1l0.1,0.1l0.1-0.1c-0.4,0.9-0.9,2.3-1.6,4.1
			c0.2,0.2,0.5,0.2,0.9,0.2c0.3,0,0.6,0,0.8-0.1c0.4-0.2,0.6-0.2,0.7-0.2c1.6-0.5,3.4-1.6,5.4-3.2H438.4z"/>
		<path class="st2" d="M454.2,544.9c-1.1,0.9-2.1,2.1-2.9,3.5s-1.1,2.7-1.1,4c0,0.5,0.1,0.9,0.2,1c0,0.1,0.1,0.1,0.3,0.2l0,0
			c0.1,0,0.2,0.1,0.2,0.1c0,0.1-0.1,0.2-0.2,0.3h-0.1c-0.1,0-0.2,0.1-0.2,0.1c0,0.1,0.4,0.1,1.1,0.2c0.1,0,1.2-0.7,3.3-2
			c0.4-0.3,0.7-0.4,0.9-0.5c0.9-1,2.4-2.4,4.3-4.4v-0.1c0.8-1.3,1.4-1.9,1.8-1.9c0.1,0.1,0.1,0.2,0.1,0.2c0,0.1,0,0.2-0.1,0.3
			c-0.7,1.1-1.3,2.1-2,3.2c-1,1.6-1.9,2.4-2.6,2.6c-0.2,0.3-0.5,0.7-1.1,1.1c-0.1,0.2-0.3,0.3-0.5,0.3c-0.2,0.1-0.6,0.4-1,0.8
			c-0.1,0.2-0.4,0.5-1.1,0.7c-0.8,0.6-1.4,0.9-2,0.9c-0.1,0-0.2,0-0.2,0H451c-0.1,0-0.2,0-0.3,0c-0.2,0-0.4,0-0.8,0.1
			c-0.3,0-0.6,0.1-0.8,0.1c-1.6,0-2.5-1.1-2.5-3.4c0-2.6,1.1-5.4,3.2-8.4c0.3-0.4,0.8-1,1.5-1.7c0.1-0.3,0.4-0.7,0.7-1.3
			c0.6-0.8,1.2-1.6,1.8-2.4c0.6-1,1-1.8,1-2.6c0.1,0,0.2,0,0.3,0s0.2,0,0.3,0c0.1,0,0.3,0,0.4,0c0.7,0,1.5,0.4,2.5,1.1
			c1,0.7,1.5,1.3,1.5,1.9c0,0.3-1,1.3-2.9,3c-0.4,0.4-1.1,1.1-1.9,2.1c0,0-0.1,0.2-0.2,0.5s-0.3,0.5-0.7,0.6L454.2,544.9
			L454.2,544.9z M470.4,522.5c-0.2,0.7-1.3,2-3.3,4.1c-1.9,2.1-3.2,3.1-3.7,3.1c-0.9,0-1.6-0.3-2.2-1s-0.9-1.4-0.9-2.1
			c2.8-1.7,4.7-2.8,5.7-3.4c2.2-1.2,4.3-2.1,6.2-2.7l0.9-0.7l0.2,0.3c0,0.3-0.4,0.8-1.2,1.3C471.5,522.1,470.9,522.4,470.4,522.5z"
			/>
		<path class="st2" d="M479.4,534.8c0.7,0.7,1.1,1.5,1.1,2.4c0,1.4-1,3.2-2.9,5.3c-0.4,0.5-1,1.1-1.8,1.7c-1.3,0.7-2.3,1.5-3.3,2.4
			h-0.3v-0.2c0-0.1,0.1-0.1,0.2-0.1c0.1-0.2,0.4-0.5,0.7-0.7l0.4-0.4c0.9-0.8,1.9-2.1,3-3.8c0.1-0.1,0.2-0.3,0.4-0.5
			c0-0.3,0.1-0.7,0.4-1.1c0.5-0.6,0.7-1,0.7-1c0.4-0.8,0.6-1.8,0.7-2.9c-1.3,0.5-2.6,1.2-4,2.3c-1.2,0.9-2.4,1.9-3.6,2.8
			c-1,0.8-2,1.5-3,2.3c-1.5,1.1-2.3,1.9-2.5,2.4c-0.1,0.2-0.2,0.4-0.4,0.4v-0.2l0,0l0.1-0.1h0.4v0.3h-0.1c-0.1,0.1-0.2,0.2-0.3,0.4
			l-0.1,0.1l-0.1,0.1c0,0-0.1,0.1-0.1,0.2h-0.3c0,0-0.2,0.5-0.6,1.4v0.4l-0.1,0.1c-0.4,1-0.7,1.7-0.7,2.1c0,1.5,0.5,2.4,1.6,2.6
			c0.5,0.1,0.8,0.1,0.9,0.1h0.3l0,0c0.5,0,0.9-0.1,1.4-0.2s0.8-0.3,1-0.3c0.1-0.1,0.2-0.1,0.4-0.1v0.2l0.6-0.3v0.1
			c1-0.3,3.3-1.6,6.8-4c0.1-0.1,0.1-0.2,0.3-0.4V548l0.3,0.2h0.2c0.2-0.2,0.4-0.4,0.8-0.7s0.8-0.7,1.2-1v0.5H479
			c-0.1,0.2-0.8,0.8-2.1,1.9c-0.4,0.4-1,1-1.8,1.7c-0.9,0.7-2.3,1.7-4,3.1c-0.4,0.4-1.1,0.7-2.1,1s-1.8,0.5-2.4,0.5
			c-0.9,0-2-0.3-3.1-0.9c-1-0.5-1.6-1-1.7-1.4l-0.3-0.3c0.1-0.1,0.1-0.1,0.2-0.2c-0.3-1.2-0.4-1.8-0.4-1.9c0-1.2,0.7-3,2.2-5.5
			l-0.1,0.1c-0.3,0.3-0.4,0.6-0.4,0.9h-0.4l-0.5-0.4c0.1,0,0.3-0.2,0.6-0.3v-0.1l0.1,0.1l0.1-0.1c0,0.1-0.1,0.2-0.4,0.2v-0.1h-0.2
			c0.1-0.2,0.2-0.3,0.4-0.3l0.1-0.1v-0.2c0-0.1,0.2-0.2,0.4-0.3c0.2-0.1,0.3-0.2,0.3-0.3l0.1,0.1l0.1-0.1l0,0
			c-0.1,0.1-0.2,0.2-0.4,0.2l0,0h-0.1v-0.2l0.3-0.2c0,0,0,0,0-0.1s0.1-0.1,0.2-0.1c0-0.1,0-0.1,0-0.2l0.1,0.1v-0.1l0.4-0.1l0,0
			l0.1-0.1l0,0V543l0.2,0.1l-0.6,0.2v-0.4c0.3-0.1,0.6-0.3,1-0.7c0.5-0.5,0.8-0.8,0.9-0.9c0-0.3,0.3-0.5,0.7-0.8
			c0.4-0.3,0.7-0.5,0.7-0.8c0-0.2,0.1-0.3,0.4-0.3v-0.1c0.4-0.1,0.5-0.2,0.4-0.4l0.7-0.3c0.6-0.8,1.6-1.6,2.7-2.4c0-0.1,0-0.1,0-0.2
			c0-0.1,0-0.1,0.1-0.1c0.5-0.5,1.2-1.1,2.3-2c0.4-0.3,1.1-0.7,2-1.4C478.1,532.8,479.3,533.5,479.4,534.8z"/>
		<path class="st2" d="M493.3,548.5l-0.1-0.1c0.3-0.4,0.7-0.8,1.1-1.4c0-0.1,0.1-0.2,0.2-0.4s0.2-0.3,0.4-0.3c0.2,0,0.3,0.1,0.3,0.2
			c0,0.1,0,0.2,0,0.2c0,0.4-0.2,1-0.6,1.6c-0.4,0.7-0.9,1.1-1.4,1.2v0.1c-0.1,0.1-0.4,0.4-0.7,0.8c-0.6,0.7-1,1.1-1.2,1.4
			c-0.6,0.6-1.1,0.9-1.5,0.9l-1,0.5c0,0.1,0,0.1,0,0.2c0,0.2-0.1,0.3-0.4,0.4c-0.2,0.2-0.4,0.2-0.7,0.2c-0.3,0.1-0.7,0.4-1.4,0.8
			l0,0c-0.2,0.2-0.7,0.4-1.4,0.5c-0.3,0.2-0.8,0.3-1.6,0.3c-1.6,0-2.7-0.1-3-0.2c-0.7-0.2-1.5-0.8-2.2-1.9l0.6-0.1l-0.4-0.2
			l-0.7-1.6h0.5l0,0c0,0,0,0-0.1-0.1v0.2h-0.4v-0.9c0-0.3,0.2-0.7,0.7-1.4s0.7-1.1,0.7-1.1l0.3,0.1l-0.3,0.2v0.3l-1.1,0.2v-0.2
			c0.1-0.1,0.3-0.3,0.6-0.5c0,0.1,0,0.1,0,0.1l0.1-0.1v-0.3c0-0.7,0.3-1,0.8-1.1h-0.1c-0.1,0.1-0.3,0.1-0.4,0.2c0-0.2,0-0.3,0-0.4
			l0.1-0.3h0.4c0.1,0,0.1-0.1,0.2-0.2c0.1,0,0.1,0.1,0.1,0.1c-0.1,0-0.2,0-0.4,0.1L479,547v-0.3c0.4-0.5,0.7-0.8,0.8-0.8
			s0.2,0,0.1,0.1h-0.1c0.1,0,0.1,0.1,0.1,0.1l-0.1,0.1l0,0l-0.2,0.1c0-0.1,0-0.3,0.1-0.5c-0.1,0-0.1,0-0.2,0c-0.2,0-0.3-0.1-0.3-0.2
			c0-0.1,0-0.1,0-0.2v-0.2c0-0.1,0-0.2,0-0.3s0-0.2-0.1-0.4l0.5-0.4h0.3l0,0l0,0h0.1h0.1c0.1,0,0.2,0,0.6-0.1l-0.4,0.3v0.1l-0.2-0.1
			c0.1,0,0.2-0.1,0.4-0.3c0.1-0.5,0.3-1.2,0.6-2.2l1-0.1c0.1,0,0.1-0.1,0.1-0.1v0.2h-0.4h-0.1c0-0.1,0-0.4-0.1-0.9l0.3-0.2v-0.3
			l0.6-0.3v-0.2l0,0c0.3-0.4,0.8-0.8,1.7-1.3c0.1,0,0.1-0.1,0.2-0.1l0.2-0.1l0.1,0.2h0.3c-0.1,0-0.1,0-0.2,0l0,0c-0.2,0-0.4,0-0.5,0
			v-0.1l-0.3,0.2v-0.5h0.1l0.1-0.1l0.5-0.1l0.2,0.1l0.1-0.1l0.1,0.1H485h-0.4c0-0.1,0-0.2,0-0.3l-0.2,0.1v-0.4
			c0.8-0.4,1.3-0.8,1.3-1.2l0.3-0.2v-0.2l0.3,0.1l0.9-0.7v-0.2l0.6-0.2l0.2-0.4c0-0.1,0.1-0.2,0.2-0.2c0.2,0,0.4,0.1,0.7,0.2h0.4
			c1,0,2,0.4,3.1,1.3c1.1,0.9,1.7,1.8,1.7,2.6c0,0.1,0.1,0.4,0.2,0.6s0.2,0.5,0.2,0.7s0,0.4-0.1,0.5c-0.7,1.4-1.9,2.9-3.6,4.3
			c-1.6,1.4-3.3,2.4-5,3.2c-1.1,0.5-2,0.7-2.6,0.7c-0.2,0-0.4-0.1-0.8-0.2c0.3-0.1,0.7-0.3,1.2-0.5c0.2,0,0.4-0.1,0.6-0.2l-0.1-0.1
			c0.1-0.1,0.2-0.2,0.4-0.2c0.2-0.1,0.6-0.2,1.4-0.4c0.6-0.2,1-0.3,1-0.5c0.1-0.1,0.6-0.6,1.4-1.6l0.6-0.1l0.7-0.9l-0.1-0.2l0.5-0.2
			v-0.2h0.1c1-0.9,1.6-1.7,2-2.6c0.1-0.1,0.1-0.1,0.2-0.1v-0.1c0.3-0.4,0.4-0.9,0.4-1.3c0-0.9-0.5-1.3-1.5-1.3c-0.4,0-0.7,0-0.7,0
			s0.1,0,0.4,0l-0.3,0.2c-0.6,0.1-1,0.5-1,1c-0.2,0-0.3,0-0.3,0c0.1,0.1,0.2,0.2,0.2,0.2c-0.3,0-0.5,0.1-0.7,0.2l0.4,0.1
			c-0.5,0.2-0.9,0.4-1.4,0.7c-0.6,0.3-1,0.6-1,0.9c0,0.1,0.2,0.2,0.5,0.4l-1.1-0.1l0.1-0.1l0,0l0,0c0,0,0.1,0,0.3,0v0.5
			c-0.1-0.1-0.1-0.2,0-0.2l0,0c0.1,0,0.2,0,0.4-0.1c-0.3,0-0.4,0-0.4,0.1l0,0c0,0.1,0,0.1,0,0.2h-0.2c-0.4,0.5-0.9,1.2-1.6,2.1
			l0.5,0.2h-0.5l-0.3,0.2l0,0v0.3l-0.4,0.3l0.1,0.1l-0.7,0.9h-0.2v0.3h-0.4l0.1-0.1l0,0h0.1c0.1,0,0.2,0.1,0.2,0.3l-0.8,0.7l0.1,0.2
			h-0.2v0.4c-0.3,0.2-0.5,0.5-0.7,1s-0.4,0.9-0.5,1.1h0.4L481,550c0,0.1,0,0.2,0,0.4c0,0.1,0,0.4,0.1,0.7s0.1,0.6,0.1,0.7
			c0,0.3,0.2,0.7,0.5,1.2s0.6,0.7,0.9,0.7c0.6,0,1.5-0.2,2.6-0.6c1.1-0.4,2-0.6,2.5-0.7l1.4-0.9
			C489.8,551.6,491.1,550.4,493.3,548.5L493.3,548.5L493.3,548.5z M480.2,544.3l0.2-0.6l1,1.4C480.9,544.5,480.5,544.3,480.2,544.3z
			 M481.8,541.5v-0.3l0.4-0.3v0.6H481.8z M484.2,538.4l0.4-0.5c0.2,0.1,0.3,0.3,0.3,0.5H484.2z"/>
	</g>
</g>
</svg>
