<?xml version="1.0" encoding="utf-8"?>
<!-- Generator: Adobe Illustrator 22.0.1, SVG Export Plug-In . SVG Version: 6.00 Build 0)  -->
<svg version="1.1" id="Layer_1" xmlns="http://www.w3.org/2000/svg" xmlns:xlink="http://www.w3.org/1999/xlink" x="0px" y="0px"
	 viewBox="0 0 300 161" style="enable-background:new 0 0 300 161;" xml:space="preserve">
<style type="text/css">
	.st0{fill:#BF2026;}
	.st1{fill:#FFFFFF;}
	.st2{fill:none;}
</style>
<g>
	<path class="st0" d="M292.1,83.7c0-5.8-4.7-10.5-10.5-10.5c-1.1,0-2.2,0.2-3.2,0.5l-4.2,0.6c-42.6,5.9-89.6-2-89.6-2
		c-1.4-12-4-15.4-5.2-16.3c-10.2-30.4-38.9-52.4-72.7-52.4C68.8,3.6,37.3,31,31.1,67c-2.3-1.8-6-5.7-10-13.7
		c-0.4-0.9-1.3-1.4-2.3-1.4c-1.1,0-3.5,1.1-5.7,5.2C10.6,62,9.3,69.4,9.2,79.3c-0.1,8.1,0.6,22.2,7,26.3c0.4,0.3,0.9,0.4,1.4,0.4
		c0.2,0,0.5,0,0.7-0.1c0.7-0.2,1.3-0.7,1.6-1.3c2-4.1,6.7-11.6,10.8-13.4c5.2,37.3,37.2,65.9,75.9,65.9c32.6,0,60.4-20.3,71.5-48.9
		c5.6-4.7,6.1-15.8,6.1-15.8c35.6-6.8,89.9,0.9,89.9,0.9L279,94c0.7,0.2,1.4,0.3,2.1,0.3l0.8,0.1l0-0.1
		C287.6,94.1,292.1,89.4,292.1,83.7z M17,98.9c-1.9-3.7-2.9-10.8-2.8-19.6c0.2-12.6,2.3-18.2,3.9-20.7c5.1,9.1,9.7,12.7,12.2,14
		c-0.3,2.5-0.4,5.1-0.4,7.7c0,1.9,0.1,3.8,0.2,5.6C24.4,87.5,19.6,94.6,17,98.9z"/>
	<ellipse class="st0" cx="106.2" cy="81.5" rx="52.2" ry="50.3"/>
	<g>
		<path class="st1" d="M97.5,67.4c0.1,0.8,0,1.7-0.3,2.5c-0.2,0.8-0.6,1.6-1.2,2.2c-0.2,0.3-0.4,0.6-0.7,0.8
			c-0.2,0.2-0.5,0.4-0.7,0.6c-1,0.7-2,1.3-3,1.6c-0.5,0.2-1,0.3-1.6,0.3c-0.5,0.1-1.1,0.1-1.6,0c-0.1,0-0.1-0.1-0.2-0.2
			c0-0.1-0.1-0.2-0.1-0.4c0-0.2-0.1-0.4-0.1-0.7c0-0.3-0.1-0.5-0.1-0.8c0-0.3,0-0.6,0-0.8c0-0.3,0-0.5,0.1-0.8
			c0-0.1,0.1-0.3,0.2-0.4c0.1-0.1,0.2-0.2,0.3-0.2c0.4,0.1,0.9,0.1,1.3,0.1c0.4,0,0.9,0,1.3-0.1c0.3-0.1,0.7-0.2,1.2-0.3
			c0.4-0.2,0.8-0.4,1.2-0.7c0.4-0.3,0.7-0.6,1-1c0.3-0.4,0.4-0.8,0.4-1.4c0-0.6-0.1-1.1-0.4-1.5c-0.3-0.3-0.7-0.6-1.2-0.7
			c-0.5-0.1-0.9-0.2-1.5-0.2c-0.5,0-1,0.1-1.3,0.1c-1.2,0.2-2.3,0.5-3.4,1c-1.1,0.5-2.3,1-3.4,1.6c-1.5,0.8-2.9,1.7-4.3,2.6
			c-1.4,0.9-2.8,2-4.1,3.1c-0.7,0.5-1.3,1.1-2,1.7c-0.6,0.6-1.3,1.2-1.9,1.8c-0.6,0.6-1.2,1.3-1.8,1.9c-0.6,0.7-1.1,1.3-1.6,2
			c-0.5,0.7-1,1.4-1.5,2.2c-0.4,0.7-0.8,1.5-1.1,2.3c-0.3,0.7-0.4,1.3-0.4,1.8c0,0.5,0.1,1,0.3,1.3c0.2,0.4,0.4,0.7,0.7,0.9
			c0.3,0.2,0.6,0.4,1,0.5c0.5,0.2,1.1,0.4,1.6,0.5c0.6,0.1,1.2,0.2,1.8,0.2c1.2,0.1,2.5,0,3.8-0.2c1.3-0.2,2.5-0.4,3.8-0.8
			c2.5-0.7,5-1.7,7.5-2.9c1.2-0.6,2.4-1.3,3.5-2.1c1.1-0.7,2.2-1.6,3.3-2.5c0.1-0.1,0.2-0.1,0.3-0.1c0.1,0,0.2,0.1,0.4,0.2
			c0.1,0.1,0.2,0.3,0.2,0.5c0,0.3,0,0.6-0.1,0.9c-0.1,0.4-0.3,0.7-0.5,1.1c-0.1,0.2-0.3,0.4-0.4,0.5c-0.2,0.2-0.3,0.3-0.5,0.5
			c-1.2,1-2.4,1.9-3.6,2.7c-1.2,0.8-2.5,1.5-3.8,2.2c-1.3,0.7-2.6,1.3-4,1.8c-1.4,0.5-2.7,1-4.1,1.3c-1.4,0.3-2.8,0.6-4.3,0.7
			c-0.7,0.1-1.3,0.1-2,0.1c-0.7,0-1.4-0.1-2.1-0.2c-0.7-0.1-1.4-0.3-2.1-0.5c-0.7-0.3-1.3-0.6-1.9-1.1c-0.6-0.5-1.1-1-1.6-1.7
			c-0.5-0.7-0.8-1.5-0.9-2.4c-0.1-0.6-0.1-1.3-0.1-2c0-0.7,0.2-1.4,0.4-2.1c0.7-1.9,1.6-3.6,2.8-5.1c1.2-1.6,2.4-3,3.7-4.3
			c1.3-1.3,2.6-2.5,4-3.6c1.4-1.1,2.8-2.1,4.3-3.1c0.7-0.5,1.5-1,2.3-1.5c0.9-0.5,1.8-1,2.8-1.5c1-0.5,2-1,3-1.4
			c1-0.4,2.1-0.8,3.1-1.1c1-0.3,2-0.5,3-0.6c1-0.1,1.9-0.1,2.8,0.1c1,0.2,1.9,0.7,2.6,1.5C96.8,65.1,97.3,66.1,97.5,67.4z
			 M96.9,68.9c0.1-0.9,0-1.7-0.3-2.5c-0.3-0.7-0.8-1.4-1.5-1.9c-0.4-0.3-0.9-0.6-1.3-0.7c-0.5-0.2-0.9-0.3-1.4-0.3c-0.5,0-1,0-1.5,0
			c-0.5,0-1,0.1-1.5,0.2c-0.6,0.1-1.2,0.3-1.8,0.5c-0.6,0.2-1.2,0.4-1.8,0.6c-1.2,0.5-2.3,1-3.5,1.5c-1.1,0.6-2.2,1.2-3.3,1.9
			c-1.1,0.7-2.2,1.4-3.2,2.1c-1,0.7-2.1,1.5-3.1,2.3c-1.1,0.9-2,1.7-2.9,2.5c-0.9,0.8-1.6,1.6-2.4,2.4c-0.4,0.4-0.7,0.8-1.1,1.2
			c-0.3,0.4-0.7,0.8-1,1.2c-0.3,0.4-0.7,0.9-1,1.4c-0.4,0.5-0.7,1-1,1.6c-0.4,0.7-0.7,1.4-1,2.1c-0.3,0.7-0.4,1.5-0.5,2.3
			c-0.1,0.8,0,1.5,0.1,2.3s0.5,1.4,1,2c0.2,0.3,0.5,0.6,0.8,0.8c0.3,0.2,0.6,0.4,0.9,0.6c0.6,0.4,1.3,0.6,1.9,0.8
			c0.6,0.2,1.3,0.3,1.9,0.4c0.6,0.1,1.3,0.1,1.9,0.1c0.6,0,1.3-0.1,1.9-0.1c0.6-0.1,1.3-0.2,1.9-0.3c0.6-0.1,1.2-0.3,1.8-0.4
			c2.5-0.6,4.9-1.5,7.1-2.6c2.4-1.1,4.6-2.5,6.7-4c0.3-0.2,0.6-0.5,0.9-0.7c0.3-0.2,0.5-0.5,0.8-0.8c0.1-0.1,0.2-0.2,0.2-0.3
			c0.1-0.1,0.1-0.2,0.2-0.3c0-0.1,0-0.1,0-0.2c0,0-0.1,0-0.2,0.1c-2,1.8-4.2,3.3-6.4,4.5c-2.3,1.2-4.6,2.2-7,2.9
			c-1.2,0.4-2.5,0.7-3.8,1c-1.3,0.3-2.6,0.5-3.8,0.5c-0.5,0-1.1,0-1.7-0.1c-0.7-0.1-1.3-0.2-2-0.3c-0.7-0.2-1.3-0.4-1.9-0.7
			c-0.6-0.3-1.1-0.7-1.5-1.1c-0.5-0.5-0.8-1.2-0.9-1.8c-0.2-0.7-0.2-1.3-0.2-1.9c0-0.6,0.1-1.2,0.2-1.7c0.1-0.5,0.2-0.9,0.3-1.2
			c0.3-0.7,0.6-1.4,1.1-2.2c0.5-0.7,1-1.5,1.5-2.2c0.7-1,1.5-2,2.5-2.9c0.9-1,1.9-1.9,2.9-2.8c1-0.8,1.9-1.7,2.9-2.4
			c1-0.8,2-1.5,3.1-2.2c1-0.7,2.1-1.4,3.2-2c1.1-0.6,2.2-1.2,3.3-1.8c1.1-0.5,2.2-1,3.4-1.5c1.2-0.5,2.4-0.8,3.7-0.9
			c0.6-0.1,1.3-0.1,1.9,0c0.6,0.1,1.3,0.3,1.9,0.6c0.7,0.4,1.2,0.9,1.6,1.5c0.4,0.7,0.6,1.5,0.5,2.4c-0.1,0.7-0.3,1.3-0.6,1.9
			c-0.3,0.6-0.7,1.1-1.1,1.6c-0.4,0.4-0.8,0.7-1.2,0.9c-0.4,0.3-0.8,0.5-1.2,0.7c-0.4,0.2-0.9,0.4-1.3,0.5c-0.4,0.1-0.8,0.2-1.3,0.2
			c-0.1,0-0.1,0-0.2,0c-0.1,0-0.2,0-0.3,0c-0.1,0-0.2,0-0.3,0.1c-0.1,0-0.1,0.1-0.1,0.2c0,0.2,0,0.3,0.1,0.3c0,0,0.1,0,0.1,0
			c0.4,0,0.9,0,1.3-0.1c0.4-0.1,0.9-0.2,1.3-0.3c0.8-0.3,1.7-0.8,2.5-1.4c0.2-0.2,0.4-0.3,0.6-0.5c0.2-0.2,0.4-0.4,0.6-0.6
			c0.3-0.4,0.6-0.8,0.9-1.3C96.7,70,96.8,69.5,96.9,68.9z"/>
		<path class="st1" d="M104,88.3c-0.2,0-0.3-0.1-0.5-0.2c-0.2-0.1-0.3-0.2-0.5-0.4c-0.2-0.2-0.3-0.4-0.4-0.6
			c-0.1-0.2-0.1-0.4-0.1-0.6c0-0.6,0.1-1.3,0.3-1.8c0.1-0.6,0.3-1.2,0.4-1.7c0.4-1.1,0.8-2.2,1.3-3.2c0.1-0.1,0.1-0.2,0.2-0.3
			c0-0.1,0.1-0.2,0.1-0.3h0c-1.1,0.7-2.1,1.6-3.1,2.5c-0.5,0.5-1,0.9-1.4,1.4c-0.5,0.5-0.9,1-1.4,1.5c-0.4,0.5-0.8,1.1-1.2,1.6
			c-0.4,0.6-0.8,1.2-1.1,1.8c-0.1,0.2-0.3,0.2-0.7,0.2c-0.2,0-0.3-0.1-0.5-0.2c-0.2-0.1-0.3-0.3-0.4-0.6c-0.1-0.1-0.1-0.3-0.2-0.4
			c0-0.2-0.1-0.3-0.1-0.5c0-0.3,0-0.7,0.1-1.1c0.2-0.6,0.3-1.2,0.5-1.7s0.4-1.1,0.6-1.6c0.2-0.5,0.4-1.1,0.7-1.6
			c0.2-0.5,0.5-1,0.7-1.5c0.5-1,1-2,1.6-3c0.6-1,1.1-1.9,1.7-2.8c0.6-0.9,1.2-1.8,1.9-2.7c0.6-0.9,1.3-1.7,2-2.6
			c0.7-0.8,1.5-1.6,2.3-2.4c0.8-0.8,1.6-1.5,2.5-2.2c0.1-0.1,0.2-0.1,0.3-0.1c0.1,0,0.2,0.1,0.2,0.3c0.1,0.3,0.2,0.5,0.3,0.8
			c0.1,0.3,0.2,0.5,0.3,0.8c0.1,0.3,0.2,0.6,0.2,1c0,0.3,0,0.6,0,1c0,0.3-0.1,0.6-0.3,0.8c-0.1,0.3-0.3,0.5-0.5,0.6
			c-0.7,0.5-1.4,1.1-2.1,1.8c-0.7,0.7-1.4,1.4-2.1,2.1c-0.7,0.7-1.4,1.5-2,2.3c-0.6,0.8-1.2,1.6-1.8,2.4c-0.6,0.8-1.2,1.7-1.7,2.6
			c-0.6,0.9-1.1,1.8-1.6,2.7c-0.1,0.2-0.2,0.3-0.3,0.5c-0.1,0.2-0.2,0.3-0.2,0.5c0.1-0.1,0.2-0.3,0.3-0.4c0.1-0.1,0.2-0.3,0.3-0.4
			c0.4-0.6,0.9-1.1,1.4-1.7c0.5-0.5,1-1.1,1.5-1.6c0.5-0.5,1.1-1,1.6-1.4c0.6-0.5,1.1-0.9,1.7-1.3c0.3-0.2,0.6-0.4,0.9-0.6
			c0.3-0.2,0.6-0.4,1-0.5c0.3-0.2,0.7-0.3,1.1-0.4c0.1-0.1,0.3-0.2,0.4-0.3c0.1-0.1,0.3-0.2,0.4-0.3c0.1,0,0.2,0,0.2,0
			c0.1,0.1,0.2,0.1,0.2,0.2c0.1,0.2,0.3,0.4,0.4,0.7c0.1,0.2,0.3,0.4,0.4,0.6c0.2,0.3,0.3,0.5,0.4,0.8c0.1,0.3,0.2,0.5,0.2,0.7
			c0,0.2,0.1,0.4,0,0.5c0,0.2-0.1,0.3-0.2,0.3c-0.4,0.2-0.8,0.5-1.1,0.8c-0.4,0.3-0.7,0.6-1.1,1c-0.7,0.7-1.3,1.5-1.8,2.4
			c-0.6,0.9-1,1.8-1.4,2.8c0,0.1-0.1,0.1-0.1,0.2c0,0.1-0.1,0.2-0.1,0.2c0.7-0.3,1.5-0.6,2.2-1c0.4-0.2,0.7-0.5,1.1-0.7
			c0.4-0.3,0.7-0.5,1.1-0.9c0.4-0.3,0.7-0.6,1-0.9c0.3-0.3,0.7-0.7,1-1c0.3-0.4,0.6-0.7,0.9-1.1c0.3-0.4,0.6-0.8,0.8-1.2
			c0-0.1,0.1-0.1,0.2,0l0.1,0.1c0.2,0.1,0.2,0.3,0.3,0.6c0,0.1,0,0.2,0,0.2c0,0.1,0,0.1,0,0.2c0,0.1-0.1,0.2-0.1,0.2
			c0,0.1-0.1,0.1-0.1,0.2c-0.3,0.4-0.6,0.9-0.9,1.3c-0.3,0.4-0.6,0.8-0.9,1.2c-0.7,0.8-1.4,1.6-2.1,2.2c-0.4,0.3-0.7,0.7-1.1,1
			c-0.4,0.3-0.8,0.6-1.2,0.8c-0.4,0.3-0.8,0.5-1.3,0.7c-0.4,0.2-0.9,0.4-1.3,0.6c0,0-0.1,0-0.2,0c-0.1,0-0.2,0-0.2,0L104,88.3z
			 M96.2,85.9c0,0.3,0,0.4,0,0.5c0,0.1,0.1,0,0.2-0.3c0-0.1,0.1-0.3,0.1-0.4c0.1-0.1,0.1-0.3,0.1-0.4l0.2-0.6
			c0.1-0.2,0.1-0.4,0.2-0.5c0.1-0.4,0.3-0.7,0.5-1.1c0.1-0.2,0.2-0.4,0.3-0.5c0.1-0.2,0.2-0.4,0.3-0.5l0.3-0.5l0.3-0.5
			c0.1-0.2,0.2-0.4,0.3-0.5c0.1-0.2,0.2-0.3,0.3-0.5c0.2-0.3,0.4-0.7,0.6-1c0.2-0.3,0.4-0.7,0.6-1c0.4-0.6,0.9-1.3,1.3-1.9
			c0.4-0.6,0.9-1.2,1.3-1.8c0.3-0.3,0.5-0.6,0.7-0.9c0.2-0.3,0.5-0.6,0.7-0.8c0.2-0.3,0.4-0.5,0.6-0.7c0.2-0.2,0.4-0.5,0.6-0.7
			c0.4-0.4,0.8-0.8,1.2-1.2c0.4-0.4,0.8-0.8,1.3-1.2l0.4-0.4c0.1-0.1,0.1-0.1,0.2-0.2c0.1-0.1,0.1-0.1,0.1-0.2
			c0.2-0.3,0.3-0.5,0.3-0.5l-0.1-0.2c0-0.1-0.1,0-0.3,0.1c-0.3,0.2-0.6,0.5-1,0.9c-0.4,0.4-0.8,0.8-1.3,1.3c-0.5,0.5-1,1-1.5,1.5
			c-0.5,0.6-1,1.1-1.5,1.7c-0.2,0.3-0.5,0.6-0.7,0.9c-0.2,0.3-0.5,0.6-0.7,0.9c-0.2,0.3-0.5,0.6-0.7,0.9c-0.2,0.3-0.4,0.6-0.6,0.9
			c-0.4,0.6-0.8,1.3-1.3,2c-0.4,0.7-0.8,1.3-1.2,2c-0.4,0.7-0.7,1.4-1,2.1c-0.3,0.7-0.6,1.5-0.9,2.2c0,0.1-0.1,0.3-0.1,0.4
			c0,0.1-0.1,0.2-0.1,0.3C96.3,85.6,96.3,85.8,96.2,85.9z M105.4,78.2c0.1-0.1,0.1-0.2,0.2-0.3c0.1-0.1,0.1-0.2,0.2-0.3
			c-0.4,0.2-0.7,0.4-1.1,0.7c-0.4,0.3-0.7,0.5-1.1,0.8c-0.8,0.6-1.5,1.2-2.2,2c-0.7,0.7-1.4,1.5-2.1,2.3c-0.7,0.8-1.3,1.6-1.9,2.5
			c0,0.1-0.1,0.1-0.1,0.2c0,0.1-0.1,0.1-0.1,0.2c0,0.1-0.1,0.1-0.1,0.2c0,0.1-0.1,0.1-0.1,0.2c-0.1,0.2-0.1,0.4-0.1,0.4l0,0l0,0
			c0,0,0,0,0,0c0,0,0,0,0,0c0.5-0.9,1.1-1.8,1.8-2.6c0.7-0.8,1.3-1.6,2-2.3c0.4-0.4,0.7-0.7,1.1-1.1c0.4-0.3,0.7-0.7,1.1-1
			c0.4-0.3,0.8-0.6,1.1-0.9c0.4-0.3,0.7-0.5,1-0.7L105.4,78.2z M104,87.3C104,87.4,104,87.3,104,87.3c0.1-0.5,0.2-0.9,0.3-1.3
			c0.1-0.4,0.2-0.8,0.4-1.2c0.1-0.4,0.3-0.8,0.4-1.1s0.3-0.7,0.5-1.1c0.2-0.3,0.4-0.7,0.6-1c0.2-0.3,0.4-0.6,0.6-0.9
			c0.5-0.6,0.9-1.2,1.3-1.6c0.4-0.4,0.8-0.8,1.3-1.2c0.1-0.1,0.2-0.2,0.2-0.2l0.2-0.2c0.1-0.1,0.1-0.3,0-0.3l-0.1-0.2
			c0-0.1-0.1,0-0.2,0c-0.3,0.2-0.7,0.5-1.2,1c-0.5,0.5-1,1-1.5,1.6c-0.4,0.6-0.9,1.2-1.2,1.9c-0.4,0.7-0.7,1.4-1,2.2
			c-0.3,0.7-0.5,1.5-0.7,2.4c0,0.1,0,0.1,0,0.2c0,0.1,0,0.1,0,0.2c0,0.1,0,0.2,0,0.4C103.9,87.1,103.9,87.2,104,87.3z M105.4,87.2
			c-0.1,0.1-0.2,0.2-0.2,0.2c0,0.1,0.1,0.2,0.2,0.2c0.4-0.1,0.7-0.3,1.1-0.5c0.4-0.2,0.7-0.4,1.1-0.7c0.4-0.2,0.7-0.5,1-0.8
			c0.3-0.3,0.7-0.5,1-0.8c1.3-1.2,2.4-2.6,3.5-4.1c0-0.1,0.1-0.1,0.1-0.2c0-0.1,0.1-0.1,0.1-0.2c0-0.1,0.1-0.2,0.2-0.3
			c0.1-0.2,0.1-0.3,0.1-0.3h0c0,0,0,0,0,0l0,0.1c-0.5,0.8-1,1.5-1.6,2.2c-0.6,0.7-1.2,1.3-1.8,1.9c-0.3,0.3-0.6,0.6-1,0.9
			c-0.3,0.3-0.7,0.5-1,0.8c-0.4,0.3-0.7,0.5-1,0.7c-0.3,0.2-0.7,0.4-1,0.6c-0.1,0-0.2,0.1-0.3,0.1C105.6,87.1,105.5,87.2,105.4,87.2
			z"/>
		<path class="st1" d="M125.4,81c-1.1,1.2-2.2,2.3-3.5,3.2c-0.6,0.5-1.2,0.9-1.9,1.3c-0.6,0.4-1.3,0.8-2,1.1
			c-0.7,0.3-1.4,0.6-2.1,0.9c-0.7,0.3-1.4,0.5-2.2,0.6c-0.3,0.1-0.6,0.1-1,0.2c-0.4,0-0.8,0.1-1.2,0c-0.4,0-0.8-0.1-1.2-0.2
			c-0.4-0.1-0.7-0.3-0.9-0.5c-0.2-0.1-0.4-0.4-0.5-0.7c-0.2-0.3-0.3-0.7-0.3-1.1c0-0.4,0.2-0.8,0.3-1.2c0.3-0.7,0.7-1.3,1-2
			c0.4-0.6,0.8-1.3,1.3-1.9c0.5-0.6,1.1-1.2,1.6-1.7c0.6-0.5,1.1-1,1.7-1.4c1.2-0.9,2.4-1.6,3.7-2.1c0.6-0.3,1.3-0.5,2-0.7
			c0.2-0.1,0.4-0.1,0.7-0.2c0.2,0,0.5-0.1,0.7-0.1c0.2,0,0.4,0,0.7,0c0.2,0,0.4,0,0.5,0c0.4,0.1,0.7,0.2,0.8,0.5
			c0.1,0.3,0.2,0.6,0.2,1c0,0.4-0.1,0.8-0.2,1.1c-0.1,0.4-0.3,0.7-0.4,1c-0.3,0.5-0.7,1-1.1,1.5c-0.4,0.4-0.8,0.8-1.3,1.1
			c-0.4,0.3-0.9,0.6-1.4,0.9c-0.5,0.3-0.9,0.5-1.4,0.7c-0.5,0.2-1,0.4-1.5,0.5c-0.4,0.1-0.9,0.3-1.3,0.4c-0.4,0.1-0.9,0.2-1.4,0.3
			c-0.1,0.1-0.2,0.3-0.2,0.4c-0.1,0.1-0.2,0.3-0.2,0.4c-0.2,0.3-0.3,0.5-0.4,0.8c-0.1,0.3-0.3,0.6-0.4,0.9c0,0,0,0,0,0.1
			c0,0,0,0,0,0.1c0.1,0,0.2,0,0.2,0c0.1,0,0.2,0,0.3,0c0.3,0,0.6-0.1,0.9-0.1c0.3,0,0.6-0.1,1-0.2c1.3-0.3,2.5-0.8,3.8-1.5
			c0.6-0.3,1.2-0.7,1.8-1c0.6-0.4,1.2-0.8,1.8-1.2c0.6-0.4,1.1-0.9,1.7-1.4c0.5-0.5,1-1,1.5-1.6c0.1-0.1,0.2-0.1,0.4,0
			c0.2,0.1,0.2,0.3,0.2,0.7c0,0.1-0.1,0.3-0.2,0.6c-0.1,0.1-0.1,0.2-0.2,0.3C125.6,80.7,125.5,80.8,125.4,81z M112.2,83.6
			c-0.2,0.4-0.4,0.7-0.6,1.1c-0.2,0.4-0.3,0.7-0.5,1.2c0.1,0.1,0.2,0.1,0.3,0.1c0.1,0,0.2,0,0.3,0.1c0.1-0.1,0.1-0.3,0.2-0.5
			c0.1-0.2,0.1-0.3,0.2-0.5c0.1-0.3,0.2-0.5,0.4-0.8c0.1-0.3,0.3-0.5,0.4-0.7c0.3-0.4,0.6-0.9,0.9-1.3c0.3-0.5,0.7-0.9,1.2-1.3
			c0.8-0.8,1.7-1.6,2.6-2.2c0.2-0.2,0.5-0.3,0.7-0.5c0.2-0.2,0.5-0.3,0.7-0.5c0.5-0.3,1-0.5,1.5-0.8c0.1,0,0.1-0.1,0.2-0.1
			c0.1,0,0.1-0.1,0.2-0.1c0.1,0,0.1-0.1,0.2-0.1c0.1,0,0.1-0.1,0.2-0.1c0.2-0.1,0.3-0.2,0.3-0.3V76c0,0,0,0-0.1,0
			c-0.5,0.1-1.1,0.3-1.6,0.6c-0.5,0.3-1,0.5-1.5,0.8c-1,0.6-2,1.2-2.9,2c-0.4,0.4-0.9,0.8-1.3,1.2c-0.4,0.4-0.8,0.9-1.2,1.4
			c-0.2,0.2-0.4,0.5-0.5,0.7C112.5,83.1,112.4,83.3,112.2,83.6z M118,86.2c0.6-0.3,1.2-0.6,1.7-1c0.6-0.3,1.1-0.7,1.7-1.1
			c0.6-0.4,1.1-0.8,1.6-1.3c0.5-0.4,1-0.9,1.5-1.4c0.1-0.1,0.1-0.2,0.2-0.2c0.1-0.1,0.1-0.1,0.2-0.2c0.1-0.1,0.1-0.2,0.2-0.2
			c0-0.1,0.1-0.1,0.1-0.2c0.2-0.3,0.3-0.4,0.2-0.4v0c0,0-0.1,0-0.1,0.1c-0.9,1-1.9,2-3,2.9c-1.1,0.8-2.2,1.5-3.4,2.2
			c-0.6,0.3-1.2,0.6-1.8,0.9c-0.6,0.3-1.2,0.5-1.8,0.7c-0.6,0.2-1.1,0.3-1.7,0.4c-0.6,0.1-1.1,0.2-1.7,0.1c0,0.1-0.1,0.2-0.1,0.4
			h0.4c0.3,0,0.6-0.1,1-0.1c0.3,0,0.6-0.1,0.9-0.2c0.6-0.1,1.3-0.3,1.9-0.6C116.8,86.8,117.4,86.5,118,86.2z M123.1,76.1
			c0,0.2-0.1,0.5-0.2,0.8c-0.1,0.3-0.2,0.6-0.4,1c-0.2,0.3-0.4,0.6-0.7,1c-0.1,0.1-0.3,0.3-0.4,0.4c-0.1,0.1-0.3,0.3-0.4,0.4
			c-0.3,0.3-0.6,0.5-0.9,0.7c-0.3,0.2-0.6,0.4-0.9,0.6c-0.6,0.4-1.3,0.7-2,1c-0.7,0.3-1.4,0.5-2.1,0.7c-0.1,0-0.1,0-0.2,0.1
			c-0.1,0-0.1,0-0.1,0.1c-0.1,0-0.2,0.1-0.3,0.1c-0.2,0.1-0.2,0.1-0.2,0.1v0h0.1c0.8-0.2,1.5-0.4,2.2-0.6c0.7-0.2,1.4-0.5,2.1-0.9
			c0.4-0.2,0.7-0.3,1-0.5c0.3-0.2,0.6-0.4,0.9-0.6c0.3-0.2,0.6-0.5,0.9-0.7c0.3-0.2,0.5-0.5,0.7-0.7c0.1-0.1,0.1-0.1,0.2-0.2
			c0-0.1,0.1-0.1,0.1-0.2c0.1-0.1,0.1-0.1,0.2-0.2c0-0.1,0.1-0.1,0.1-0.2c0-0.1,0.1-0.1,0.1-0.2c0-0.1,0.1-0.2,0.1-0.2
			c0-0.1,0.1-0.2,0.1-0.3c0-0.1,0.1-0.2,0.1-0.3c0-0.1,0-0.1,0.1-0.2c0-0.1,0-0.1,0-0.2c0-0.1,0-0.2,0-0.4c0-0.2,0-0.3,0-0.3
			c0,0-0.1,0-0.1,0C123.1,76,123.1,76,123.1,76.1z M115.2,81.7c0.3-0.1,0.6-0.2,0.9-0.3c0.3-0.1,0.6-0.2,0.9-0.4
			c0.4-0.2,0.9-0.5,1.3-0.7c0.4-0.2,0.8-0.5,1.2-0.8c0.4-0.3,0.7-0.6,1.1-0.9c0.3-0.3,0.6-0.7,0.8-1.1c0.1-0.1,0.2-0.3,0.2-0.3
			c0,0-0.1,0-0.1,0.1c0,0-0.1,0-0.1,0.1c-0.2,0.1-0.5,0.2-0.7,0.3c-0.3,0.1-0.5,0.3-0.8,0.4c-0.5,0.3-1,0.6-1.5,1
			c-0.2,0.2-0.5,0.4-0.7,0.5c-0.2,0.2-0.5,0.4-0.7,0.6c-0.2,0.2-0.5,0.4-0.7,0.6c-0.2,0.2-0.4,0.4-0.7,0.6c0,0.1-0.1,0.1-0.1,0.2
			C115.4,81.6,115.3,81.6,115.2,81.7L115.2,81.7z"/>
		<path class="st1" d="M124,95.2c-1.1,1.4-2.3,2.6-3.7,3.7c-1.4,1.1-2.9,2-4.5,2.6c-0.3,0-0.6,0-0.8-0.2c-0.2-0.1-0.4-0.4-0.5-0.8
			c-0.1-0.4-0.1-0.8-0.1-1.4c0.1-0.6,0.2-1.1,0.3-1.5c0.6-1.7,1.3-3.3,2.1-4.9c0.8-1.6,1.6-3.2,2.5-4.9c1.7-3.1,3.6-6,5.6-8.9
			c2-2.8,4.2-5.6,6.5-8.4c1.2-1.3,2.3-2.6,3.5-3.8c1.2-1.2,2.5-2.4,3.9-3.6c0.2-0.1,0.3-0.2,0.5-0.2c0.1,0,0.2,0.1,0.3,0.3
			c0.1,0.4,0.1,0.7,0.2,1.1c0,0.3,0.1,0.7,0.1,1c0,0.3,0,0.7,0,1c0,0.3-0.1,0.7-0.3,1.1c-0.3,0.9-0.8,1.6-1.4,2.1
			c-1.9,1.6-3.7,3.4-5.4,5.2c-1.7,1.9-3.4,3.9-5.2,6.1c0.9,0.1,1.9,0.1,2.9-0.2c1-0.2,1.9-0.5,2.8-1c0.4-0.2,0.7-0.3,1-0.5
			s0.6-0.4,0.9-0.7c0.1-0.1,0.1-0.1,0.1,0c0.2,0.2,0.2,0.5,0.2,0.8c0,0.3-0.2,0.6-0.4,0.7c-0.6,0.5-1.3,1-2.1,1.4
			c-0.7,0.4-1.5,0.7-2.3,1c-0.6,0.2-1.2,0.4-1.9,0.5c-0.6,0.1-1.3,0.2-1.9,0.1c0.3,0.5,0.4,1,0.5,1.6c0.1,0.6,0.1,1.3,0,1.9
			c-0.1,0.7-0.2,1.3-0.3,1.9c-0.1,0.6-0.3,1.2-0.5,1.7c-0.4,1-0.8,1.8-1.3,2.6c-0.2,0.4-0.5,0.8-0.8,1.2
			C124.6,94.5,124.3,94.9,124,95.2z M116.2,98c0,0.1,0,0.2-0.1,0.3c0,0.1,0,0.3-0.1,0.4c0,0.1,0,0.2,0,0.2c0,0,0.1-0.1,0.1-0.2
			c0.4-1.2,0.9-2.4,1.5-3.5c0.3-0.6,0.6-1.2,0.9-1.7c0.3-0.6,0.6-1.1,0.9-1.7c0.6-1.1,1.3-2.2,1.9-3.2c0.7-1.1,1.3-2.1,2-3.1
			c0.7-1,1.4-2,2.1-3c0.7-1,1.5-1.9,2.2-2.9c0.8-1,1.6-1.9,2.3-2.7c0.7-0.8,1.4-1.6,2-2.3c0.7-0.7,1.3-1.4,1.9-2
			c0.6-0.6,1.3-1.3,2-2c0.2-0.2,0.4-0.4,0.6-0.6c0.2-0.2,0.4-0.4,0.6-0.6c0.3-0.4,0.5-0.6,0.5-0.8c0-0.2,0-0.3-0.1-0.2
			c-0.1,0-0.2,0.1-0.3,0.2c-0.4,0.4-0.9,0.9-1.6,1.5c-0.6,0.6-1.3,1.3-2.1,2.1c-0.7,0.8-1.5,1.6-2.3,2.5c-0.8,0.9-1.6,1.8-2.4,2.8
			c-1.5,1.8-3,3.8-4.4,5.8c-0.7,1-1.4,2.1-2.1,3.1c-0.7,1-1.3,2.1-2,3.2c-0.6,1.1-1.3,2.2-1.9,3.3c-0.6,1.1-1.1,2.3-1.7,3.5
			c-0.1,0.3-0.3,0.7-0.4,1C116.4,97.3,116.3,97.6,116.2,98z M116.8,100.5c0,0.1,0,0.2,0,0.2c0,0,0.1,0,0.2-0.1
			c0.6-0.3,1.2-0.7,1.8-1.1c0.6-0.4,1.2-0.9,1.8-1.3c0.3-0.2,0.6-0.5,0.8-0.7c0.3-0.3,0.6-0.5,0.8-0.8c0.3-0.3,0.5-0.6,0.8-0.9
			c0.3-0.3,0.5-0.6,0.8-0.9c0.2-0.3,0.5-0.6,0.7-0.9c0.2-0.3,0.5-0.7,0.7-1c0.1-0.2,0.2-0.3,0.3-0.5c0.1-0.2,0.2-0.4,0.3-0.5
			c0.2-0.4,0.4-0.7,0.5-1.1c0.2-0.3,0.3-0.7,0.4-1.1c0.1-0.4,0.2-0.8,0.3-1.3c0.1-0.5,0.2-1,0.2-1.6c0-0.4,0-0.9,0-1.5
			c-0.1-0.5-0.1-1-0.2-1.4c0-0.1,0-0.1-0.1-0.2c0-0.1-0.1-0.2-0.1-0.2c0-0.1-0.1-0.1-0.1-0.1c0,0,0,0.1,0,0.2c0.2,0.5,0.3,1,0.3,1.6
			c0,0.6,0,1.1,0,1.7c0,0.1-0.1,0.2-0.1,0.4c0,0.2-0.1,0.5-0.1,0.9c-0.1,0.5-0.3,1-0.4,1.5c-0.2,0.5-0.4,1-0.7,1.5
			c-0.5,1-1.1,2-1.8,2.9c-0.7,0.9-1.5,1.8-2.5,2.6c-1.1,1-2.2,1.9-3.4,2.6c-0.1,0.1-0.2,0.2-0.4,0.2c-0.1,0.1-0.3,0.2-0.4,0.2
			c-0.1,0.1-0.2,0.2-0.3,0.2C116.9,100.3,116.8,100.4,116.8,100.5z M126,83.1c-1.1,1.3-2.1,2.7-3.1,4.3c-1,1.6-2,3.2-2.9,4.8
			c-0.4,0.7-0.8,1.5-1.2,2.2c-0.4,0.7-0.8,1.5-1.1,2.3c-0.2,0.3-0.3,0.7-0.4,1c-0.1,0.3-0.3,0.7-0.4,1c0.6-0.4,1.3-0.7,1.9-1.1
			c0.6-0.4,1.3-0.8,1.9-1.4c0.6-0.5,1.2-1,1.7-1.6c0.6-0.6,1.1-1.2,1.6-1.9c0.4-0.6,0.9-1.3,1.3-2.1c0.4-0.8,0.7-1.6,0.9-2.4
			c0.2-0.8,0.3-1.7,0.3-2.5C126.5,84.7,126.3,83.9,126,83.1z M129.4,82.2c-0.3,0.1-0.7,0.1-1,0.1c-0.3,0-0.7,0-1,0c0,0-0.1,0-0.2,0
			c-0.1,0-0.2,0-0.2,0c-0.1,0-0.1,0-0.2,0c-0.1,0-0.1,0.1-0.1,0.1c0.3,0.2,0.6,0.3,1,0.2c0.4,0,0.8-0.1,1.1-0.1
			c0.7-0.1,1.3-0.2,2.1-0.5c0.3-0.1,0.7-0.3,1-0.4c0.3-0.1,0.7-0.3,1-0.4c0.6-0.3,1.2-0.7,1.9-1.2c0,0,0.1-0.1,0.2-0.1
			c0.1-0.1,0.1-0.1,0.2-0.2c0.1-0.1,0.1-0.1,0.2-0.2c0.1-0.1,0.1-0.1,0.1-0.2c0-0.1,0,0-0.1,0c-0.6,0.5-1.2,0.9-1.8,1.2
			c-0.6,0.3-1.3,0.6-2,0.9c-0.3,0.1-0.7,0.2-1,0.3C130.1,82,129.8,82.1,129.4,82.2z"/>
		<path class="st1" d="M137.5,84.7c-0.2,0.7-0.6,1.2-1.1,1.7c-0.5,0.5-1.1,0.9-1.6,1.2c-0.5,0.3-1.1,0.5-1.7,0.6
			c-0.3,0-0.6,0.1-0.9,0.1c-0.3,0-0.6,0-0.9-0.1c0,0-0.1,0-0.1-0.1c0-0.1-0.1-0.2-0.1-0.2c0-0.5,0-0.8-0.1-1
			c-0.1-0.2-0.1-0.3-0.2-0.4c-0.2-0.4-0.2-0.8,0-1.2c0.1-0.4,0.3-0.8,0.6-1c0.6-0.4,1.1-0.8,1.7-1.2c0.6-0.4,1.2-0.7,1.9-1
			c-0.2,0-0.4-0.1-0.6-0.2c-0.2-0.1-0.4-0.2-0.6-0.4c-0.1-0.2-0.2-0.4-0.2-0.7c0-0.2,0-0.5,0-0.8c0-0.3,0.1-0.5,0.2-0.8
			c0.2-0.8,0.6-1.5,1.1-2.1c0.5-0.6,1.1-1.1,1.7-1.6c0.7-0.5,1.4-0.8,2.2-1.1c0.8-0.2,1.6-0.3,2.4-0.2c0.1,0,0.1,0.1,0.2,0.2
			c0.1,0.1,0.1,0.2,0.1,0.4c0.1,0.5,0.2,1,0.2,1.4c0.1,0.4,0.1,0.7,0.1,0.9c0,0.2,0,0.4,0,0.5c0,0.1,0,0.2,0,0.4
			c0,0.1-0.1,0.2-0.1,0.4c-0.1,0.1-0.1,0.2-0.3,0.2c-0.6-0.2-1.2-0.2-1.9-0.1c-0.6,0.1-1.4,0.3-2.1,0.6c-0.2,0.1-0.4,0.3-0.6,0.4
			c-0.2,0.2-0.4,0.4-0.6,0.6c-0.2,0.2-0.3,0.5-0.3,0.7c-0.1,0.3-0.1,0.6,0,0.9c0.4-0.2,0.8-0.3,1.1-0.5c0.4-0.1,0.8-0.3,1.2-0.4
			c1-0.3,2-0.6,3-0.8c1-0.2,2.1-0.4,3.3-0.6c0.1,0,0.1,0,0.3,0s0.2,0,0.3-0.1c0.1,0,0.2,0,0.3,0s0.2,0,0.2,0.1
			c0.1,0.4,0,0.7-0.3,0.9c-0.3,0.2-0.5,0.4-0.9,0.5c-0.6,0.1-1.2,0.3-1.8,0.4c-0.6,0.1-1.2,0.3-1.8,0.5c-0.6,0.2-1.2,0.4-1.7,0.6
			c-0.6,0.2-1.1,0.4-1.7,0.7c-0.1,0-0.2,0.1-0.3,0.1c-0.1,0-0.2,0.1-0.3,0.2c0.1,0.1,0.2,0.2,0.2,0.3c0.1,0.1,0.2,0.2,0.2,0.4
			c0.1,0.1,0.1,0.3,0.1,0.4C137.6,84.4,137.6,84.6,137.5,84.7z M134.9,86.1c0.1-0.1,0.3-0.2,0.6-0.4c0.2-0.2,0.5-0.4,0.7-0.6
			c0.2-0.2,0.4-0.5,0.6-0.7c0.2-0.2,0.2-0.5,0.2-0.7c0,0-0.1,0-0.1,0c-0.2,0.4-0.4,0.8-0.7,1.1c-0.3,0.3-0.6,0.6-1,0.8
			c-0.4,0.2-0.7,0.3-1.1,0.4c-0.5,0.1-0.9,0.1-1.4,0.1c-0.2,0-0.4,0.1-0.5,0.2c-0.1,0.1-0.1,0.2,0,0.2c0.4,0,0.8,0,1.3,0
			C134,86.5,134.4,86.3,134.9,86.1z M135.4,83.2c-0.6,0.3-1.1,0.6-1.6,1c-0.5,0.4-1,0.8-1.6,1.2c0,0.1,0,0.1,0.2,0.2
			c0.2,0,0.3,0,0.4-0.1c0.3-0.3,0.6-0.5,0.9-0.7c0.3-0.2,0.6-0.5,0.9-0.7c0.4-0.3,0.8-0.5,1.3-0.8c0.4-0.3,1-0.5,1.6-0.8
			c0.5-0.2,1-0.4,1.5-0.6c0.5-0.2,1-0.4,1.6-0.5c0.5-0.1,0.9-0.2,1.1-0.3c0.2-0.1,0.4-0.1,0.5-0.1c0.4-0.1,0.8-0.2,1.2-0.3
			c0.4-0.1,0.8-0.2,1.3-0.3c0.1,0,0.1-0.1,0.3-0.1c0.1-0.1,0.1-0.1,0-0.1c-0.5,0.1-0.9,0.2-1.1,0.2c-0.2,0-0.4,0.1-0.5,0.1
			c-0.1,0-0.3,0.1-0.5,0.1c-0.2,0-0.6,0.1-1.1,0.3c-1.1,0.3-2.1,0.6-3.2,1C137.4,82.2,136.4,82.7,135.4,83.2z M136.6,83.4
			c-0.4,0.2-0.8,0.4-1.1,0.6c-0.4,0.2-0.7,0.4-1.1,0.7c-0.2,0.1-0.3,0.2-0.5,0.3c-0.2,0.1-0.3,0.2-0.5,0.4c0.4,0,0.8-0.1,1.3-0.3
			c0.4-0.2,0.8-0.4,1.2-0.8C136.1,84.1,136.4,83.8,136.6,83.4z M135.4,80.9c0,0.1,0,0.2,0.1,0.4c0,0.2,0.1,0.3,0.2,0.3
			c0,0,0,0,0-0.1c0-0.1,0-0.2,0-0.4c0-0.5,0.1-1,0.3-1.4c0.2-0.4,0.5-0.7,0.9-1c0.4-0.3,0.8-0.5,1.3-0.6c0.5-0.2,0.9-0.3,1.3-0.3
			c0.1,0,0.2,0,0.4,0c0.2,0,0.3,0,0.5,0c0.2,0,0.3,0,0.4,0c0.1,0,0.3,0,0.4-0.1c0.1,0,0.2-0.1,0.1-0.2c0-0.1-0.1-0.1-0.1-0.1
			c-0.1,0-0.2,0-0.4,0c-0.1,0-0.3,0-0.4,0c-0.2,0-0.3,0-0.4,0c-0.7,0.1-1.4,0.2-2.1,0.5c-0.7,0.2-1.3,0.7-1.8,1.4
			c-0.2,0.2-0.3,0.5-0.5,0.8C135.4,80.2,135.3,80.5,135.4,80.9z"/>
		<path class="st1" d="M155.6,74.8c0.2,0.5,0.4,1,0.6,1.5c0.1,0.3,0.1,0.6,0.1,1c0,0.4-0.1,0.7-0.1,1c-0.1,0.3-0.2,0.6-0.4,0.9
			c-0.2,0.3-0.3,0.4-0.6,0.5c-0.4,0.2-0.7,0.3-1,0.4c-0.3,0.1-0.7,0.2-1,0.4c-0.8,0.3-1.7,0.6-2.5,0.9c-0.9,0.3-1.7,0.7-2.6,1.1
			c-0.9,0.4-1.7,0.9-2.5,1.4c-0.8,0.5-1.6,1.1-2.3,1.9c0.5-0.1,1.1-0.2,1.7-0.2c0.6,0,1.2,0,1.9,0c0.5,0,0.9,0.1,1.4,0.2
			c0.5,0.1,0.9,0.3,1.4,0.4c0.4,0.2,0.9,0.3,1.3,0.5c0.4,0.2,0.9,0.4,1.3,0.6c0.1,0.1,0.1,0.1,0.1,0.2c0,0.3-0.1,0.4-0.2,0.6
			c-0.1,0.1-0.3,0.2-0.5,0.2c-0.1,0-0.1,0-0.2,0c-0.1,0-0.1,0-0.2-0.1c-0.4-0.2-0.9-0.3-1.3-0.4c-0.4-0.1-0.9-0.2-1.3-0.3
			c-0.4-0.1-0.9-0.1-1.3-0.2c-0.4,0-0.9,0-1.3,0c-0.9,0.1-1.7,0.2-2.6,0.5c-0.4,0.1-0.7,0.2-1.1,0.4c-0.4,0.1-0.7,0.3-1.1,0.4
			c-0.2,0.1-0.3,0.1-0.5,0.2c-0.2,0.1-0.3,0-0.5-0.1c-0.2-0.3-0.3-0.7-0.4-1.3c0-0.3,0-0.6,0.1-1c0.1-0.3,0.2-0.6,0.4-0.8
			c0.6-0.9,1.2-1.7,1.9-2.4c0.7-0.7,1.4-1.4,2.2-2c0.8-0.6,1.5-1.2,2.4-1.7c0.8-0.5,1.7-1.1,2.5-1.5c-0.3,0-0.7,0.1-1,0.1
			c-0.4,0-0.7,0-1.1,0c-0.4,0-0.9-0.1-1.3-0.2c-0.4-0.1-0.9-0.2-1.3-0.4c-0.1,0-0.1-0.1-0.1-0.1c0-0.1,0-0.1,0-0.2
			c0.1-0.3,0.2-0.5,0.3-0.8c0.1-0.3,0.3-0.5,0.5-0.7c0.2-0.2,0.4-0.2,0.6-0.2c0.4,0.1,0.7,0.3,1.1,0.3c0.4,0.1,0.8,0.1,1.1,0.2
			c0.4,0,0.8,0.1,1.2,0.1c0.4,0,0.8,0,1.2,0c0.4,0,0.8-0.1,1.2-0.2c0.4-0.1,0.8-0.1,1.2-0.2c0.4-0.1,0.8-0.2,1.2-0.3
			c0.4-0.1,0.8-0.3,1.2-0.5C155.3,74.5,155.5,74.6,155.6,74.8z M154.1,79.4c0.2-0.1,0.4-0.1,0.6-0.3c0.3-0.1,0.4-0.3,0.4-0.6
			c0,0-0.2,0-0.5,0.1c-0.3,0.1-0.6,0.2-1,0.3c-0.4,0.1-0.7,0.2-1,0.4c-0.3,0.1-0.6,0.2-0.7,0.2c-0.5,0.2-1.1,0.4-1.6,0.7
			c-0.6,0.2-1.1,0.5-1.6,0.7c-0.5,0.3-1.1,0.5-1.6,0.8c-0.5,0.3-1,0.6-1.6,1c-0.6,0.4-1.2,0.9-1.8,1.4c-0.6,0.5-1.1,1-1.6,1.6
			c-0.1,0.1-0.2,0.3-0.4,0.5c-0.1,0.2-0.2,0.4-0.1,0.5c0,0.1,0.1,0,0.1-0.1c0.4-0.5,0.9-1,1.4-1.5c0.5-0.5,1-0.9,1.5-1.3
			c0.5-0.4,1-0.7,1.6-1c0.5-0.3,1.1-0.6,1.6-0.9c0.5-0.3,1.1-0.5,1.6-0.7c0.5-0.2,1.1-0.5,1.6-0.7c0.5-0.2,1.1-0.4,1.6-0.6
			C153.1,79.7,153.6,79.6,154.1,79.4z M145.6,85.9c-0.5,0.1-1,0.1-1.5,0.2c-0.5,0.1-1,0.1-1.4,0.2c-0.1,0.1-0.2,0.2-0.2,0.2
			c-0.1,0.1-0.2,0.1-0.2,0.2c0.3-0.1,0.6-0.2,0.8-0.2s0.6-0.1,0.9-0.2c0.3,0,0.6-0.1,0.9-0.1c0.3,0,0.7-0.1,1.1-0.1
			c0.2,0,0.3,0,0.5,0c0.2,0,0.3,0,0.5,0c0.3,0,0.6,0.1,1,0.1c0.3,0,0.7,0.1,1,0.2c0.3,0.1,0.7,0.2,1,0.3c0.3,0.1,0.7,0.2,1,0.4
			c0,0,0.1,0,0.2,0.1c0.1,0,0.2,0.1,0.3,0.1c0.1,0,0.2,0,0.2,0c0.1,0,0,0,0-0.1c-0.3-0.1-0.7-0.3-1-0.4c-0.3-0.1-0.7-0.2-1-0.4
			c-0.3-0.1-0.7-0.2-1-0.3c-0.3-0.1-0.7-0.2-1-0.2c-0.4,0-0.7-0.1-1-0.1C146.3,85.9,145.9,85.9,145.6,85.9z M148.7,76.7
			c0.6,0,1.2,0,1.8-0.1c0.3,0,0.6-0.1,0.9-0.1c0.3-0.1,0.6-0.1,0.9-0.2c0.2-0.1,0.3-0.2,0.5-0.2c0.2-0.1,0.3-0.2,0.5-0.2
			c-0.4,0.1-0.8,0.2-1.2,0.3c-0.4,0.1-0.8,0.1-1.1,0.2c-0.3,0-0.6,0.1-0.9,0.1c-0.3,0-0.6,0.1-0.9,0.1c-0.6,0-1.2-0.1-1.6-0.2
			c-0.4-0.1-0.9-0.2-1.4-0.3c0,0-0.1,0-0.2,0c-0.1,0-0.2,0-0.3,0c-0.1,0-0.1,0-0.2,0.1c0,0,0,0.1,0.1,0.1c0.2,0.1,0.4,0.2,0.6,0.2
			c0.2,0.1,0.4,0.1,0.6,0.1c0.3,0,0.5,0.1,0.8,0.1C148.1,76.6,148.4,76.7,148.7,76.7z"/>
	</g>
	<path class="st1" d="M106.8,5.7c-2.9,0-5.8,0.2-8.6,0.5c2.4-0.2,4.9-0.4,7.4-0.4c41.8,0,75.6,33.5,75.6,74.8
		c0,31.8-20.1,59-48.5,69.8c28.9-10.4,49.6-37.9,49.6-70.1C182.2,39.1,148.5,5.7,106.8,5.7z"/>
	<path class="st1" d="M49.1,85.1c0-32.4,26.3-58.7,58.7-58.7c21.6,0,40.4,11.6,50.6,28.9c-9.5-19-29.1-32-51.8-32
		c-32,0-57.9,25.9-57.9,57.9c0,2.6,0.2,5.1,0.5,7.6C49.1,87.6,49.1,86.4,49.1,85.1z"/>
	<path class="st1" d="M106,137.2c-22,0-41.1-12.1-51.2-29.9c9.5,18.9,29.1,31.9,51.8,31.9c30.6,0,55.6-23.7,57.8-53.7
		C160.9,114.6,136.1,137.2,106,137.2z"/>
	<path class="st1" d="M280,76.4c3.3,0,6.1,2.2,7.1,5.1c-0.8-3.2-3.7-5.6-7.2-5.6c-4.1,0-7.4,3.3-7.4,7.4c0,0.1,0,0.1,0,0.2
		C272.7,79.6,276,76.4,280,76.4z"/>
	<circle class="st1" cx="280.1" cy="83.8" r="5.9"/>
	<path class="st1" d="M185.3,98.1c-0.4,1.8-1.7,3.1-2.8,2.8c-1.1-0.3-1.6-2-1.2-3.8c0.4-1.8,1.7-3.1,2.8-2.8
		C185.2,94.6,185.7,96.3,185.3,98.1z"/>
	<g>
		<path class="st1" d="M181.6,97.2c0.3-1.4,1.2-2.5,2.1-2.9c-1,0.1-1.9,1.3-2.3,2.8c-0.4,1.7,0,3.2,0.9,3.7
			C181.5,100.3,181.2,98.8,181.6,97.2z"/>
		<path class="st0" d="M185.6,98.2c-0.4,1.9-1.7,3.1-2.8,2.9c-1.1-0.3-1.7-2-1.2-3.9c0.4-1.9,1.7-3.1,2.8-2.9
			C185.5,94.6,186,96.3,185.6,98.2z"/>
	</g>
	<g>
		<path class="st1" d="M182.1,67.6c-0.3-1.3,0-2.5,0.5-3.1c-0.7,0.5-1,1.8-0.7,3.1c0.3,1.5,1.3,2.6,2.2,2.6
			C183.2,70,182.4,69,182.1,67.6z"/>
		<path class="st0" d="M185.6,66.8c0.4,1.6-0.2,3.2-1.1,3.4c-1,0.2-2.1-0.9-2.5-2.6c-0.4-1.6,0.2-3.2,1.1-3.4
			C184.2,64,185.3,65.1,185.6,66.8z"/>
	</g>
	<path class="st2" d="M-5.9,57.3"/>
	<path class="st1" d="M15,56.6c0,0-6.5,16.9-0.6,44.6C14.5,101.2,7,78.7,15,56.6z"/>
	<path class="st1" d="M0.8,90.1"/>
	<path class="st2" d="M309.9,68.7"/>
</g>
</svg>
