<?xml version="1.0" encoding="utf-8"?>
<!-- Generator: Adobe Illustrator 22.0.1, SVG Export Plug-In . SVG Version: 6.00 Build 0)  -->
<svg version="1.1" id="Layer_1" xmlns="http://www.w3.org/2000/svg" xmlns:xlink="http://www.w3.org/1999/xlink" x="0px" y="0px"
	 viewBox="0 0 203 266.5" style="enable-background:new 0 0 203 266.5;" xml:space="preserve">
<style type="text/css">
	.st0{fill:#E2E2E1;}
	.st1{fill:none;stroke:#C2C2C2;stroke-width:2.6018;stroke-linecap:round;stroke-miterlimit:10;}
	.st2{fill:#EF3F4E;}
	.st3{fill:#FFFFFF;}
</style>
<rect x="0.3" y="-0.2" class="st0" width="202.3" height="266.8"/>
<g>
	<g>
		<path class="st1" d="M96.4,156.7c-11-13.6-9.4-29.9,4.5-49c9.4-12.8,8.3-32.5-3.3-45.3"/>
		<path class="st1" d="M118,156.3c-7.7-11.7-5.7-25.8,7.3-38.9c9.2-9.3,9.2-21.7,1.4-33.4"/>
		<path class="st1" d="M73.3,157.7c-8.3-9.1-7.7-24.5,2.2-39.3c8.5-12.7,5.9-24.1-2.5-33.2"/>
	</g>
	<g>
		<path class="st2" d="M184.6,171.6h-8H26.5h-8.1c-2.2,0-3.9,1.9-3.9,4.3s1.8,4.3,3.9,4.3h17.3c18.3,15,41.1,23.9,65.8,23.9
			s47.5-8.9,65.8-23.9h17.3c2.2,0,3.9-1.9,3.9-4.3S186.7,171.6,184.6,171.6z"/>
		<path class="st3" d="M47.1,180.1h30.3c0,0-9.7,2.6-5,9.2c4.2,5.9,13.9,9.4,13.9,9.4s-13.2-0.4-27.7-8.9
			C49.6,184.6,47.1,180.1,47.1,180.1z"/>
	</g>
</g>
</svg>
