<?xml version="1.0" encoding="utf-8"?>
<!-- Generator: Adobe Illustrator 22.0.1, SVG Export Plug-In . SVG Version: 6.00 Build 0)  -->
<svg version="1.1" id="Layer_1" xmlns="http://www.w3.org/2000/svg" xmlns:xlink="http://www.w3.org/1999/xlink" x="0px" y="0px"
	 viewBox="0 0 203 266.5" style="enable-background:new 0 0 203 266.5;" xml:space="preserve">
<style type="text/css">
	.st0{fill:#E2E2E1;}
	.st1{fill:#3C3738;}
	.st2{fill:#FCEEE1;}
	.st3{fill:#A9988F;}
	.st4{fill:#C7BBB3;}
	.st5{fill:#FBB97E;}
	.st6{fill:#F4BF88;}
	.st7{fill:#BFCDCB;}
	.st8{fill:#FFFFFF;}
	.st9{fill:#FDE6DB;}
	.st10{fill:#EFA863;}
	.st11{fill:#C98E53;}
	.st12{fill:#DFD3DD;}
	.st13{fill:#3B4D80;}
	.st14{fill:#DAE1E0;}
	.st15{fill:#FCF6B7;}
	.st16{fill:#E9F1D2;}
	.st17{fill:#F8F4B3;}
	.st18{fill:#FFF0E9;}
	.st19{fill:#221F1F;}
	.st20{fill:#EADEDC;}
	.st21{fill:#7F80A5;}
	.st22{fill:#6D3816;}
	.st23{fill:#768181;}
	.st24{fill:#A4B9BE;}
	.st25{fill:#C4D0D3;}
	.st26{opacity:0.5;fill:#716F3B;enable-background:new    ;}
	.st27{fill:#4D5A58;}
	.st28{fill:#A78569;}
	.st29{fill:#B1B9B8;}
	.st30{fill:#898687;}
	.st31{fill:#A25845;}
	.st32{fill:#B0AEAE;}
	.st33{fill:#8A9896;}
	.st34{fill:#EBDCD9;}
	.st35{fill:#B8C2C6;}
	.st36{fill:#7A9199;}
	.st37{fill:#957050;}
	.st38{fill:#D37D6D;}
	.st39{fill:#DE9B8B;}
	.st40{fill:#EE637F;}
	.st41{opacity:0.5;fill:#5A4F56;enable-background:new    ;}
	.st42{fill:#C3BAC3;}
	.st43{fill:#4D777F;}
	.st44{fill:#F3F0F2;}
	.st45{fill:#99929B;}
	.st46{fill:#B7AEB8;}
	.st47{fill:#C49B95;}
	.st48{fill:#D2B3AE;}
	.st49{opacity:0.4;fill:#FFFFFF;enable-background:new    ;}
	.st50{fill:#A69CA4;}
	.st51{fill:#CBC6CA;}
	.st52{fill:#DDD8DC;}
	.st53{fill:#D1CBCF;}
	.st54{fill:#DCCBBB;}
	.st55{fill:#0E0F24;}
	.st56{fill:#EC652D;}
	.st57{fill:#F3A020;}
	.st58{fill:#FCD00C;}
	.st59{fill:#3E626A;}
	.st60{fill:#99D6D3;}
	.st61{fill:#55C2B9;}
	.st62{fill:#665346;}
	.st63{fill:#977B68;}
	.st64{fill:#BBE2E0;}
	.st65{fill:#2A615E;}
	.st66{fill:#3F918B;}
	.st67{fill:#FDE7C8;}
	.st68{fill:#B6843B;}
	.st69{fill:#F5E3BF;}
	.st70{fill:#986B29;}
	.st71{fill:#805E2A;}
	.st72{fill:#DB8A27;}
	.st73{fill:#F9C67E;}
	.st74{fill:#E49826;}
	.st75{fill:#7E5B28;}
	.st76{fill:#A5742B;}
	.st77{fill:#B2915E;}
	.st78{fill:#E3A44A;}
	.st79{fill:#DEA048;}
	.st80{fill:#BB873D;}
	.st81{fill:#CE9440;}
	.st82{fill:#AC4525;}
	.st83{fill:#C44427;}
	.st84{fill:#F5C86C;}
	.st85{fill:#A0A9B5;}
	.st86{fill:#9C5F38;}
	.st87{fill:#346A72;}
	.st88{fill:#7E4C2B;}
	.st89{fill:#D6E0F0;}
</style>
<rect x="0.3" y="-0.2" class="st0" width="202.3" height="266.8"/>
<g>
	<polygon class="st1" points="193.7,210.7 193.7,225.4 184.2,225.4 166.1,215.2 	"/>
	<polygon class="st2" points="193.7,207 193.7,210.7 166.1,215.2 146.4,204.2 177.6,199.1 	"/>
	<polygon class="st3" points="193.7,41.1 193.7,43.3 112.8,66.9 112.8,64.2 112.8,64 189.4,41.1 	"/>
	<polygon class="st2" points="184.2,225.4 137.2,225.4 131,221 166.1,215.2 	"/>
	<polygon class="st1" points="177.6,199.1 146.4,204.2 127.7,193.7 157.5,189.3 	"/>
	<polygon class="st1" points="166.1,215.2 131,221 114.2,209.3 146.4,204.2 	"/>
	<polygon class="st2" points="157.5,189.3 127.7,193.7 113.1,185.4 143.1,182.3 	"/>
	<polygon class="st2" points="146.4,204.2 114.2,209.3 98,198 127.7,193.7 	"/>
	<polygon class="st1" points="143.1,182.3 113.1,185.4 97.7,176.8 126,173.9 	"/>
	<polygon class="st1" points="137.2,225.4 104.5,225.4 131,221 	"/>
	<polygon class="st2" points="131,221 104.5,225.4 98.5,225.4 85.2,214 114.2,209.3 	"/>
	<polygon class="st1" points="127.7,193.7 98,198 84.4,188.4 113.1,185.4 	"/>
	<polygon class="st2" points="126,173.9 97.7,176.8 85.1,169.8 112.7,167.5 112.9,167.5 	"/>
	<polygon class="st1" points="114.2,209.3 85.2,214 71.1,202 98,198 	"/>
	<polygon class="st2" points="113.1,185.4 84.4,188.4 71.5,179.5 97.7,176.8 	"/>
	<polygon class="st4" points="112.8,64.2 112.8,66.9 112.7,66.9 112.1,67.1 9.3,59.9 9.3,56.8 112.4,64.1 	"/>
	<polygon class="st5" points="112.8,67.1 112.8,66.9 193.7,43.3 193.7,207 177.6,199.1 157.5,189.3 143.1,182.3 126,173.9 
		112.9,167.5 112.7,167.4 112.7,67.1 	"/>
	<path class="st6" d="M112.7,167.4L112.7,167.4l-27.6,2.3l-24.6,2l-22.7,1.8l-23.5,1.9l-5,0.4V70.6v-3v-7.7l102.8,7.2l0.6,0
		L112.7,167.4L112.7,167.4z M10.7,72.6v0.1V72.6l83.8,4.1l4.9-1.2l0.2,0l-0.2,0v-2.9l-87-4.8l-0.4,0v0.4l-1.3,1.1v1.5L10.7,72.6
		L10.7,72.6z M83.3,82.1l0.1,0L83.3,82.1l-33.5-1.2l-24.8-0.9v1.9v2.9v50.4v2.4v2.8v2.5l58.5-2.7l0-2.2v-0.2L83.3,82.1z"/>
	<polygon class="st7" points="99.5,75.5 99.5,75.5 94.5,76.7 10.8,72.6 12,71.3 12,71.3 12.5,70.8 	"/>
	<polygon class="st8" points="99.5,72.6 99.5,75.5 12.5,70.8 12,70.7 12,68.1 12.4,67.7 	"/>
	<polygon class="st1" points="98.5,225.4 64.7,225.4 57.7,218.4 85.2,214 	"/>
	<polygon class="st2" points="98,198 71.1,202 58.4,191.2 84.4,188.4 	"/>
	<polygon class="st1" points="97.7,176.8 71.5,179.5 60.5,171.8 85.1,169.8 	"/>
	<polygon class="st2" points="85.2,214 57.7,218.4 44.9,205.8 71.1,202 	"/>
	<polygon class="st1" points="84.4,188.4 58.4,191.2 47.6,181.9 71.5,179.5 	"/>
	<polygon class="st9" points="83.4,137.9 83.4,140.1 24.9,142.8 24.9,140.3 	"/>
	<polygon class="st10" points="83.3,82.1 83.4,137.7 74.5,135.5 74.5,135.5 74.5,83.7 74.6,83.7 	"/>
	<polygon class="st11" points="83.3,82 83.3,82.1 74.6,83.7 74.5,83.7 72.1,83.6 49.7,82.8 24.9,81.9 24.9,79.9 49.7,80.8 	"/>
	<polygon class="st12" points="83.4,137.7 83.4,137.9 24.9,140.3 24.9,137.5 49.9,136.5 74.5,135.5 74.5,135.5 	"/>
	<path class="st8" d="M74.5,135.5L74.5,135.5l-24.6,1l0-2.5l-0.2-51.2l22.4,0.8l2.3,0.1v0V135.5z M71.9,133l0.2-47.2l-19.5-0.7
		l-0.4,48.8L71.9,133z"/>
	<polygon class="st13" points="72.1,85.7 71.9,133 52.2,133.9 52.6,85.1 	"/>
	<polygon class="st2" points="71.5,179.5 47.6,181.9 37.9,173.6 60.5,171.8 	"/>
	<polygon class="st1" points="71.1,202 44.9,205.8 32.9,193.8 58.4,191.2 	"/>
	<polygon class="st2" points="64.7,225.4 31.6,225.4 29.4,223 57.7,218.4 	"/>
	<polygon class="st2" points="58.4,191.2 32.9,193.8 23.3,184.4 47.6,181.9 	"/>
	<polygon class="st1" points="57.7,218.4 29.4,223 17.5,209.8 44.9,205.8 	"/>
	<polygon class="st14" points="49.9,134 49.9,136.5 24.9,137.5 24.9,135.1 47,134.1 46.7,85.2 24.9,84.8 24.9,81.9 49.7,82.8 	"/>
	<polygon class="st1" points="47.6,181.9 23.3,184.4 14.4,175.5 37.9,173.6 	"/>
	<polygon class="st13" points="46.7,85.2 47,134.1 24.9,135.1 24.9,84.8 	"/>
	<polygon class="st2" points="44.9,205.8 17.5,209.8 9.3,200.8 9.3,196.3 32.9,193.8 	"/>
	<polygon class="st1" points="32.9,193.8 9.3,196.3 9.3,185.8 23.3,184.4 	"/>
	<polygon class="st1" points="29.4,223 31.6,225.4 14.5,225.4 	"/>
	<polygon class="st2" points="17.5,209.8 29.4,223 14.5,225.4 9.3,225.4 9.3,211 	"/>
	<polygon class="st2" points="23.3,184.4 9.3,185.8 9.3,175.9 14.4,175.5 	"/>
	<polygon class="st1" points="9.3,200.8 17.5,209.8 9.3,211 	"/>
	<polygon class="st10" points="24.9,141.9 87,139.3 86.5,144.9 57.1,164 40.7,173.2 12,175 11.8,72.6 25.1,72.2 	"/>
	<polygon class="st10" points="90.6,79.4 17.1,77.8 17.1,73 90.5,75.7 	"/>
	<g id="XMLID_47_">
		<g>
			<path class="st15" d="M33.1,72.8v101.1c-0.1-0.1-0.2-0.3-0.3-0.4c-1,2-2.7,2.6-3.8,1v-102L33.1,72.8z"/>
			<path class="st16" d="M21,72.1v103c-0.2-0.1-0.3-0.3-0.5-0.5c-1.5,2.1-4.8,3.4-6.3,1.3c0-25.6-0.5-78.8-0.5-104.2L21,72.1z"/>
			<path class="st15" d="M88.2,75.6v94.8c-0.1-0.1-0.3-0.2-0.3-0.4c-0.7,3.2-5.8,1.2-7.6,0.7V75.2L88.2,75.6z"/>
			<path class="st15" d="M29,72.6v102c-0.1-0.1-0.2-0.3-0.3-0.5c-0.9,1.6-2.5,2.3-4.1,2.3c-1.3,0-2.6-0.4-3.6-1.3v-103L29,72.6z"/>
			<path class="st17" d="M40.5,121.1c0,7.7,0.3,44.6,0.3,52.1c-0.6,2.9-5.9,3-7.6,0.7V72.8l7.4,0.4l0,0.1
				C40.5,90,40.5,104.4,40.5,121.1z"/>
			<path class="st17" d="M94.1,75.9c0,22.5,0.8,70.8,0.8,93.3c-1.4,1.6-5.3,2.3-6.7,1.2V75.6L94.1,75.9z"/>
			<path class="st17" d="M80.2,75.2v95.6c0,0-0.1,0-0.1,0c-0.9,1.3-2.4,1-3.6,0.3c0-28.9-0.5-80.6-0.5-96L80.2,75.2z"/>
		</g>
	</g>
	<g>
		<g id="XMLID_38_">
			<g>
				<path class="st18" d="M184.1,131.1c0-4.2,0-8.4,0-12.7l-10-0.6c0,1.9,0,3.8,0,5.7c0,2.2,0,4.3,0,6.5L184.1,131.1z M184.1,145
					c0-2.4,0-4.8,0-7.2c0-1.9,0-3.9,0-5.8l-10-1.1c0,4.1,0,8.3,0,12.4L184.1,145z M154.6,128c0-3.8,0-7.6,0-11.5l-8-0.5
					c0,1.8,0,3.5,0,5.3c0,2,0,3.9,0,5.9L154.6,128z M145.8,127c0-3.7,0-7.4,0-11.1l-8-0.5c0,1.4,0,2.9,0,4.3c0,2.2,0,4.3,0,6.5
					L145.8,127z M145.8,138.5c0-1.1,0-2.1,0-3.2c0-2.5,0-5,0-7.4l-8-0.8c0,3.4,0,6.8,0,10.2L145.8,138.5z M145.8,148.9
					c0-3.2,0-6.3,0-9.5l-8-1.3c0,3,0,6.1,0,9.1L145.8,148.9z M154.6,106.8l-8-0.2c0,2.9,0,5.8,0,8.6l8,0.5
					C154.6,112.7,154.6,109.8,154.6,106.8C154.6,106.8,154.6,106.8,154.6,106.8z M146.6,138.7l8,1.3c0-1.2,0-2.5,0-3.7
					c0-2.5,0-5,0-7.5l-8-0.8C146.6,131.5,146.6,135.1,146.6,138.7z M154.6,140.9l-8-1.3c0,3.2,0,6.4,0,9.5l8,1.8
					C154.6,147.5,154.6,144.2,154.6,140.9z M129.1,125.3c0-3.5,0-7,0-10.4l-7.6-0.5c0.1,3.9,0.2,7.3,0.3,10.2L129.1,125.3z
					 M137,114.5c0-2.8,0-5.5,0-8.3l-7.1-0.2c0,2.7,0,5.4,0,8.1L137,114.5z M137,126.1c0-3.6,0-7.2,0-10.8l-7.1-0.5
					c0,1.2,0,2.3,0,3.5c0,2.3,0,4.7,0,7L137,126.1z M137,137.1c0-1.1,0-2.2,0-3.3c0-2.3,0-4.6,0-6.8l-7.1-0.7c0,3.2,0,6.4,0,9.7
					L137,137.1z M137,146.9c0-3,0-6,0-9l-7.1-1.2c0,2.9,0,5.8,0,8.7L137,146.9z M145.8,106.5l-8-0.2c0,2.8,0,5.6,0,8.3l8,0.5
					C145.8,112.2,145.8,109.3,145.8,106.5z M129.1,106l-7.8-0.2c0.1,2.8,0.1,5.4,0.2,7.8l7.7,0.5C129.1,111.3,129.1,108.7,129.1,106
					z M122,134.5l7.1,1.2c0-1.1,0-2.2,0-3.3c0-2.1,0-4.2,0-6.3l-7.4-0.8c0.1,2.5,0.1,4.6,0.2,6.4C121.9,132.8,121.9,133.7,122,134.5
					z M129.1,136.6l-7.1-1.2c0.2,6.2,0.1,7-0.2,8.2l7.3,1.6C129.1,142.3,129.1,139.4,129.1,136.6z M173.2,129.9c0-4.1,0-8.2,0-12.2
					l-8.7-0.6c0,1.8,0,3.7,0,5.5c0,2.1,0,4.2,0,6.3L173.2,129.9z M163.7,116.2c0-3,0-6,0-9c0-0.1,0-0.2,0.1-0.2l-8.4-0.3
					c0,0,0,0,0,0.1c0,3,0,5.9,0,8.9L163.7,116.2z M163.7,128.9c0-4,0-7.9,0-11.9l-8.3-0.5c0,1.9,0,3.8,0,5.7c0,1.9,0,3.9,0,5.8
					L163.7,128.9z M163.7,141.5c0-1.6,0-3.2,0-4.8c0-2.3,0-4.7,0-7l-8.3-0.9c0,3.8,0,7.5,0,11.3L163.7,141.5z M164.5,141.7l8.7,1.5
					c0-1.9,0-3.7,0-5.6c0-2.3,0-4.5,0-6.8l-8.7-0.9C164.5,133.8,164.5,137.7,164.5,141.7z M184.9,131.1l8.6,0.9V119l-8.6-0.6
					c0,2.4,0,4.8,0,7.1C184.9,127.4,184.9,129.3,184.9,131.1z M193.4,147.4l-8.6-1.4c0,2.9,0,5.9,0,8.8l-0.8-0.2c0-2.9,0-5.8,0-8.7
					l-10-1.7c0,2.7,0,5.5,0,8.2l-0.8-0.2c0-2.7,0-5.4,0-8.2l-8.7-1.5c0,3.2,0,6.4,0,9.6c0,0.3-0.3,0.5-0.6,0.4
					c-0.1-0.1-0.3-0.2-0.3-0.4c0-3.3,0-6.5,0-9.8l-8.3-1.4c0,3.3,0,6.7,0,10l8.5,1.9l29.6,6.5v-2.7L193.4,147.4L193.4,147.4z
					 M193.4,132.9l-8.6-0.9c0,4.4,0,8.7,0,13.1l8.6,1.4V132.9z M146.6,106.1l47.1,1.4v10.7v0.8v13v0.9v13.7v0.9v9.1v2.7l0,0.5
					l-38.2-8.4c0,0.1,0,0.2,0,0.4c0,0.5-0.8,0.5-0.8,0c0-0.2,0-0.4,0-0.5l-8-1.8c0,0.4,0,0.8,0,1.3c0,0.5-0.8,0.5-0.8,0
					c0-0.5,0-1,0-1.4l-8-1.8c0,0.6,0,1.1,0,1.7c0,0.5-0.8,0.5-0.8,0c0-0.6,0-1.2,0-1.8l-7.1-1.6c0,0.7,0,1.4,0,2.1
					c0,0.5-0.8,0.5-0.8,0c0-0.7,0-1.5,0-2.2l-7.8-1.7l0-0.2c0.3-1.3,0.4-1.8,0.2-8.4l-0.9-0.1l0.1-0.8l0.7,0.1c0-0.8,0-1.7-0.1-2.7
					c0-1.8-0.1-4-0.2-6.5l-2.2-0.2l0.1-0.8l2.1,0.2c-0.1-2.9-0.2-6.2-0.3-10.1l-2.8-0.2l0.1-0.8l2.7,0.2c-0.1-2.4-0.1-5.1-0.2-7.9
					l0-0.2l0.2,0l8.1,0.2c0-0.9,0-1.8,0-2.6c0-0.5,0.8-0.5,0.8,0c0,0.9,0,1.8,0,2.7l7.1,0.2c0-0.5,0-1,0-1.5c0-0.5,0.8-0.5,0.8,0
					c0,0.5,0,1,0,1.6l8,0.2c0-0.1,0-0.2,0-0.3c0-0.5,0.8-0.5,0.8,0C146.6,105.9,146.6,106,146.6,106.1z M193.4,118.1v-10.2l-9-0.3
					l-10.9-0.3l-9.2-0.3c0,0.1,0,0.1,0,0.2c0,3,0,6,0,9l8.7,0.6c0-2.9,0-5.9,0-8.8c0-0.3,0.2-0.4,0.4-0.4s0.4,0.1,0.4,0.4
					c0,2.9,0,5.9,0,8.8l10,0.6c0-3,0-6.1,0-9.1c0-0.3,0.2-0.4,0.4-0.4c0.2,0,0.4,0.1,0.4,0.4c0,3,0,6.1,0,9.1L193.4,118.1z"/>
				<path class="st19" d="M184.9,154.8c0,0.5-0.8,0.5-0.8,0c0-0.1,0-0.2,0-0.3L184.9,154.8C184.9,154.8,184.9,154.8,184.9,154.8z"/>
				<path class="st2" d="M184.1,145.8c0,2.9,0,5.8,0,8.7l-10-2.2c0-2.7,0-5.5,0-8.2L184.1,145.8z"/>
				<path class="st20" d="M163.7,152.2c0,0.2,0.1,0.3,0.3,0.4l-0.1,0.3l-8.5-1.9c0-3.3,0-6.7,0-10l8.3,1.4
					C163.7,145.6,163.7,148.9,163.7,152.2z"/>
				<path class="st19" d="M174,153c0,0.5-0.8,0.5-0.8,0c0-0.3,0-0.6,0-0.8l0.8,0.2C174,152.5,174,152.8,174,153z"/>
				<path class="st2" d="M193.4,132.9v13.7l-8.6-1.4c0-4.4,0-8.7,0-13.1L193.4,132.9z"/>
				<path class="st2" d="M193.4,107.9v10.2l-8.6-0.5c0-3,0-6.1,0-9.1c0-0.3-0.2-0.4-0.4-0.4l0-0.4L193.4,107.9z"/>
				<path class="st2" d="M184.1,118.4c0,4.2,0,8.4,0,12.7l-10-1.1c0-2.2,0-4.4,0-6.5c0-1.9,0-3.8,0-5.7L184.1,118.4z"/>
				<path class="st2" d="M173.6,107.3l0,0.3c-0.2,0-0.4,0.1-0.4,0.4c0,2.9,0,5.9,0,8.8l-8.7-0.6c0-3,0-6,0-9c0-0.1,0-0.1,0-0.2
					L173.6,107.3z"/>
				<path class="st2" d="M173.2,137.6c0,1.9,0,3.7,0,5.6l-8.7-1.5c0-3.9,0-7.9,0-11.8l8.7,0.9C173.2,133,173.2,135.3,173.2,137.6z"
					/>
				<path class="st2" d="M163.7,117.1c0,3.9,0,7.9,0,11.9l-8.3-0.9c0-1.9,0-3.9,0-5.8c0-1.9,0-3.8,0-5.7L163.7,117.1z"/>
				<path class="st20" d="M146.6,106.5l8,0.2c0,0,0,0,0,0.1c0,2.9,0,5.9,0,8.8l-8-0.5C146.6,112.3,146.6,109.4,146.6,106.5z"/>
				<path class="st20" d="M154.6,136.3c0,1.2,0,2.5,0,3.7l-8-1.3c0-3.6,0-7.1,0-10.7l8,0.8C154.6,131.3,154.6,133.8,154.6,136.3z"/>
				<path class="st20" d="M145.8,139.4c0,3.2,0,6.3,0,9.5l-8-1.8c0-3,0-6.1,0-9.1L145.8,139.4z"/>
				<path class="st20" d="M145.8,115.9c0,3.7,0,7.4,0,11.1l-8-0.8c0-2.2,0-4.3,0-6.5c0-1.4,0-2.9,0-4.3L145.8,115.9z"/>
				<path class="st20" d="M137,133.8c0,1.1,0,2.2,0,3.3l-7.1-1.2c0-3.2,0-6.4,0-9.7l7.1,0.7C137,129.2,137,131.5,137,133.8z"/>
				<path class="st20" d="M137,106.2c0,2.8,0,5.5,0,8.3l-7.1-0.5c0-2.7,0-5.4,0-8.1L137,106.2z"/>
				<path class="st20" d="M129.1,136.6c0,2.9,0,5.8,0,8.6l-7.3-1.6c0.3-1.2,0.3-2,0.2-8.2L129.1,136.6z"/>
				<path class="st20" d="M129.1,114.8c0,3.5,0,7,0,10.4l-7.4-0.8c-0.1-2.9-0.2-6.2-0.3-10.2L129.1,114.8z"/>
			</g>
		</g>
	</g>
	<g id="XMLID_37_">
		<g>
			<path class="st21" d="M96.3,135.8c0,0-0.2,0.1-0.6,0l0,0l0.1-19.8c0.3,0,0.6,0,0.6,0L96.3,135.8z"/>
			<polygon class="st22" points="95.8,116 95.7,135.8 94.8,135.5 94.8,116 			"/>
			<polygon class="st23" points="100.4,147.6 98.3,147.7 98.3,147 98.3,146.9 100.4,146.8 			"/>
			<polygon class="st24" points="97.9,146.9 98.3,147 98.3,147.7 98.1,147.7 85.1,143.3 85.1,142.6 			"/>
			<polygon class="st24" points="100.4,147.6 100.4,146.8 100.4,106 123.8,106 123.8,176.2 100.4,178.8 			"/>
			<polygon class="st25" points="98.3,147.8 98.3,147.7 100.4,147.6 100.4,178.8 98.8,179 98.5,178.7 			"/>
			<polygon class="st25" points="100.4,106 100.4,146.8 98.3,146.9 98.1,105.9 			"/>
			<polygon class="st8" points="98.1,147.7 98.3,147.8 98.5,178.7 84.9,170.6 85.1,143.3 			"/>
			<path class="st8" d="M95.7,135.8c0.3,0.1,0.6,0,0.6,0l0.1-19.8c0,0-0.3,0-0.6,0h-0.9v19.5L95.7,135.8L95.7,135.8z M98.1,105.9
				l0.2,40.9l-0.5,0l-12.8-4.3l0.2-36.6C85.9,105.9,98.1,105.8,98.1,105.9L98.1,105.9L98.1,105.9z"/>
		</g>
	</g>
	<path class="st26" d="M123.8,143.4c0-0.8-0.1-30.7-0.1-30.7l19-1.7l28.7,44.2L123.8,143.4z"/>
	<polygon class="st27" points="103.3,106 123.8,143.4 123.4,106.8 	"/>
	<g>
		<polygon class="st8" points="173.4,221.7 179.8,225.4 193.7,225.4 193.7,224.4 173.4,214.1 		"/>
		<polygon class="st28" points="173.4,213.2 193.7,223.5 193.7,220.1 175.6,210.9 175.7,180.1 193.7,186.5 193.7,183.5 173.4,176.9 
					"/>
		<polygon class="st8" points="175.6,210.9 193.7,220.1 193.7,186.5 175.7,180.1 		"/>
		<path class="st8" d="M174.5,174.6l19.2,6.2v-6.9l-19.2-5.7V174.6z M184.9,173.6c0.4,0.1,0.8,0.7,0.8,1.3c0,0.6-0.3,0.9-0.7,0.8
			c-0.4-0.1-0.8-0.7-0.8-1.3C184.1,173.8,184.5,173.5,184.9,173.6z"/>
		<path class="st28" d="M184.9,175.6c0.4,0.1,0.7-0.2,0.7-0.8c0-0.6-0.4-1.1-0.8-1.3c-0.4-0.1-0.7,0.2-0.7,0.8
			C184.2,175,184.5,175.5,184.9,175.6z"/>
		<path class="st29" d="M165.7,153.2c-0.2,1.5-0.5,3.6,0.3,4.9c0,0.1,0.1,0.2,0.2,0.4l0,0.1l3.8,0.9c2.2,0.5,5.4,1.2,7.6,0.8
			l7.8-2.1c3.2-0.8,0.3-0.9-2.2-1.4l-15.3-3.3C167,153.3,166.3,153.2,165.7,153.2z"/>
		<path class="st30" d="M176.9,150.8c0.2,0,0.4,0.1,0.5,0.1c0,0.1,0,0.1,0,0.2c0,0,0,0,0,0.1c0.8-0.5,2.5-0.8,3.5-0.8
			c-1-0.9-3.6-1.2-4.4-0.5c0,0.3,0.1,0.6,0.1,0.9C176.7,150.7,176.8,150.7,176.9,150.8z"/>
		<path class="st30" d="M174.3,153.1c-0.2,0.3,0.5,0.4,0.8,0.6c0,0,0,0,0,0c0.5,0.2,1.1,0.2,1.6,0.2c0,0,0,0,0.1,0c0,0,0,0,0,0
			c0.1,0,0.4,0,0.6-0.1c0.2,0,0.4-0.1,0.5-0.1c0-0.2,0-0.4-0.1-0.6c-0.1-0.7-0.4-1.5-0.5-2c0,0,0,0,0-0.1c0-0.1,0-0.1,0-0.2
			c-0.2,0-0.3-0.1-0.5-0.1c-0.1,0-0.2,0-0.2,0c0,0,0,0,0,0c-0.1,0-0.1,0.1-0.2,0.1c-0.3,0.1-0.8,0.1-1.1-0.2c0,0-0.1,0-0.1,0h0
			c0,0-0.1,0-0.1-0.1c0,0,0,0-0.1,0v0h0c0,0,0,0,0,0c-0.5,0.1-0.7,1.7-0.8,1.9C174.3,152.6,174.3,152.9,174.3,153.1
			C174.3,153.1,174.3,153.1,174.3,153.1z"/>
		<polygon class="st28" points="173.4,175.8 193.7,182.4 193.7,180.9 174.5,174.6 174.5,168.3 193.7,173.9 193.7,173 173.4,167.3 		
			"/>
		<path class="st31" d="M173.4,167.3l-0.8-0.2v8.5l-24.4-8v-7.4l-0.8-0.2v7.3l-16.1-5.2v0.1v1l16.1,5.2v31.5l-16.1-8.2v1l16.1,8.2
			v5.8l0.8,0.5v-5.8l24.4,12.4v7.5l0.8,0.5v-7.6l20.3,10.3v-1l-20.3-10.3v-36.3l20.3,6.6v-1.1l-20.3-6.6V167.3z M172.6,212.8
			l-24.4-12.4v-31.7l24.4,8V212.8z"/>
		<polygon class="st8" points="148.1,201.3 148.1,207.1 172.6,221.2 172.6,213.7 		"/>
		<path class="st28" d="M148.1,200.3l24.4,12.4v-36.2l-24.4-8V200.3z M170.3,178.2l-0.5,30.5l-19.5-9.8l-0.1-27.7L170.3,178.2z"/>
		<path class="st32" d="M175.1,150.5C175.2,150.5,175.2,150.6,175.1,150.5c0.1,0.1,0.1,0.1,0.1,0.1h0c0,0,0.1,0,0.1,0
			c0.3,0.3,0.8,0.3,1.1,0.2c0.1,0,0.1-0.1,0.2-0.1c0,0,0,0,0,0c0-0.3-0.1-0.6-0.1-0.9c-0.2-1.4-0.8-6.2-2.6-7.2
			c-3.1-1.6-5.1,0.2-6.1,1.3c-1.1,1.2-1.7,3.6-1.6,4.9c0,0,0,0,0,0v0c0.2,0.3,1,0.3,1.5,0c0,0,0-0.1,0-0.1c0.1-1.2,0.1-2,0.6-3.2
			c1-2.3,3.3-3,4.8-2.1C174.4,144.2,175.1,149.5,175.1,150.5C175.1,150.5,175.1,150.5,175.1,150.5L175.1,150.5L175.1,150.5z"/>
		<path class="st8" d="M171.3,167.2l-21.9-6l-0.1,5.5l21.8,6.9L171.3,167.2z M159.5,168.1c-0.4-0.1-0.8-0.7-0.8-1.3
			c0-0.6,0.3-0.9,0.7-0.8c0.4,0.1,0.8,0.7,0.8,1.3C160.3,167.8,160,168.2,159.5,168.1z"/>
		<path class="st8" d="M169.8,208.7l0.5-30.5l-20.1-7l0.1,27.7L169.8,208.7z M167,190.7c0.4,0.1,0.8,0.7,0.8,1.3
			c0,0.6-0.3,0.9-0.7,0.8c-0.4-0.1-0.8-0.7-0.8-1.3C166.3,190.9,166.6,190.6,167,190.7z"/>
		<path class="st28" d="M167,192.7c0.4,0.1,0.8-0.2,0.7-0.8c0-0.6-0.4-1.1-0.8-1.3c-0.4-0.1-0.7,0.2-0.7,0.8
			C166.3,192.1,166.6,192.6,167,192.7z"/>
		<path class="st33" d="M166,158.1c-0.8-1.3-0.5-3.4-0.3-4.9c-1,0-1.9,0.2-3,0.3l-7.2,1.1c-1.8,0.3-3.2,0.7-1.5,1.1l12.1,2.8l0-0.1
			C166.1,158.3,166,158.2,166,158.1z"/>
		<path class="st28" d="M159.5,166c-0.4-0.1-0.7,0.2-0.7,0.8c0,0.6,0.4,1.1,0.8,1.3c0.4,0.1,0.7-0.2,0.7-0.8
			C160.3,166.7,159.9,166.1,159.5,166z"/>
		<path class="st34" d="M165.5,152.2l-19.2,2.5l29.8,7l15.3-4.4l-14.7-2.9L165.5,152.2z M185.3,158.1l-7.8,2.1
			c-2.2,0.4-5.4-0.3-7.6-0.8l-3.8-0.9l-12.1-2.8c-1.7-0.4-0.3-0.8,1.5-1.1l7.2-1.1c1.1-0.2,2-0.3,3-0.3c0.7,0,1.3,0,2.1,0.2
			l15.3,3.3C185.6,157.2,188.5,157.3,185.3,158.1z"/>
		<path class="st28" d="M172.6,175.5V167l-24.4-6.9v7.4L172.6,175.5z M149.4,161.2l21.9,6l-0.1,6.3l-21.8-6.9L149.4,161.2z"/>
		<polygon class="st34" points="100.9,144.3 100.9,146.9 102.1,147.2 112.6,150.2 131.2,155.4 147.3,159.9 148.1,160.2 172.6,167 
			173.4,167.3 193.7,173 193.7,169.3 110.3,146.8 		"/>
		<polygon class="st8" points="131.2,192.7 131.2,197.3 147.3,206.6 147.3,200.9 		"/>
		<path class="st28" d="M131.2,188.5v3.2l16.1,8.2v-31.5l-16.1-5.2v24.5V188.5z M145.7,169.6l-0.3,27.1l-12.4-6.1l-0.1-25.3
			L145.7,169.6z"/>
		<path class="st8" d="M146.3,160.6l-14-4.1l0,4.7l14.1,4.7L146.3,160.6z M138.9,161.8c-0.4-0.1-0.7-0.6-0.7-1.1
			c0-0.5,0.3-0.8,0.7-0.7c0.4,0.1,0.7,0.6,0.7,1.1C139.6,161.6,139.3,161.9,138.9,161.8z"/>
		<path class="st35" d="M145.9,147.9c-0.3,0.5-2.5,0.8-5.2,0.8c-2.8,0-5.1-0.4-5.2-0.9c-0.1,0.3-0.1,0.7-0.1,0.8
			c0,0.5,2.3,0.9,5.2,0.9c2.9,0,5.5-0.4,5.5-0.9c0-0.1,0-0.4-0.1-0.7c0-0.1,0-0.1-0.1-0.2c0,0,0,0,0,0
			C145.9,147.8,145.9,147.9,145.9,147.9z"/>
		<path class="st8" d="M145.4,196.7l0.3-27.1l-12.8-4.2l0.1,25.3L145.4,196.7z M143.7,181c0.4,0.1,0.7,0.6,0.7,1.1
			c0,0.5-0.3,0.8-0.7,0.7c-0.4-0.1-0.7-0.6-0.7-1.1C143,181.2,143.3,180.9,143.7,181z"/>
		<path class="st8" d="M177.9,153.1c0,0.2,0.1,0.5,0.1,0.6c-0.1,0-0.3,0-0.5,0.1c0,0,0,0,0,0c-0.2,0-0.4,0-0.6,0c0,0,0,0,0,0
			c0,0,0,0-0.1,0c-0.6,0-1.2,0-1.6-0.2c0,0,0,0,0,0c-0.3-0.1-1-0.3-0.8-0.6c0,0,0,0,0,0c0-0.2,0.1-0.5,0.1-0.7l-7.6-1.5l-22.2-4.4
			l-18.3-3.6l-25.4,1.3v0l9.4,2.5l83.4,22.5v-13.1L177.9,153.1z M110.5,145.8l6.7-0.4c0.9-0.2,2.2-0.3,3.8-0.3c0.5,0,1,0,1.4,0
			l6.3-0.4l0.3,0.1c0,0,0,0,0,0c0.3,0,0.7,0,1,0c1.8,0,3.3,0.2,3.4,0.6c0.1,0.1,0.1,0.2,0.1,0.3l6.5,1.2c0.2,0,0.4,0,0.6,0
			c1.4,0,2.7,0.1,3.7,0.3c0.7,0.1,1.2,0.3,1.4,0.5c0,0,0,0,0,0c0.1,0.1,0.1,0.1,0.1,0.2c0,0.1,0,0.1,0.1,0.2l6,1.1l-19.9,2.2
			L110.5,145.8z M176.2,161.8l-29.8-7l19.2-2.5l11.3,2.3l14.7,2.9L176.2,161.8z"/>
		<path class="st28" d="M143.8,182.9c0.4,0.1,0.7-0.2,0.7-0.7c0-0.5-0.3-1-0.7-1.1c-0.4-0.1-0.7,0.2-0.7,0.7
			C143.1,182.2,143.4,182.8,143.8,182.9z"/>
		<path class="st28" d="M138.9,159.9c-0.4-0.1-0.7,0.2-0.7,0.7c0,0.5,0.3,1,0.7,1.1c0.4,0.1,0.7-0.2,0.7-0.7
			C139.6,160.6,139.3,160,138.9,159.9z"/>
		<path class="st36" d="M135.6,147.6c-0.1,0.1-0.1,0.1-0.1,0.2c0,0,0,0,0,0c0.1,0.5,2.4,0.9,5.2,0.9c2.7,0,4.8-0.4,5.2-0.8
			c0,0,0-0.1,0-0.1c0,0,0,0,0,0c0-0.1,0-0.1-0.1-0.2c0,0,0,0,0,0c-0.2-0.2-0.7-0.3-1.4-0.5c-0.9-0.2-2.2-0.3-3.7-0.3
			c-0.2,0-0.4,0-0.6,0C137.9,146.9,136.2,147.2,135.6,147.6L135.6,147.6L135.6,147.6z"/>
		<path class="st35" d="M133.3,145.6c-0.4,0.2-1.7,0.4-3.2,0.4c-1.8,0-3.3-0.3-3.4-0.6c-0.1,0.2,0,0.4,0,0.5c0,0.3,1.5,0.6,3.4,0.6
			c1.9,0,3.6-0.3,3.6-0.6c0,0,0-0.2,0-0.3c0-0.1,0-0.2-0.1-0.3c0,0,0,0,0,0C133.5,145.5,133.4,145.6,133.3,145.6z"/>
		<path class="st28" d="M131.2,162l16.1,5.2v-7.3l-16.1-4.5v6.1V162z M132.3,156.5l14,4.1l0.1,5.4l-14.1-4.7L132.3,156.5z"/>
		<polygon class="st8" points="131.2,191.7 131.2,188.5 112.6,179.7 112.6,182.2 112.6,183.2 112.6,186.6 131.2,197.3 131.2,192.7 
					"/>
		<polygon class="st37" points="112.6,178.9 112.6,179.7 131.2,188.5 131.2,187.7 		"/>
		<path class="st36" d="M130.7,149.2c2.2,0,3.9-0.3,3.9-0.7c0-0.1,0-0.1-0.1-0.2c-0.4-0.3-2-0.5-3.8-0.5c-2.2,0-3.9,0.3-3.9,0.7
			c0,0,0,0,0,0C126.9,148.9,128.6,149.2,130.7,149.2z"/>
		<path class="st38" d="M128.7,158.9c0.6,0,1.1-0.7,1.1-1.6c0-0.1,0-0.1,0-0.2l-1.9,1.3C128.1,158.7,128.3,158.9,128.7,158.9z"/>
		<path class="st38" d="M128.6,155.6c-0.6,0-1.1,0.7-1.1,1.6c0,0.1,0,0.2,0,0.3l1.9-1.3C129.2,155.8,128.9,155.6,128.6,155.6z"/>
		<path class="st39" d="M127.8,158.4L127.8,158.4l1.9-1.3l0.1,0c0.2-0.1,0.3-0.4,0.2-0.7c-0.1-0.3-0.3-0.4-0.5-0.2l-0.1,0l-1.9,1.3
			l0,0c-0.1,0.1-0.2,0.3-0.2,0.5c0,0.1,0,0.2,0,0.2C127.4,158.4,127.7,158.5,127.8,158.4z"/>
		<path class="st36" d="M126.7,145.4C126.7,145.4,126.7,145.5,126.7,145.4C126.7,145.5,126.7,145.5,126.7,145.4
			c0.1,0.4,1.6,0.6,3.4,0.6c1.5,0,2.8-0.2,3.2-0.4c0.1-0.1,0.2-0.1,0.2-0.2c0,0,0,0,0,0c-0.1-0.3-1.6-0.6-3.4-0.6c-0.4,0-0.7,0-1,0
			c0,0,0,0,0,0C127.7,144.9,126.7,145.2,126.7,145.4z"/>
		<path class="st1" d="M127.3,165.7l-11.5-4c-0.6-0.2-1.1,0.5-1.1,1.7v11.4c0,1.1,0.5,2.1,1.1,2.4l10.9,4.9c0.7,0.3,1.7-0.2,1.8-1.3
			l0.1-12.4C128.5,167.1,128,165.9,127.3,165.7z"/>
		<path class="st35" d="M134.5,148.3L134.5,148.3c0.1,0.1,0.1,0.1,0.1,0.2c0,0.4-1.8,0.7-3.9,0.7c-2.1,0-3.8-0.3-3.9-0.7
			c-0.1,0.2-0.1,0.5-0.1,0.6c0,0.4,1.8,0.7,3.9,0.7c2.2,0,4.1-0.3,4.1-0.7C134.8,149,134.7,148.4,134.5,148.3z"/>
		<path class="st38" d="M124.6,157.7c0.6,0,1.1-0.7,1.1-1.6c0-0.1,0-0.1,0-0.2l-1.9,1.3C124,157.5,124.3,157.7,124.6,157.7z"/>
		<path class="st38" d="M124.6,154.3c-0.6,0-1.1,0.7-1.1,1.6c0,0.1,0,0.2,0,0.3l1.9-1.3C125.2,154.6,124.9,154.4,124.6,154.3z"/>
		<path class="st39" d="M123.8,157.2L123.8,157.2l1.9-1.3l0.1,0c0.2-0.1,0.3-0.4,0.2-0.7c-0.1-0.3-0.3-0.4-0.5-0.2l0,0l-1.9,1.3l0,0
			c-0.1,0.1-0.2,0.3-0.2,0.5c0,0.1,0,0.2,0,0.2C123.4,157.2,123.6,157.3,123.8,157.2z"/>
		<path class="st8" d="M112.6,155.8v0.1v1.1v21.8l18.6,8.8v-24.5v-1l-10.1-3.4L112.6,155.8z M129.2,168.1l-0.1,13.5
			c-0.1,1.2-1.2,1.7-2,1.4l-11.9-5.3c-0.7-0.3-1.2-1.5-1.2-2.6v-12.5c0-1.3,0.6-2.1,1.2-1.9l12.6,4.4
			C128.7,165.5,129.3,166.8,129.2,168.1z M129.3,164.6l-14.7-5.2c-0.2-0.1-0.4-0.4-0.4-0.7c0-0.3,0.1-0.5,0.3-0.5c0,0,0.1,0,0.1,0
			l14.7,5.2c0.2,0.1,0.4,0.4,0.4,0.7C129.7,164.5,129.5,164.7,129.3,164.6z"/>
		<path class="st38" d="M119.3,156.1c0.6,0,1.1-0.7,1.1-1.6c0-0.1,0-0.1,0-0.2l-1.9,1.3C118.7,155.9,119,156.1,119.3,156.1z"/>
		<path class="st38" d="M119.3,152.8c-0.6,0-1.1,0.7-1.1,1.6c0,0.1,0,0.2,0,0.3l1.9-1.3C119.9,153,119.6,152.8,119.3,152.8z"/>
		<path class="st39" d="M118.5,155.6L118.5,155.6l1.9-1.3l0.1,0c0.2-0.1,0.3-0.4,0.2-0.7c-0.1-0.3-0.3-0.4-0.5-0.2l-0.1,0l-1.9,1.3
			l0,0c-0.1,0.1-0.2,0.3-0.2,0.5c0,0.1,0,0.2,0,0.2C118.1,155.6,118.3,155.7,118.5,155.6z"/>
		<path class="st36" d="M116.3,146C116.3,146,116.3,146,116.3,146c0.1,0.5,2.2,0.9,4.7,0.9c2.6,0,4.7-0.4,4.7-0.9
			c0-0.1-0.1-0.1-0.1-0.2c-0.4-0.3-1.6-0.5-3.1-0.6c-0.5,0-0.9,0-1.4,0c-1.6,0-2.9,0.1-3.8,0.3C116.6,145.6,116.3,145.8,116.3,146z"
			/>
		<path class="st35" d="M125.7,146c0,0.5-2.1,0.9-4.7,0.9c-2.5,0-4.6-0.4-4.7-0.8c-0.1,0.2-0.1,0.6-0.1,0.7c0,0.5,2.1,0.9,4.7,0.9
			s4.9-0.4,4.9-0.8c0-0.1,0-0.9-0.3-1l0,0C125.7,145.8,125.7,145.9,125.7,146z"/>
		<path class="st1" d="M146,147.9c0.1,0.3,0.1,0.6,0.1,0.7c0,0.5-2.6,0.9-5.5,0.9c-2.9,0-5.2-0.4-5.2-0.9c0-0.1,0-0.5,0.1-0.8
			c0,0,0,0,0,0c0-0.1,0-0.2,0.1-0.2h0c0.5-0.4,2.3-0.7,4.4-0.7l-6.5-1.2c0,0.1,0,0.3,0,0.3c0,0.3-1.7,0.6-3.6,0.6
			c-1.9,0-3.4-0.3-3.4-0.6c0-0.1,0-0.3,0-0.5c0,0,0,0,0,0c0,0,0,0,0,0c0-0.3,1-0.5,2.4-0.6l-0.3-0.1l-6.3,0.4
			c1.5,0.1,2.7,0.3,3.1,0.6l0,0c0.3,0.1,0.3,0.8,0.3,1c0,0.5-2.3,0.8-4.9,0.8s-4.7-0.4-4.7-0.9c0-0.1,0-0.4,0.1-0.7c0,0,0,0,0,0
			c0-0.2,0.3-0.4,0.9-0.5l-6.7,0.4l21.6,5.4l19.9-2.2L146,147.9z M130.6,149.8c-2.2,0-3.9-0.3-3.9-0.7c0-0.1,0-0.4,0.1-0.6
			c0,0,0,0,0,0c0-0.4,1.8-0.7,3.9-0.7c1.8,0,3.4,0.2,3.8,0.5l0,0c0.2,0.1,0.3,0.7,0.3,0.8C134.8,149.5,132.8,149.8,130.6,149.8z"/>
		<path class="st38" d="M115.2,155c0.6,0,1.1-0.7,1.1-1.6c0-0.1,0-0.1,0-0.2l-1.9,1.3C114.6,154.8,114.9,155,115.2,155z"/>
		<path class="st38" d="M115.1,151.7c-0.6,0-1.1,0.7-1.1,1.6c0,0.1,0,0.2,0,0.3l1.9-1.3C115.8,151.9,115.5,151.7,115.1,151.7z"/>
		<path class="st38" d="M129.4,163.5l-14.7-5.2c0,0-0.1,0-0.1,0c-0.2,0-0.3,0.2-0.3,0.5c0,0.3,0.2,0.7,0.4,0.7l14.7,5.2
			c0.2,0.1,0.4-0.1,0.4-0.4C129.7,163.9,129.6,163.5,129.4,163.5z"/>
		<path class="st8" d="M127.9,165.2l-12.6-4.4c-0.7-0.2-1.2,0.6-1.2,1.9v12.5c0,1.2,0.5,2.3,1.2,2.6l11.9,5.3c0.8,0.3,1.9-0.2,2-1.4
			l0.1-13.5C129.3,166.8,128.7,165.5,127.9,165.2z M128.4,180.7c-0.1,1.1-1.1,1.6-1.8,1.3l-10.9-4.9c-0.6-0.3-1.1-1.3-1.1-2.4v-11.4
			c0-1.2,0.5-1.9,1.1-1.7l11.5,4c0.7,0.3,1.3,1.5,1.2,2.7L128.4,180.7z"/>
		<path class="st39" d="M114.4,154.5L114.4,154.5l1.9-1.3l0.1,0c0.2-0.1,0.2-0.4,0.2-0.7c-0.1-0.3-0.3-0.4-0.5-0.2l0,0l-1.9,1.3l0,0
			c-0.1,0.1-0.2,0.3-0.2,0.5c0,0.1,0,0.2,0,0.2C114,154.5,114.2,154.6,114.4,154.5z"/>
		<path class="st8" d="M131.2,161.5v-6.1l-18.6-5.2v5L131.2,161.5z M127.5,157.5L127.5,157.5c0-0.1,0-0.2,0-0.3
			c0-0.9,0.5-1.6,1.1-1.6c0.3,0,0.6,0.2,0.8,0.6l0.1,0c0.2-0.1,0.4,0,0.5,0.2c0.1,0.3,0,0.6-0.2,0.7l-0.1,0c0,0.1,0,0.1,0,0.2
			c0,0.9-0.5,1.6-1.1,1.6c-0.3,0-0.6-0.2-0.8-0.5l0,0c-0.2,0.1-0.4,0-0.5-0.2c0-0.1,0-0.1,0-0.2
			C127.3,157.7,127.4,157.6,127.5,157.5z M123.5,156.2L123.5,156.2c0-0.1,0-0.2,0-0.3c0-0.9,0.5-1.6,1.1-1.6c0.3,0,0.6,0.2,0.8,0.6
			l0,0c0.2-0.1,0.4,0,0.5,0.2c0.1,0.3,0,0.6-0.2,0.7l-0.1,0c0,0.1,0,0.1,0,0.2c0,0.9-0.5,1.6-1.1,1.6c-0.3,0-0.6-0.2-0.8-0.5l0,0
			c-0.2,0.1-0.4,0-0.5-0.2c0-0.1,0-0.2,0-0.2C123.3,156.5,123.3,156.3,123.5,156.2z M118.2,154.7L118.2,154.7c0-0.1,0-0.2,0-0.3
			c0-0.9,0.5-1.6,1.1-1.6c0.3,0,0.6,0.2,0.8,0.6l0.1,0c0.2-0.1,0.4,0,0.5,0.2c0.1,0.3,0,0.6-0.2,0.7l-0.1,0c0,0.1,0,0.1,0,0.2
			c0,0.9-0.5,1.6-1.1,1.6c-0.3,0-0.6-0.2-0.8-0.5l0,0c-0.2,0.1-0.4,0-0.5-0.2c0-0.1,0-0.2,0-0.2C118,154.9,118.1,154.7,118.2,154.7z
			 M114.1,153.6L114.1,153.6c0-0.1,0-0.2,0-0.3c0-0.9,0.5-1.6,1.1-1.6c0.3,0,0.6,0.2,0.8,0.6l0,0c0.2-0.1,0.4,0,0.5,0.2
			c0.1,0.3,0,0.6-0.2,0.7l-0.1,0c0,0.1,0,0.1,0,0.2c0,0.9-0.5,1.6-1.1,1.6c-0.3,0-0.6-0.2-0.8-0.5l0,0c-0.2,0.1-0.4,0-0.5-0.2
			c0-0.1,0-0.2,0-0.2C113.9,153.9,113.9,153.7,114.1,153.6z"/>
		<polygon class="st37" points="112.6,155.2 112.6,155.8 121.1,158.7 131.2,162.2 131.2,162 131.2,161.5 		"/>
		<polygon class="st8" points="102,177.8 102,180.5 112.6,186.6 112.6,183.2 		"/>
		<polygon class="st31" points="112.6,182.2 102,176.9 102,177.8 112.6,183.2 		"/>
		<path class="st28" d="M112.6,179.7v-0.8V157l-10.5-3.4l0,23.2l10.5,5.4V179.7z M111.4,179.2l-8.3-3.8l0-20l8.5,2.9L111.4,179.2z"
			/>
		<polygon class="st40" points="112.6,156 102.1,152.5 102.1,153.6 112.6,157 		"/>
		<path class="st8" d="M103.1,175.4l8.3,3.8l0.2-20.9l-8.5-2.9L103.1,175.4z M109.8,167.2c0.3,0.1,0.6,0.5,0.6,1
			c0,0.4-0.2,0.7-0.6,0.6c-0.3-0.1-0.6-0.5-0.6-1C109.3,167.4,109.5,167.1,109.8,167.2z"/>
		<path class="st25" d="M109.9,168.8c0.3,0.1,0.6-0.2,0.6-0.6c0-0.4-0.3-0.9-0.6-1c-0.3-0.1-0.6,0.2-0.6,0.6
			C109.3,168.3,109.5,168.7,109.9,168.8z"/>
		<path class="st25" d="M107.1,152.1c0.3,0.1,0.6-0.2,0.6-0.6c0-0.4-0.3-0.9-0.6-1c-0.3-0.1-0.6,0.2-0.6,0.6
			C106.6,151.6,106.8,152,107.1,152.1z"/>
		<path class="st8" d="M103.2,152l8.7,2.7l0.1-4.3l-8.8-2.4L103.2,152z M107.1,150.6c0.3,0.1,0.6,0.5,0.6,1c0,0.4-0.3,0.7-0.6,0.6
			c-0.3-0.1-0.6-0.5-0.6-1C106.5,150.7,106.8,150.5,107.1,150.6z"/>
		<path class="st28" d="M112.6,155.8v-0.6v-5l-10.5-2.9l0,5.3l10.5,3.4L112.6,155.8L112.6,155.8z M111.9,154.7l-8.7-2.7l0-4l8.8,2.4
			L111.9,154.7z"/>
	</g>
	<g>
		<path class="st41" d="M136.9,214.7l-7.1,0.9c-0.5,0.1-2.1,0.1-3.2,0l0,0c-1.5-0.1-3.2-0.5-4.2-1.1l-1.7-1.1
			c-0.9-0.6-1-1.2-0.4-1.6c-2.6-1.2-5-2.5-7.1-3.8c-0.7,0.1-1.5,0.1-2.2,0.1l-16.3-0.8c-0.5,0-0.8-0.1-1-0.1
			c-1.2-0.2-1.8-1.2-1.2-1.3l0.6-0.2l0.1,0c-0.3-0.2-0.5-0.4-0.8-0.6c-2.7-1.9,1.2,0.5-1.4-1.5c0.5-0.1,0.7-0.6,1.6-0.4
			c2.5,1.8,1.2,1.4,1.3,1.5l5.8-1.4l-0.1,0.2c-3-1.2-16-6.1-20-7.9c0.5-0.1,0.8-0.9,1.6-0.8c4.2,1.4,19,6,21.8,8.1l3.2,0.2
			c-1-0.8-3-2.9-3.2-3.1l-5.7-6.2c0.5,0,1-0.4,1.8-0.3c0.2,0.2,8,9,9.1,9.8l4.5,0.8c-2.4-0.8-5.6-2.4-5.8-2.7c0,0,0.6-0.8,1.4-0.8
			c0.2,0.2,7,2.3,10.3,3.2l1.1,0.1l0.7,0.5c1.1,0.2,2.6,0.9,2,1.2c0,0.1-0.1,0.2-0.4,0.2l0,0c2.7,1.6,5.8,3.1,9,4.5
			c2.2,0.1,4.1,0.5,5.1,1.1l1.8,1.1C139.2,213.5,138.8,214.4,136.9,214.7z M129.1,210.4c-3-1.3-5.8-2.7-8.4-4.1l-6,1.6
			c2.1,1.2,4.4,2.5,6.8,3.7l6.9-1C128.6,210.5,128.8,210.5,129.1,210.4C129.1,210.5,129.1,210.5,129.1,210.4c0.3,0,0.6,0,0.9,0
			C129.7,210.4,129.4,210.4,129.1,210.4z"/>
	</g>
	<g>
		<path class="st28" d="M112.8,153.2l-8.3-2.7c-0.6-0.2-2.3-0.3-3.2-0.2l0,0c0.4,0,0.9,0,1.4,0.2l8.3,2.7c2.2,0.7,3.8,3.2,3.5,5.6
			l-0.4,3.1c-0.2,1.8-1.4,2.9-2.8,3.1c0.3,0,0.7,0,1,0c2.1-0.2,3.5-1.3,3.7-3.1l0.4-3.1C116.6,156.4,115,153.9,112.8,153.2z"/>
		<path class="st28" d="M108.9,179l-0.2,0l-1.9,0.3l-8.4,1.1l-1.9,0.3l-3.7,0.5c-0.5,0.1-1.1,0-1.7-0.1c-0.8-0.1-1.5-0.4-2.1-0.7
			l-9.6-5.8c-0.5-0.3-0.7-0.6-0.6-0.9c-0.9,0.7-0.3,3.3,0.6,3.8l0.8,0.5l0.1,0.1l1.9,1.1l6.9,4.1c0.5,0.3,1.2,0.5,1.9,0.7
			c0.2,0.1,0.5,0.1,0.7,0.1c0.4,0.1,0.9,0.1,1.2,0l3.7-0.5l1.9-0.2l8-1.1l1.9-0.3l0.6-0.1c0.1,0,0.2-0.1,0.3-0.1
			c0.9-0.5,1.5-2.5,0.5-3.4C109.8,178.7,109.6,178.9,108.9,179z"/>
		<path class="st22" d="M101.3,161.9l8.3,3c0.3,0.1,0.5,0.2,0.7,0.2c0,0,0,0,0,0c0.3,0,0.6,0,0.9,0.1c1.5-0.2,2.6-1.4,2.8-3.1
			l0.4-3.1c0.3-2.4-1.3-4.9-3.5-5.6l-8.3-2.7c-0.5-0.2-0.9-0.2-1.4-0.2c-1.5,0.2-2.6,1.3-2.8,3.1l-0.3,3c-0.2,1.6,0.5,3.4,1.7,4.5
			C100.2,161.4,100.7,161.7,101.3,161.9L101.3,161.9z"/>
		<path class="st22" d="M99.2,172.2l-0.4-0.2c-0.4-0.2-0.8-0.4-1.3-0.5c-0.8-0.2-1.7-0.3-2.3-0.2l-15.4,2c-0.5,0.1-0.7,0.2-0.8,0.4
			c-0.1,0.2,0.1,0.5,0.6,0.9l9.6,5.8c0.5,0.3,1.3,0.6,2.1,0.7c0.6,0.1,1.2,0.2,1.7,0.1l3.7-0.5l1.9-0.3l8.4-1.1l1.9-0.3l0.2,0
			c0.6-0.1,0.9-0.3,0.8-0.6c-0.1-0.2-0.3-0.5-0.8-0.7l0,0l-1.7-0.9L99.2,172.2z"/>
		<path class="st12" d="M99.2,172.2c0.5-3.5,1.2-7,2.1-10.3l0,0c-0.6-0.2-1.1-0.6-1.6-1c-1,3.4-1.8,7-2.3,10.6
			c0.5,0.1,1,0.3,1.3,0.5L99.2,172.2z"/>
		<path class="st12" d="M110.3,165.1c-1.3,3.7-2.4,7.6-3.1,11.6l1.7,0.9c0.7-4.4,1.8-8.6,3.3-12.6c-0.3,0-0.6,0-1,0
			C111,165.1,110.6,165.1,110.3,165.1z"/>
		<path class="st12" d="M106.5,199.7c0.1,0.6,0.2,1.3,0.3,2l0,0c0.6,0.1,1.2,0,1.8-0.3c-0.1-0.6-0.2-1.2-0.3-1.7
			c-0.6-5.2-0.7-10.7-0.2-16.3l-1.9,0.3C105.8,189.1,105.9,194.6,106.5,199.7z"/>
		<path class="st12" d="M97.1,191.9c0.1,0.6,0.2,1.3,0.3,2l0,0c0.6,0.1,1.2,0,1.8-0.3c-0.1-0.6-0.2-1.2-0.3-1.7
			c-0.3-2.3-0.5-4.7-0.5-7.2l-1.9,0.3C96.6,187.4,96.8,189.7,97.1,191.9z"/>
		<path class="st12" d="M91.6,185.7c-0.1,5.8-0.8,11.8-0.9,17.7c0.6,0.2,1.3,0.5,1.9,0c0.1-6,0.8-12.1,0.9-18L91.6,185.7L91.6,185.7
			z"/>
		<path class="st42" d="M79.5,195.9c0.6,0.2,1.3,0.5,1.9,0c0.1-5.1,0.6-10.3,0.8-15.4l-1.9-1C80.1,185,79.6,190.5,79.5,195.9z"/>
		<path class="st42" d="M108.4,182l-1.9,0.3l-8,1.1l-1.9,0.2l-3.7,0.5c-0.4,0-0.8,0-1.2,0l0,1.7l1.9-0.3l3-0.4l1.9-0.3l7.9-1.1
			l1.9-0.3l1-0.1l0-1.5c-0.1,0.1-0.2,0.1-0.3,0.1L108.4,182z"/>
		<path class="st43" d="M91.7,184c-0.2,0-0.5-0.1-0.7-0.1c-0.7-0.1-1.4-0.4-1.9-0.7l-6.9-4.1l-1.9-1.1c0,0.5,0,1.1,0,1.6l1.9,1
			l9.3,5.1l0.1,0l0.1,0L91.7,184z"/>
	</g>
	<path class="st41" d="M16.7,191.5C20.4,194,43.9,225,43.8,225c-0.2,0,60.9-5.1,70.7-6.9c-5.7-4.9-47.6-30.5-51.3-31.8
		c-2.5-0.9,0.7,4.8-1.6,5.6c-5.8,1.9-25.7,8.5-28.2,7.8c-2.6-0.7-13.4-8.5-15.8-9.7L16.7,191.5z"/>
	<g id="XMLID_36_">
		<g>
			<path class="st12" d="M45.1,181.9L45.1,181.9L19.9,160l-6-5.3l-0.1-0.1c0.8,0,40.5-2.6,40.5-2.6l40.8,24.3c0,0,0,0,0,0
				L45.1,181.9z"/>
			<polygon class="st42" points="19.8,162.9 45.1,185.4 45.1,185.5 47.2,185.2 47,189.9 19.7,165.2 			"/>
			<path class="st12" d="M47.2,189.9l-0.2,0l0.2-4.6l45.9-4.9c0,1.6-0.1,4.7-0.1,4.7l-3.4,0.4l-38.7,4.1L47.2,189.9z"/>
			<path class="st42" d="M50.9,189.5l-1.7,31.5c0,0,0,1.1-1,1c-1-0.1-0.9-1-0.9-1l-0.2-31.1L50.9,189.5z"/>
			<path class="st44" d="M47.2,185.2l-2.1,0.2l0,0l0-3.5l49.9-5.5c0.2,0.9,0.2,3.7,0.2,3.7l-2.2,0.2L47.2,185.2z"/>
			<polygon class="st44" points="19.9,160 45.1,181.9 45.1,181.9 45.1,185.4 19.8,162.9 			"/>
			<polygon class="st45" points="19.8,162.9 19.7,165.2 16.3,162.2 16.3,159.9 			"/>
			<polygon class="st45" points="16.3,159.9 16.3,162.2 15.7,161.6 15.7,159.4 			"/>
			<path class="st42" d="M93.2,185l-1.6,30c0,0,0,1.1-1,1c-1-0.1-0.9-1-0.9-1l-0.1-29.6l3.4-0.4L93.2,185z"/>
			<path class="st44" d="M14,157.8c0-0.6-0.2-2.7-0.2-3.1l0,0l6,5.3l-0.2,3l-3.5-3.1l-0.5-0.5L14,157.8z"/>
			<path class="st46" d="M16.3,162.2l3.4,3l-1.4,25.7c0,0,0,1.1-1,1c-1-0.1-0.9-1-0.9-1L16.3,162.2z"/>
		</g>
	</g>
	<g>
		<path class="st47" d="M26.7,166.3l2.9,9.3l2.6-4.6l0.1,0l0.2,0.1l-5.6-4.9C26.9,166.3,26.8,166.3,26.7,166.3z"/>
		<path class="st48" d="M54.2,162.5l-0.2-0.1c-0.9,3.1-5.2,5.5-10.5,5.5c-4.7,0-8.7-1.9-10.1-4.6c-2.6,1.2-5.2,2.3-6.4,2.8l5.6,4.9
			l10.7,2.7l17.6-9.5l0.1-0.2C60.5,164.1,57.6,163.4,54.2,162.5z"/>
	</g>
	<polygon class="st49" points="28.2,153.7 42.7,173.8 69.3,170.7 50.7,152.5 	"/>
	<polygon class="st49" points="54.3,152.1 73.5,170.1 82.8,169 	"/>
	<g>
		<path class="st50" d="M152.8,145.8c0.1,0.1,0.3,0.3,0.6,0.4c0.1,0,0.2,0.1,0.3,0.1c0,0,0,0,0,0c0.1,0,0.1,0.1,0.2,0.1
			c0.1,0,0.2,0,0.2,0.1c0.2,0.1,0.5,0.1,0.7,0.1c0.1,0,0.2,0,0.4,0c0.3,0,0.6,0.1,0.9,0.1c0.1,0,0.1,0,0.2,0c0.1,0,0.1,0,0.2,0
			c0.1,0,0.2,0,0.4,0c0,0,0,0,0.1,0c0.1,0,0.2,0,0.2,0c0.5,0,1.1,0,1.5-0.1c0.1,0,0.2,0,0.3,0c0.3,0,0.5-0.1,0.8-0.1c0,0,0,0,0,0
			c0.1,0,0.2,0,0.2-0.1c0.1,0,0.2-0.1,0.3-0.1c0.1,0,0.1-0.1,0.2-0.1c0.4-0.1,0.6-0.3,0.7-0.4c0,0,0,0,0,0c0.1-0.2,0.1-0.3,0-0.5
			c-0.1-0.1-0.3-0.3-0.6-0.4c-0.1-0.1-0.3-0.1-0.5-0.2c-0.2-0.1-0.3-0.1-0.5-0.1c-0.4-0.1-0.8-0.1-1.3-0.2c-0.4,0-0.9-0.1-1.3-0.1
			c-0.4,0-0.9,0-1.3,0.1c-0.4,0-0.9,0.1-1.3,0.2c-0.2,0-0.4,0.1-0.6,0.1c-0.2,0-0.3,0.1-0.4,0.1c-0.3,0.1-0.5,0.3-0.6,0.4
			C152.7,145.4,152.6,145.6,152.8,145.8C152.7,145.8,152.7,145.8,152.8,145.8z"/>
		<path class="st51" d="M162.4,147.3c0.2,0,0.7,0.1,0.8,0.3h0c-0.1-0.3-0.4-0.6-0.8-0.6c-0.3-0.1-0.6,0-0.9,0.1l-0.1,0.4
			C161.7,147.3,162,147.3,162.4,147.3z"/>
		<path class="st52" d="M163.2,147.6L163.2,147.6c-0.1-0.2-0.6-0.3-0.8-0.3c-0.3,0-0.7,0.1-1,0.2l-0.2,0.7c0.3-0.1,0.6-0.2,0.8-0.2
			l0,0c0.6,0.1,0.6,1,0.3,1.4c-0.2,0.3-0.5,0.5-0.9,0.7c-0.2,0.1-0.5,0.1-0.7,0.3l-0.1,0.6c0,0,0,0,0,0.1c1.6-0.2,2.8-0.9,2.7-2.4
			C163.3,148.1,163.3,147.8,163.2,147.6z"/>
		<path class="st51" d="M162.3,148.6c0,0.3-0.3,0.8-0.6,1c-0.2,0.2-0.6,0.3-0.9,0.3l-0.1,0.4c0.2-0.1,0.5-0.1,0.7-0.3
			c0.4-0.2,0.7-0.4,0.9-0.7c0.2-0.4,0.3-1.3-0.3-1.4l0,0C162.2,148,162.3,148.2,162.3,148.6z"/>
		<path class="st53" d="M160.7,150.2l0.1-0.4l0.4-1.8l0.2-0.7l0.1-0.4l0.1-0.4l0.1-0.9c0,0,0,0,0,0c0,0,0,0,0,0c0,0,0,0,0,0
			c-0.1,0.4-0.2,1-0.3,1c0,0,0,0,0,0c0,0,0,0,0,0c-0.1,0.1-0.3,0.3-0.6,0.4c-0.2,0.1-0.5,0.2-0.7,0.3c-0.2,1.8-1.3,4.2-3.6,4.2
			c-0.9,0-1.7-0.3-2.4-0.8c-0.3-0.3-0.6-0.6-0.8-1c-0.1-0.2-0.3-0.5-0.4-0.7c0.1,0.5,0.2,1,0.3,1.5c0,0.1,0,0.2,0.1,0.3
			c0,0.1,0.1,0.2,0.1,0.3c0.1,0.1,0.5,1,3.5,1.1c3.1,0.1,3.6-1.4,3.6-1.5c0-0.1,0.1-0.1,0.1-0.2c0,0,0,0,0-0.1L160.7,150.2z"/>
		<path class="st8" d="M152.5,145.8C152.5,145.8,152.5,145.8,152.5,145.8c0.1,0.1,0.1,0.2,0.2,0.2c0,0,0,0,0,0c0,0,0,0,0,0
			c0.1,0,0.1,0.1,0.2,0.1c0.1,0,0.1,0.1,0.2,0.1c0,0,0,0,0,0c0,0,0,0,0.1,0c0.1,0,0.2,0.1,0.4,0.1c0.2,0.1,0.3,0.1,0.5,0.1
			c0.2,0.1,0.5,0.1,0.7,0.1c0,0,0,0,0,0c0.7,0.1,1.4,0.2,2.2,0.2c0.8,0,1.5,0,2.2-0.1c0,0,0,0,0.1,0c0.3,0,0.5-0.1,0.8-0.1
			c0,0,0.1,0,0.1,0c0.2-0.1,0.4-0.1,0.5-0.2c0.1,0,0.1,0,0.2-0.1c0.2-0.1,0.4-0.2,0.6-0.3c0,0,0,0,0,0c0,0,0,0,0,0
			c0,0,0.1-0.1,0.1-0.1c0,0,0,0,0,0c0,0,0,0,0,0c0,0,0,0,0,0c0,0,0,0,0,0c0,0,0,0,0,0c0,0,0,0,0,0c0,0,0,0,0,0c0,0,0,0,0,0
			c0,0,0-0.1,0-0.1c0,0,0,0,0,0c0-0.1,0-0.2-0.1-0.3c-0.1-0.2-0.3-0.3-0.7-0.4c-0.3-0.1-0.7-0.2-1.1-0.3c-0.4-0.1-0.9-0.2-1.3-0.2
			c-0.5,0-0.9-0.1-1.4-0.1c-0.5,0-0.9,0-1.4,0.1c-0.5,0-0.9,0.1-1.4,0.2c-0.4,0.1-0.8,0.2-1.1,0.3c-0.3,0.1-0.5,0.3-0.7,0.4
			C152.4,145.4,152.4,145.6,152.5,145.8C152.4,145.8,152.4,145.8,152.5,145.8C152.4,145.8,152.5,145.8,152.5,145.8z M152.8,145.3
			c0.1-0.1,0.3-0.3,0.6-0.4c0.1,0,0.3-0.1,0.4-0.1c0.2-0.1,0.4-0.1,0.6-0.1c0.4-0.1,0.8-0.1,1.3-0.2c0.4,0,0.9,0,1.3-0.1
			c0.4,0,0.9,0,1.3,0.1c0.4,0,0.9,0.1,1.3,0.2c0.2,0,0.4,0.1,0.5,0.1c0.2,0.1,0.3,0.1,0.5,0.2c0.3,0.1,0.5,0.3,0.6,0.4
			c0.1,0.1,0.1,0.3,0,0.5c0,0,0,0,0,0c-0.1,0.2-0.3,0.3-0.7,0.4c0,0-0.1,0.1-0.2,0.1c-0.1,0-0.2,0.1-0.3,0.1c-0.1,0-0.2,0-0.2,0.1
			c0,0,0,0,0,0c-0.2,0-0.5,0.1-0.8,0.1c-0.1,0-0.2,0-0.3,0c-0.5,0-1,0.1-1.5,0.1c-0.1,0-0.2,0-0.2,0c0,0,0,0-0.1,0
			c-0.1,0-0.3,0-0.4,0c-0.1,0-0.1,0-0.2,0c-0.1,0-0.1,0-0.2,0c-0.3,0-0.6,0-0.9-0.1c-0.1,0-0.2,0-0.4,0c-0.3,0-0.5-0.1-0.7-0.1
			c-0.1,0-0.2,0-0.2-0.1c-0.1,0-0.2-0.1-0.2-0.1c0,0,0,0,0,0c-0.1,0-0.2-0.1-0.3-0.1c-0.3-0.1-0.5-0.3-0.6-0.4c0,0,0-0.1-0.1-0.1
			C152.6,145.6,152.7,145.4,152.8,145.3z"/>
		<path class="st52" d="M154.1,151c0.7,0.5,1.4,0.8,2.4,0.8c2.3,0,3.4-2.4,3.6-4.2c0.3-0.1,0.5-0.2,0.7-0.3c0.2-0.1,0.4-0.3,0.6-0.4
			c0,0,0,0,0,0c0,0,0,0,0,0c0,0,0.2-0.6,0.3-1c0,0,0,0,0,0c0,0,0,0,0,0c0,0,0,0,0,0c0,0,0,0,0,0c0,0-0.1,0.1-0.1,0.1c0,0,0,0,0,0
			c0,0,0,0,0,0c-0.1,0.1-0.3,0.2-0.6,0.3c-0.1,0-0.1,0-0.2,0.1c-0.2,0.1-0.3,0.1-0.5,0.2c0,0-0.1,0-0.1,0c-0.2,0.1-0.5,0.1-0.8,0.1
			c0,0,0,0-0.1,0c-0.7,0.1-1.4,0.1-2.2,0.1c-0.8,0-1.5-0.1-2.2-0.2c0,0,0,0,0,0c-0.3,0-0.5-0.1-0.7-0.1c-0.2,0-0.4-0.1-0.5-0.1
			c-0.1,0-0.2-0.1-0.4-0.1c0,0,0,0-0.1,0c0,0,0,0,0,0c-0.1,0-0.2-0.1-0.2-0.1c-0.1,0-0.1-0.1-0.2-0.1c0,0,0,0,0,0c0,0,0,0,0,0
			c-0.1-0.1-0.1-0.1-0.2-0.2c0,0,0,0,0,0c0,0,0,0,0,0c0,0,0,0,0-0.1c0,0,0-0.1,0-0.1c0.2,1,0.3,2.7,0.5,3.7c0.1,0.3,0.3,0.5,0.4,0.7
			C153.5,150.4,153.8,150.8,154.1,151z"/>
	</g>
	<g id="XMLID_35_">
		<g>
			<path class="st50" d="M134.8,143.1c-0.5,0-0.6,0.5-0.2,0.6c0.1,0,0.2,0,0.3,0c0,0.2,0.1,0.5,0.1,0.7c-0.7-0.1-1.3-0.2-1.7-0.6
				c-0.7-0.7,0.4-1.3,1.4-1.2l0,0C134.7,142.8,134.7,142.9,134.8,143.1z"/>
			<path class="st50" d="M148.3,142.9c0.1,0.6-0.9,1-1.6,1.1l0.1-0.2l0.1-0.4c0.2,0,0.5-0.1,0.5-0.3c0-0.2-0.2-0.3-0.3-0.3l0.1-0.3
				l0.1-0.4C147.6,142,148.2,142.4,148.3,142.9z"/>
			<path class="st52" d="M140.1,137.8c-0.1,0.3,0,0.7-0.2,0.9c-0.1,0.1-0.2,0.1-0.4,0.1c-0.2,0-0.4-0.1-0.5-0.2c0-0.2,0-0.5,0.1-0.8
				C139.4,137.8,139.8,137.8,140.1,137.8z"/>
			<path class="st52" d="M140.5,136.6c1,0,1.4,0.6,1.6,1.3c-0.2,0-0.5-0.1-0.8-0.1c0,0,0,0,0-0.1c-0.2-0.5-0.8-0.5-1.1-0.1
				c0,0-0.1,0.1-0.1,0.2c-0.3,0-0.7,0-1,0.1C139.3,137.2,139.8,136.6,140.5,136.6z"/>
			<path class="st50" d="M135.5,139.5c-0.5,0.1-0.8,0.3-1,0.5c-0.1,0.1-0.1,0.2-0.2,0.2c0,0,0-0.1,0-0.1c0-1,2-2,4.8-2.2
				c-0.1,0.3-0.1,0.5-0.1,0.8c0.1,0.1,0.3,0.2,0.5,0.2l0,0.1c-0.2,0-0.3,0-0.5,0c-0.7,0-1.3,0.1-1.9,0.2
				C136.5,139.2,136,139.3,135.5,139.5z"/>
			<path class="st53" d="M147,142.1c0.1-0.2,0.2-0.8,0.3-1.1c0,0,0,0,0,0c0,0,0,0,0,0c0,0,0,0,0,0l-0.1,1l0,0.2
				C147,142.1,147,142.1,147,142.1z"/>
			<path class="st50" d="M140.9,142C140.9,142,140.9,141.9,140.9,142c-0.3,0-0.4,0-0.6,0c-0.1,0-0.2,0-0.3,0c-0.1,0-0.2,0-0.3,0
				c-0.4,0-0.9-0.1-1.3-0.1c-0.2,0-0.3,0-0.5-0.1c-0.4-0.1-0.7-0.1-1-0.2c-0.1,0-0.2-0.1-0.3-0.1c-0.1,0-0.2-0.1-0.3-0.1
				c0,0,0,0-0.1,0c-0.1,0-0.3-0.1-0.4-0.1c-0.5-0.2-0.8-0.4-0.9-0.5c0,0-0.1-0.1-0.1-0.1c-0.1-0.2-0.1-0.4,0.1-0.6
				c0.2-0.2,0.5-0.3,0.9-0.5c0.2,0,0.4-0.1,0.6-0.2c0.3-0.1,0.6-0.1,0.9-0.1c0.6-0.1,1.2-0.1,1.8-0.1c0.6,0,1.2,0,1.9,0
				c0.6,0,1.2,0.1,1.8,0.1c0.6,0.1,1.2,0.2,1.7,0.3c0.3,0.1,0.5,0.1,0.7,0.2c0.2,0.1,0.5,0.2,0.7,0.2c0.4,0.2,0.7,0.3,0.8,0.5
				c0.2,0.2,0.2,0.4,0.1,0.6c0,0,0,0,0,0c-0.1,0.2-0.4,0.3-0.9,0.5c-0.1,0-0.1,0.1-0.3,0.1c-0.1,0.1-0.3,0.1-0.5,0.1
				c-0.1,0-0.2,0-0.3,0.1c0,0,0,0,0,0c-0.3,0.1-0.7,0.1-1,0.1c-0.1,0-0.3,0-0.5,0c-0.6,0-1.4,0-2.1,0C141.2,142,141,142,140.9,142z"
				/>
			<path class="st52" d="M142.1,137.9c0,0.2,0.1,0.4,0.1,0.6c-0.2,0.2-0.6,0.2-0.8,0c0-0.2,0-0.5,0-0.7
				C141.6,137.9,141.8,137.9,142.1,137.9z"/>
			<path class="st50" d="M143,139.1c-0.6-0.1-1.3-0.1-1.9-0.1c-0.5,0-1,0-1.5,0l0-0.1c0.2,0,0.3,0,0.4-0.1c0.2-0.2,0.1-0.6,0.2-0.9
				c0.3,0,0.5,0,0.8,0c0.1,0,0.3,0,0.4,0c0.1,0.2,0.1,0.5,0,0.7c0.2,0.1,0.6,0.1,0.8,0c0-0.2,0-0.4-0.1-0.6c2.8,0.4,5,1.6,5.1,2.6
				c0,0,0-0.1-0.1-0.1c-0.2-0.2-0.5-0.4-0.9-0.5c-0.4-0.2-0.9-0.3-1.5-0.4C144.2,139.3,143.6,139.2,143,139.1z"/>
			<path class="st53" d="M135.5,146.9c-0.1-0.6-0.3-1.3-0.4-1.9c0.1,0.3,0.4,0.6,0.6,0.9c0.3,0.4,0.7,0.9,1.1,1.2c1,0.6,2.1,1,3.4,1
				c3.2,0,4.7-2.9,5-5.1c0.4-0.1,0.7-0.2,1-0.4c0.3-0.2,0.6-0.3,0.8-0.5c0,0,0,0,0,0c0,0,0,0,0,0c0,0,0,0,0-0.1c0,0,0.1,0,0.1,0
				l-0.1,0.4l-0.1,0.3l-0.1,0.2l-0.1,0.4l-0.1,0.4l-0.1,0.2l-0.5,1.9l-0.1,0.4l-0.2,0.7c0,0,0,0.1,0,0.1c0,0.1-0.1,0.2-0.1,0.3
				c-0.1,0.1-0.7,1.9-5,1.8c-4.3-0.1-4.9-1.3-5-1.4c-0.1-0.1-0.2-0.2-0.2-0.3C135.5,147.2,135.5,147.1,135.5,146.9z"/>
			<path class="st50" d="M137,144.3c-0.6,0.1-1.3,0.2-2,0.1c0-0.2-0.1-0.4-0.1-0.7c0.5,0.1,1.2,0,1.5-0.1v0
				C136.8,143.6,137.3,144,137,144.3z"/>
			<path class="st50" d="M134.8,140.5c0,0,0,0.1,0.1,0.1c0.2,0.2,0.5,0.4,0.9,0.5c0.1,0,0.2,0.1,0.4,0.1c0,0,0,0,0.1,0
				c0.1,0,0.2,0.1,0.3,0.1c0.1,0,0.2,0.1,0.3,0.1c0.3,0.1,0.7,0.1,1,0.2c0.2,0,0.3,0,0.5,0.1c0.4,0.1,0.8,0.1,1.3,0.1
				c0.1,0,0.2,0,0.3,0c0.1,0,0.2,0,0.3,0c0.2,0,0.3,0,0.5,0c0,0,0.1,0,0.1,0c0.1,0,0.2,0,0.3,0c0.7,0,1.5,0,2.1,0c0.2,0,0.3,0,0.5,0
				c0.4,0,0.7-0.1,1-0.1c0,0,0,0,0,0c0.1,0,0.2-0.1,0.3-0.1c0.2,0,0.3-0.1,0.5-0.1c0.1,0,0.2-0.1,0.3-0.1c0.5-0.2,0.8-0.3,0.9-0.5
				c0,0,0,0,0,0c0.1-0.2,0.1-0.4-0.1-0.6c-0.2-0.2-0.4-0.3-0.8-0.5c-0.2-0.1-0.4-0.2-0.7-0.2c-0.2-0.1-0.5-0.1-0.7-0.2
				c-0.5-0.1-1.1-0.2-1.7-0.3c-0.6-0.1-1.2-0.1-1.8-0.1c-0.6,0-1.2,0-1.9,0c-0.6,0-1.2,0.1-1.8,0.1c-0.3,0-0.6,0.1-0.9,0.1
				c-0.2,0-0.4,0.1-0.6,0.2c-0.4,0.1-0.7,0.3-0.9,0.5C134.7,140.1,134.7,140.3,134.8,140.5z M134.4,140.2c0-0.1,0.1-0.2,0.2-0.2
				c0.2-0.2,0.5-0.3,1-0.5c0.4-0.1,1-0.3,1.6-0.3c0.6-0.1,1.3-0.1,1.9-0.2c0.2,0,0.3,0,0.5,0c0.5,0,1,0,1.5,0c0.7,0,1.3,0.1,1.9,0.1
				c0.6,0.1,1.3,0.2,1.8,0.3c0.6,0.1,1.1,0.3,1.5,0.4c0.4,0.2,0.7,0.4,0.9,0.5c0,0,0.1,0.1,0.1,0.1c0,0,0,0.1,0,0.1
				c0.1,0.9-2.8,1.5-6.3,1.4C137.7,141.9,134.5,141.3,134.4,140.2z"/>
			<path class="st52" d="M134.4,140.6C134.4,140.6,134.5,140.6,134.4,140.6c0.1,0.1,0.2,0.2,0.3,0.3c0,0,0,0,0,0c0,0,0,0,0,0
				c0.1,0.1,0.2,0.1,0.2,0.1c0.1,0,0.2,0.1,0.3,0.2c0,0,0,0,0,0c0,0,0.1,0,0.1,0c0.2,0.1,0.3,0.1,0.5,0.2c0.2,0.1,0.5,0.1,0.7,0.2
				c0.3,0.1,0.7,0.1,1.1,0.2c0,0,0,0,0,0c0.9,0.2,2,0.2,3,0.3c1,0,2.1,0,3-0.1c0,0,0.1,0,0.1,0c0.4,0,0.7-0.1,1.1-0.1
				c0.1,0,0.1,0,0.2,0c0.2-0.1,0.5-0.1,0.7-0.2c0.1,0,0.2,0,0.3-0.1c0.3-0.1,0.6-0.2,0.7-0.3c0,0,0,0,0,0c0,0,0,0,0,0
				c0.1-0.1,0.1-0.1,0.2-0.1c0,0,0,0,0,0c0,0,0,0,0,0c0,0,0,0,0,0c0,0,0,0,0,0c-0.1,0.4-0.2,0.9-0.3,1.1c0,0,0,0.1,0,0.1
				c0,0,0,0,0,0c0,0,0,0,0,0c-0.2,0.2-0.4,0.3-0.8,0.5c-0.3,0.2-0.6,0.3-1,0.4c-0.2,2.1-1.8,5.1-5,5.1c-1.3,0-2.4-0.4-3.4-1
				c-0.5-0.3-0.8-0.8-1.1-1.2c-0.2-0.3-0.4-0.6-0.6-0.9c0-0.2-0.1-0.4-0.1-0.6c0.7,0.1,1.4,0,2-0.1c0.3-0.3-0.2-0.7-0.6-0.7v0
				c-0.3,0.1-1,0.2-1.5,0.1c0-0.2-0.1-0.4-0.1-0.6c0-0.2-0.1-0.4-0.1-0.5c-0.1-0.8-0.2-1.6-0.3-2.1c0,0,0,0,0,0.1
				C134.4,140.5,134.4,140.6,134.4,140.6C134.4,140.6,134.4,140.6,134.4,140.6z"/>
			<path class="st8" d="M134.5,140.7C134.5,140.6,134.4,140.6,134.5,140.7C134.4,140.6,134.4,140.6,134.5,140.7
				c-0.1-0.1-0.1-0.1-0.1-0.2c0-0.1,0-0.2,0-0.3c0.2,1.1,3.3,1.7,6.5,1.8c3.5,0.1,6.4-0.5,6.3-1.4c0,0,0-0.1,0-0.1
				c0,0.1,0.1,0.2,0.1,0.2c0,0,0,0,0,0c0,0,0,0.1,0,0.1c0,0,0,0,0,0c0,0,0,0,0,0c0,0,0,0,0,0c0,0,0,0,0,0c0,0,0,0,0,0c0,0,0,0,0,0
				c0,0,0,0,0,0c0,0,0,0,0,0c0,0,0,0,0,0c0,0-0.1,0.1-0.2,0.1c0,0,0,0,0,0c0,0,0,0,0,0c-0.2,0.1-0.4,0.2-0.7,0.3
				c-0.1,0-0.2,0.1-0.3,0.1c-0.2,0.1-0.4,0.1-0.7,0.2c-0.1,0-0.1,0-0.2,0c-0.3,0.1-0.7,0.1-1.1,0.1c0,0,0,0-0.1,0
				c-0.9,0.1-1.9,0.1-3,0.1c-1,0-2.1-0.1-3-0.3c0,0,0,0,0,0c-0.4-0.1-0.7-0.1-1.1-0.2c-0.3-0.1-0.5-0.1-0.7-0.2
				c-0.2-0.1-0.4-0.1-0.5-0.2c0,0-0.1,0-0.1,0c0,0,0,0,0,0c-0.1-0.1-0.2-0.1-0.3-0.2c-0.1,0-0.2-0.1-0.2-0.1c0,0,0,0,0,0
				c0,0,0,0,0,0C134.6,140.8,134.5,140.7,134.5,140.7z"/>
		</g>
	</g>
	<path class="st54" d="M39.5,157.3c-0.1,0-0.2,0-0.3,0.1c0.1,0.1,0.2,0.1,0.3,0.2C39.5,157.4,39.5,157.4,39.5,157.3z"/>
	<path class="st55" d="M46.9,157.7c-0.2,0-0.3,0-0.5-0.1c0,0.4-0.2,0.8-0.3,1.1C46.3,158.3,46.5,158,46.9,157.7z"/>
	<path class="st55" d="M46.1,158.8c-0.2,0.4-0.4,0.7-0.7,1c0.1,0.1,0.2,0.2,0.4,0.4C45.8,159.6,45.9,159.2,46.1,158.8z"/>
	<path class="st55" d="M46.6,162.5c0,0.2,0,0.3-0.1,0.5c0.2,0,0.3,0,0.5-0.1C46.9,162.8,46.7,162.7,46.6,162.5z"/>
	<path class="st55" d="M52.5,161.2c0.3-0.3,0.4-0.6,0.4-0.9c0-0.3-0.1-0.5-0.4-0.8c0,0.2,0.1,0.5,0.1,0.7
		C52.6,160.6,52.6,160.9,52.5,161.2z"/>
	<path class="st54" d="M46.4,157.6c0.2,0,0.3,0,0.5,0.1c0.2-0.2,0.4-0.3,0.6-0.4c-0.3,0-0.7-0.1-1.1-0.1c0,0,0,0.1,0,0.1
		C46.4,157.4,46.4,157.5,46.4,157.6z"/>
	<path class="st54" d="M43.5,163.8c5.8,0,10.4-1.5,10.4-3.4c0-0.1,0-0.3-0.1-0.4c-0.2-0.6-0.8-1.1-1.8-1.5c0.2,0.3,0.3,0.7,0.4,1.1
		c0.2,0.3,0.4,0.5,0.4,0.8c0,0.3-0.2,0.6-0.4,0.9c-0.9,0.8-2.9,1.5-5.4,1.8c-0.2,0-0.3,0-0.5,0.1c-1,0.1-2,0.2-3.1,0.2
		c-1.3,0-2.6-0.1-3.7-0.2c-3.1-0.4-5.4-1.3-5.7-2.3c0-0.1,0-0.2,0-0.3c0-0.1,0-0.2,0-0.3c0-0.5,0.2-0.9,0.4-1.3
		c-0.8,0.5-1.3,1-1.3,1.5c0,0,0,0.1,0,0.1C33.1,162.3,37.8,163.8,43.5,163.8z"/>
	<path class="st22" d="M43.5,168c5.2,0,9.6-2.4,10.5-5.5c0.1-0.4,0.2-0.8,0.2-1.2c0-0.4-0.1-0.9-0.2-1.3l0,0c0,0.1,0.1,0.3,0.1,0.4
		c0,1.9-4.7,3.4-10.4,3.4c-5.8,0-10.4-1.5-10.4-3.4c0,0,0-0.1,0-0.1l-0.1,0c-0.1,0.3-0.1,0.7-0.1,1c0,0.7,0.2,1.4,0.5,2.1
		C34.8,166,38.8,168,43.5,168z"/>
	<path class="st56" d="M39.8,157.7c0.6,0.5,1,1.2,1.1,2.1c0.6-0.5,1.4-0.9,2.3-0.9c0.8,0,1.6,0.3,2.2,0.8c0.3-0.3,0.5-0.6,0.7-1
		c0.2-0.3,0.3-0.7,0.3-1.1c0-0.1,0-0.3,0-0.4c0,0,0-0.1,0-0.1c-0.1-1.9-1.6-3.3-3.4-3.3c-1.9,0-3.4,1.5-3.4,3.4c0,0,0,0,0,0
		c0,0.1,0,0.2,0,0.3C39.6,157.6,39.7,157.6,39.8,157.7z"/>
	<path class="st57" d="M46.1,158.8c-0.2,0.4-0.3,0.8-0.3,1.3c0.6,0.6,0.9,1.4,0.9,2.3c0,0.1,0,0.1,0,0.2c0.1,0.2,0.3,0.3,0.5,0.4
		c2.6-0.3,4.6-1,5.4-1.8c0.1-0.3,0.1-0.6,0.1-1c0-0.2,0-0.5-0.1-0.7c-0.1-0.4-0.2-0.7-0.4-1.1c-0.6-1-1.7-1.7-3-1.7
		c-0.6,0-1.2,0.2-1.7,0.5c-0.2,0.1-0.4,0.3-0.6,0.4C46.5,158,46.3,158.3,46.1,158.8z"/>
	<path class="st57" d="M34.1,160.3c0,0.1,0,0.2,0,0.3c0.4,1.1,2.6,1.9,5.7,2.3c0-0.2-0.1-0.4-0.1-0.6c0-1,0.5-2,1.2-2.6
		c-0.1-0.8-0.5-1.5-1.1-2.1c-0.1-0.1-0.1-0.1-0.2-0.2c-0.1-0.1-0.2-0.2-0.3-0.2c-0.5-0.3-1.1-0.4-1.7-0.4c-1.3,0-2.5,0.8-3.1,1.9
		c-0.2,0.4-0.3,0.9-0.4,1.3C34.1,160.1,34.1,160.2,34.1,160.3z"/>
	<path class="st58" d="M46.6,162.4c0-0.9-0.3-1.7-0.9-2.3c-0.1-0.1-0.2-0.2-0.4-0.4c-0.6-0.5-1.4-0.8-2.2-0.8
		c-0.9,0-1.7,0.3-2.3,0.9c-0.7,0.6-1.2,1.6-1.2,2.6c0,0.2,0,0.4,0.1,0.6c1.1,0.1,2.4,0.2,3.7,0.2c1.1,0,2.1-0.1,3.1-0.2
		c0-0.2,0.1-0.3,0.1-0.5C46.6,162.5,46.6,162.4,46.6,162.4z"/>
	<path class="st59" d="M79.1,166.2c0.2,0.3,0,0.7-0.3,0.9c-0.3,0.3-1,0.8-1.4,0.8c0-0.1,0-0.3,0.1-0.5c0.5-0.2,1.3-0.3,1.3-1
		c0-0.2-0.1-0.4-0.2-0.5C78.8,166,79,166,79.1,166.2z"/>
	<path class="st60" d="M77.8,165.2c1-0.9,2.5,0,2.1,1.4c-0.2,0.6-0.8,1.1-1.4,1.3c-0.3,0.2-0.7,0.3-1,0.3l-0.1,0c0-0.1,0-0.2,0-0.3
		l0,0c0.5,0,1.2-0.5,1.4-0.8c0.2-0.2,0.5-0.7,0.3-0.9c-0.1-0.2-0.3-0.2-0.5-0.3c-0.2-0.2-0.6-0.1-0.9,0.1
		C77.7,165.7,77.7,165.4,77.8,165.2z"/>
	<path class="st61" d="M73.7,166.1c1.1,0,2.1-0.1,2.8-0.4c0.7-0.3,1.2-0.5,1.2-1c0,0,0.1,0.1,0,0.5c0,0.3-0.1,0.5-0.1,0.8
		c-0.1,0.5-0.1,1-0.2,1.4c0,0.2,0,0.3-0.1,0.5l0,0c0,0.1,0,0.3,0,0.3c0,0.1,0,0.1,0,0.1c0,0,0,0.1,0,0.1c-0.1,0.6-0.9,1.1-1.9,1.4
		c0,0,0,0,0,0c-0.7-0.1-1.4-0.3-2.1-0.8c-1.3-0.9-1.6-1.8-1.6-3.2C72.3,166,73,166.1,73.7,166.1z"/>
	<path class="st62" d="M73.7,165.8c-0.9,0-1.8-0.2-2.4-0.4c0.7-0.3,1.6-0.3,2.5-0.3c0.7,0,1.9,0,2.5,0.4
		C75.6,165.7,74.7,165.8,73.7,165.8z"/>
	<path class="st63" d="M73.9,164.5c1.4,0,2.5,0.3,3.1,0.7c-0.2,0.1-0.4,0.2-0.7,0.3c-0.6-0.4-1.8-0.4-2.5-0.4
		c-0.8,0-1.7-0.1-2.5,0.3c-0.3-0.1-0.5-0.2-0.7-0.3C71.1,164.7,72.4,164.4,73.9,164.5z"/>
	<path class="st64" d="M76.5,165.8c-0.7,0.3-1.7,0.4-2.8,0.4c-0.7,0-1.4-0.1-1.9-0.3c-0.3-0.1-0.5-0.1-0.7-0.3
		c0.1-0.1,0.2-0.2,0.3-0.3c-0.1-0.1,0.9,0.3,2.4,0.4c1,0,1.9-0.1,2.6-0.3C76.4,165.6,76.5,165.7,76.5,165.8z"/>
	<path class="st65" d="M78.3,169.4c0,0.8-2.1,1.4-4.6,1.3c-2.5-0.1-4.5-0.8-4.5-1.5c0-0.3,0.3-0.6,0.9-0.8c0.1,0.9,1.7,1.6,3.6,1.7
		c0.6,0,1.2,0,1.7-0.2c0,0,0,0,0,0c1.1-0.3,1.9-0.8,1.9-1.4C77.9,168.7,78.3,169,78.3,169.4z"/>
	<path class="st59" d="M73.7,163.6c1.9,0.1,3.4,0.6,3.4,1.2c0,0.1-0.1,0.3-0.2,0.4c-0.6-0.4-1.7-0.7-3.1-0.7c-1.5,0-2.8,0.2-3.3,0.6
		c-0.2-0.2-0.4-0.3-0.4-0.5C70.3,164,71.8,163.5,73.7,163.6z"/>
	<path class="st64" d="M73.8,163.3c2.1,0.1,3.9,0.7,4,1.4c0,0,0,0.1,0,0.1c0,0.4-0.5,0.7-1.2,0.9c-0.1-0.1-0.1-0.2-0.2-0.2
		c0.3-0.1,0.5-0.2,0.7-0.3c0.1-0.1,0.2-0.2,0.2-0.4c0-0.6-1.5-1.1-3.4-1.2c-1.9,0-3.5,0.4-3.5,1c0,0.2,0.1,0.3,0.4,0.5
		c0.2,0.1,0.4,0.2,0.7,0.3c-0.1,0.1-0.1,0.2-0.1,0.3c-0.8-0.3-1.5-0.7-1.4-1.1C69.7,163.8,71.5,163.3,73.8,163.3z"/>
	<path class="st66" d="M75.4,169.9c-0.5,0.1-1.1,0.2-1.7,0.2c-1.9,0-3.5-0.8-3.6-1.7c0,0,0-0.1,0-0.1c0-0.1,0-0.4-0.1-0.9
		c-0.1-1.1-0.3-2.8-0.2-2.9c0,0.5,0.5,0.8,1.3,1.1c0.2,0.1,0.5,0.2,0.7,0.3c-0.1,1.4,0.3,2.4,1.6,3.2
		C74,169.5,74.7,169.8,75.4,169.9z"/>
	<path class="st64" d="M79.5,169.6c-0.4,1.1-2.9,1.9-5.9,1.8c-2.9-0.1-5.3-1-5.7-2c0-0.1-0.1-0.2-0.1-0.3c0-0.7,0.8-1.3,2.1-1.6
		c0.1,0.5,0.1,0.8,0.1,0.9c0,0.1,0,0.1,0,0.1c-0.5,0.2-0.9,0.5-0.9,0.8c0,0.8,2,1.5,4.5,1.5c2.5,0.1,4.6-0.5,4.6-1.3
		c0-0.3-0.3-0.7-1-0.9c0,0,0-0.1,0-0.1c0,0,0-0.1,0-0.1l0.1,0c0.3-0.1,0.6-0.2,1-0.3c0.7,0.4,1.2,0.9,1.1,1.4
		C79.5,169.4,79.5,169.5,79.5,169.6z"/>
	<path class="st59" d="M73.6,171.4c3,0.1,5.5-0.7,5.9-1.8c-0.2,1.2-2.7,2.5-5.8,2.4c-3.2-0.1-5.7-1.4-5.8-2.6l0,0
		C68.3,170.4,70.7,171.3,73.6,171.4z"/>
	<path class="st64" d="M70,165c1.9,1.7,5.5,1.9,7.6,0.2c0,0,0,0,0,0C75.3,166.5,72.1,166.4,70,165C69.9,165,69.9,165,70,165L70,165z
		"/>
	<path class="st64" d="M73.9,168.1c0.4,0.2,1.2,0,1.5-0.3c0.2-0.2,0.1-0.5-0.2-0.5c-0.2,0-0.5,0.1-0.7,0.2c-0.2,0.1-0.4,0.1-0.6,0.3
		C73.7,167.9,73.8,168.1,73.9,168.1L73.9,168.1z"/>
	<path class="st64" d="M76.1,167.5c0,0,0.1,0,0.1-0.1c0.3-0.2-0.1-0.7-0.3-0.4c-0.1,0.1-0.1,0.1-0.1,0.2
		C75.8,167.4,75.9,167.6,76.1,167.5L76.1,167.5z"/>
	<path class="st64" d="M78.1,165.4c0.2,0,0.5,0.1,0.7,0.2c0.1,0.1,0.2,0.2,0.3,0.2c0.1,0.1,0.2,0.1,0.2,0.1c0,0,0,0,0.1,0
		C79.9,165.4,78.3,164.5,78.1,165.4C78.1,165.4,78.1,165.4,78.1,165.4L78.1,165.4z"/>
	<path class="st64" d="M79.3,166.5C79.3,166.5,79.3,166.5,79.3,166.5c0.2,0.2,0.5-0.1,0.3-0.3c0,0,0,0,0,0
		C79.4,166,79.1,166.3,79.3,166.5L79.3,166.5z"/>
	<path class="st67" d="M73.8,163.9c-1-0.8-0.8-2.7-0.6-3.7c0.3-1.4,1.5-2.3,1.9-3.6c0.3-1,0.3-2-0.1-2.9c-0.1-0.4-0.4-0.8-0.6-1.1
		c-0.4-0.6-0.3-1.5-0.4-2.3c0,0-0.1,0-0.1,0c-0.3,1.2-0.3,2.2,0.3,3.3c1.1,2.1-0.4,3.7-1.3,5.5c-0.6,1.1-0.6,2.3-0.3,3.5
		c0.1,0.5,0.5,1.5,1.1,1.6C73.9,164.2,73.9,164,73.8,163.9L73.8,163.9z"/>
	<path class="st67" d="M75.1,161.4c-0.8-1.6,1.4-3.9,2-5.3c0.2-0.6,0.4-1.5,0.1-2.1c-0.2-0.5-0.5-0.9-0.8-1.3
		c-0.4-0.6-0.6-1.2-0.8-1.9c0-0.1-0.2-0.1-0.2,0c-0.2,1,0.1,1.7,0.6,2.5c1.3,1.9,0.1,3.5-0.8,5.2C75.2,159,74.3,161.1,75.1,161.4
		C75.1,161.5,75.1,161.4,75.1,161.4L75.1,161.4z"/>
	<path class="st67" d="M73,155.1c-1-1.3-0.8-3.3,0-4.6c0.5-0.8,1-1.6,0.6-2.5c0-0.1-0.2-0.1-0.2,0c-0.5,2.2-2.6,5.3-0.5,7.3
		C72.9,155.4,73.1,155.3,73,155.1L73,155.1z"/>
	<g>
		<path class="st68" d="M47.2,176.5L47.2,176.5l0.2-1c0,0,0,0,0,0.1c0,0,0,0.1,0,0.1c0,0,0,0,0,0.1c0,0,0,0,0,0
			c0.1,0.1,0.1,0.3,0.2,0.4c0,0,0,0,0.1,0.1c0,0,0,0,0.1,0.1c0,0,0,0,0.1,0.1c0.1,0.1,0.2,0.2,0.3,0.3c0,0,0,0,0,0
			c0.5,0.4,1.3,0.6,2.1,0.8c0.7,0.2,1.5,0.2,2.4,0.3c0.2,0,0.4,0,0.5,0c1,0,2-0.2,2.9-0.4c0.3-0.1,0.7-0.2,0.9-0.3
			c0.3-0.1,0.6-0.3,0.8-0.4c-0.2,0.4-0.5,0.7-0.9,1c-1.5,0.9-2.7,1.1-4.4,1.2c-1.1,0.1-2.2-0.3-3.3-0.6c-0.7-0.2-1.6-0.5-2.2-1
			c0,0,0-0.1,0-0.2c0,0,0-0.1,0-0.1c0,0,0,0,0,0c0,0,0,0,0,0c0,0,0-0.1,0-0.1C47.2,176.7,47.2,176.6,47.2,176.5z"/>
		<path class="st69" d="M47.2,176.9C47.2,176.8,47.2,176.8,47.2,176.9C47.2,176.8,47.2,176.8,47.2,176.9
			C47.2,176.9,47.2,176.9,47.2,176.9z"/>
		<path class="st70" d="M52.8,178.8c1.7-0.1,2.9-0.3,4.4-1.2c0.4-0.2,0.7-0.6,0.9-1c0.1-0.1,0.2-0.1,0.3-0.2c0,0,0.1,0,0.1-0.1
			c0,0,0.1,0,0.1-0.1c0.1,0,0.1-0.1,0.2-0.1c0,0,0,0,0.1-0.1c0,0,0,0,0,0l0.1,0.5c0,0,0,0.1,0,0.1c0,0,0,0.1,0,0.1c0,0,0,0,0,0
			c0,0,0,0,0,0c0,0.1,0,0.1,0,0.2c0,0.1-0.1,0.3-0.1,0.4c0,0,0,0,0,0c0,0,0,0.1-0.1,0.1c0,0-0.1,0.1-0.1,0.1c0,0,0,0,0,0
			c0,0,0,0-0.1,0.1c0,0,0,0-0.1,0.1c0,0,0,0-0.1,0.1c0,0,0,0-0.1,0.1c0,0-0.1,0.1-0.2,0.1c0,0-0.1,0-0.1,0.1c0,0-0.1,0-0.1,0.1
			c-0.5,0.4-1.3,0.6-2.1,0.8c-0.9,0.2-1.9,0.3-2.9,0.3c-1,0-2-0.1-2.9-0.3c-0.9-0.2-1.6-0.5-2.1-0.8c-0.1-0.1-0.2-0.2-0.3-0.2
			c0,0,0,0-0.1-0.1c0,0,0,0-0.1-0.1c0,0,0,0-0.1-0.1c-0.1-0.1-0.2-0.2-0.2-0.3c0,0,0,0,0,0c0-0.1,0-0.2-0.1-0.3
			c0.7,0.5,1.5,0.8,2.2,1C50.6,178.5,51.7,178.9,52.8,178.8z"/>
		<path class="st71" d="M47.6,177.8C47.6,177.8,47.6,177.9,47.6,177.8c0.1,0.1,0.1,0.1,0.1,0.1c0.1,0.1,0.2,0.2,0.3,0.2
			c0.5,0.4,1.2,0.6,2.1,0.8c0.9,0.2,1.9,0.3,2.9,0.3c1,0,2-0.1,2.9-0.3c0.9-0.2,1.6-0.5,2.1-0.8c0,0,0.1,0,0.1-0.1
			c0,0,0.1,0,0.1-0.1c0.1,0,0.1-0.1,0.2-0.1c0,0,0,0,0.1-0.1c0,0,0,0,0.1-0.1c0,0,0,0,0.1-0.1c0,0,0,0,0.1-0.1c0,0,0,0,0,0
			c0,0,0.1-0.1,0.1-0.1c0,0,0.1-0.1,0.1-0.1c-0.1,0.4-0.4,0.9-0.7,1.3c-0.5,0.6-1.3,1-2.1,1.4c-0.9,0.3-1.9,0.5-2.9,0.5
			c-1,0-2-0.2-2.9-0.5c-0.9-0.3-1.6-0.8-2.1-1.4c-0.4-0.4-0.6-0.8-0.7-1.2C47.4,177.5,47.4,177.6,47.6,177.8
			C47.6,177.8,47.6,177.8,47.6,177.8z"/>
		<path class="st72" d="M49.7,175.3c0.3-0.1,0.5-0.3,0.6-0.5c-0.3,1.1-0.7,2.6-1.9,1.9c-0.5-0.3-0.5-1-0.3-1.8
			C48.5,175.2,49.2,175.5,49.7,175.3z"/>
		<path class="st73" d="M57.1,165C57.1,164.9,57.1,164.9,57.1,165c-0.2-0.1-0.3-0.2-0.4-0.3c-0.3-0.2-0.7-0.3-1.1-0.5
			c-0.4-0.1-0.8-0.2-1.3-0.3c-0.4-0.1-0.9-0.1-1.3-0.1c-0.4,0-0.9,0-1.3,0.1c-0.4,0.1-0.9,0.1-1.3,0.3c-0.4,0.1-0.8,0.3-1.1,0.5
			c-0.3,0.2-0.6,0.4-0.7,0.6c-0.2,0.2-0.2,0.5-0.2,0.8c0,0,0,0.1,0,0.1c0,0,0,0,0,0c0,0,0,0,0,0c0,0.1,0.1,0.2,0.2,0.3
			c0,0,0,0,0,0.1c0,0,0,0,0.1,0.1c0,0,0,0,0.1,0.1c0.1,0.1,0.2,0.1,0.2,0.2c0.1,0.1,0.3,0.2,0.5,0.3c0.3,0.2,0.7,0.3,1.1,0.4
			c0.5,0.1,1.1,0.2,1.7,0.3c0.2,0,0.4,0,0.5,0c0.8,0,1.6-0.1,2.3-0.3c0.2-0.1,0.4-0.1,0.6-0.2c0.1,0,0.1,0,0.2-0.1l0.6-0.3
			c0.1,0,0.2-0.1,0.2-0.1c0,0,0,0,0.1-0.1c0,0,0,0,0.1-0.1c0,0,0.1-0.1,0.1-0.1c0,0,0,0,0.1-0.1c0,0,0,0,0-0.1c0,0,0,0,0-0.1
			c0,0,0,0,0,0c0,0,0,0,0,0c0,0,0,0,0,0c0,0,0-0.1,0.1-0.1c0-0.1,0.1-0.1,0.1-0.2c0,0,0-0.1,0-0.1c0-0.1,0-0.3,0-0.4
			c0-0.1-0.1-0.2-0.2-0.3C57.4,165.2,57.3,165.1,57.1,165z M57.2,166C57.2,166,57.1,166.1,57.2,166c0,0.2-0.1,0.2-0.1,0.3
			c0,0,0,0.1-0.1,0.1c0,0,0,0,0,0c0,0,0,0,0,0c0,0,0,0,0,0c0,0,0,0,0,0c0,0,0,0,0,0c0,0-0.1,0.1-0.1,0.1c0,0,0,0-0.1,0
			c0,0,0,0-0.1,0c-0.1,0.1-0.2,0.1-0.3,0.2c-0.2,0.1-0.3,0.2-0.5,0.2c-0.2,0.1-0.4,0.1-0.6,0.2c-0.6,0.1-1.3,0.2-2,0.2
			c-0.2,0-0.3,0-0.5,0c-0.5,0-0.9-0.1-1.3-0.2c-0.1,0-0.1,0-0.2,0c-0.3-0.1-0.6-0.2-0.9-0.3c-0.1,0-0.2-0.1-0.3-0.1
			c-0.1,0-0.2-0.1-0.2-0.1c0,0,0,0-0.1,0c-0.1-0.1-0.2-0.1-0.2-0.2c0,0,0,0,0,0c0,0,0,0,0,0c0,0,0,0,0,0c0,0,0,0,0,0
			c-0.1-0.1-0.1-0.2-0.2-0.2c0,0,0,0,0,0c0,0,0,0,0,0c0,0,0-0.1,0-0.1c0-0.2,0-0.4,0.2-0.6c0.1-0.2,0.4-0.4,0.7-0.5
			c0.3-0.1,0.6-0.3,1-0.4c0.4-0.1,0.7-0.2,1.1-0.2c0.4,0,0.8-0.1,1.2-0.1c0.4,0,0.8,0,1.2,0.1c0.4,0,0.8,0.1,1.1,0.2
			c0.4,0.1,0.7,0.2,1,0.4c0.2,0.1,0.3,0.2,0.4,0.3c0.1,0.1,0.2,0.1,0.2,0.2C57.1,165.6,57.2,165.8,57.2,166z"/>
		<path class="st74" d="M51.3,170.6c-0.3,1.2-0.5,2.4-0.9,3.6c0,0.1-0.1,0.3-0.1,0.5c-0.2,0.2-0.3,0.5-0.6,0.5
			c-0.5,0.2-1.2-0.1-1.6-0.4c0.2-0.7,0.5-1.3,0.6-1.7c0.2-0.5,0.4-1.1,0.6-1.7c0.2-0.5,0.3-0.9,0.5-1.4c0.3,0.2,0.7,0.3,1,0.4
			C51.1,170.5,51.2,170.6,51.3,170.6z"/>
		<path class="st75" d="M57.1,166.1c0,0.1-0.1,0.1-0.1,0.2c0,0,0,0.1-0.1,0.1c0,0,0,0,0,0c0,0,0,0,0,0c0,0,0,0,0,0c0,0,0,0,0,0
			c0,0,0,0,0,0c0,0-0.1,0.1-0.1,0.1c0,0,0,0-0.1,0c0,0,0,0-0.1,0c-0.1,0.1-0.2,0.1-0.3,0.2c0,0,0,0,0,0c0-0.7-1.2-1.2-2.8-1.4
			c-0.2,0-0.3,0-0.5,0c-1.7,0-3.2,0.5-3.3,1.2c0,0,0,0-0.1,0c-0.1-0.1-0.2-0.1-0.2-0.2c0,0,0,0,0,0c0,0,0,0,0,0c0,0,0,0,0,0
			c0,0,0,0,0,0c-0.1-0.1-0.1-0.2-0.2-0.2c0,0,0,0,0,0c0,0,0,0,0,0c0,0,0-0.1,0-0.1c0-0.2,0-0.4,0.2-0.6c0.1-0.2,0.4-0.4,0.7-0.5
			c0.3-0.1,0.6-0.3,1-0.4c0.4-0.1,0.7-0.2,1.1-0.2c0.4,0,0.8-0.1,1.2-0.1c0.4,0,0.8,0,1.2,0.1c0.4,0,0.8,0.1,1.1,0.2
			c0.4,0.1,0.7,0.2,1,0.4c0.2,0.1,0.3,0.2,0.4,0.3c0.1,0.1,0.2,0.1,0.2,0.2C57.1,165.6,57.2,165.8,57.1,166.1
			C57.2,166,57.1,166.1,57.1,166.1z"/>
		<path class="st76" d="M50.8,168.4c0.7,0.2,1.5,0.2,2.2,0.2c0.1,0,0.3,0,0.4,0c0.6,0,1.3-0.1,1.8-0.2c0.4-0.1,0.7-0.2,1-0.3
			c-0.4,0.9-1.5,1.5-2.5,1.5c-1.6,0.1-3.1-0.2-4.4-1.1c0,0,0,0,0,0c0,0,0,0,0,0c0-0.1-0.1-0.1-0.1-0.2c-0.1-0.2-0.1-0.4-0.2-0.6
			c0,0,0.1,0.1,0.1,0.1C49.6,168,50.1,168.2,50.8,168.4z"/>
		<path class="st68" d="M56.3,170.2c-0.3,0.1-0.5,0.2-0.8,0.3c-0.2,0.1-0.4,0.1-0.6,0.1c-0.4,0.1-0.8,0.1-1.2,0.1
			c-0.2,0-0.3,0-0.5,0c-0.3,0-0.7,0-1-0.1c-0.3,0-0.6-0.1-0.8-0.1c-0.1,0-0.3-0.1-0.4-0.1c-0.4-0.1-0.7-0.3-1-0.4
			c-0.2-0.1-0.4-0.3-0.6-0.4c-0.1-0.1-0.2-0.1-0.2-0.2l0,0l0.3-1l0,0c0,0,0,0,0,0c0,0.1,0.1,0.1,0.1,0.2c0,0.1,0.1,0.1,0.2,0.2
			s0.1,0.1,0.2,0.2c0.4,0.3,0.8,0.6,1.4,0.8c0.6,0.2,1.2,0.3,1.9,0.3c0.7,0,1.3-0.1,1.9-0.3c0.6-0.2,1-0.4,1.4-0.8
			c0.1-0.1,0.2-0.1,0.2-0.2c0.1-0.1,0.1-0.1,0.2-0.2c0,0,0,0,0-0.1l0,0l0.3,1c0,0,0,0,0,0C56.8,169.9,56.6,170,56.3,170.2z"/>
		<path class="st70" d="M56.6,168.9c-0.1,0.1-0.1,0.1-0.2,0.2c-0.4,0.3-0.8,0.6-1.4,0.8c-0.6,0.2-1.2,0.3-1.9,0.3
			c-0.7,0-1.3-0.1-1.9-0.3c-0.6-0.2-1-0.4-1.4-0.8c-0.1-0.1-0.1-0.1-0.2-0.2c-0.1-0.1-0.1-0.1-0.2-0.2c0-0.1-0.1-0.1-0.1-0.2
			c1.3,0.9,2.8,1.2,4.4,1.1c1-0.1,2.1-0.6,2.5-1.5c0.3-0.1,0.5-0.2,0.7-0.3c0,0,0,0,0.1,0c0,0,0,0,0.1,0c0,0,0.1-0.1,0.1-0.1
			c-0.1,0.2-0.1,0.4-0.2,0.7c0,0.1,0,0.1-0.1,0.2c0,0.1-0.1,0.1-0.1,0.2c0,0,0,0,0,0.1C56.7,168.7,56.6,168.8,56.6,168.9z"/>
		<path class="st77" d="M52.9,165.5c0.2,0,0.4,0,0.5,0c1.6,0.1,2.8,0.7,2.8,1.4c0,0,0,0,0,0c-0.2,0.1-0.3,0.2-0.5,0.2
			c-0.2,0.1-0.4,0.1-0.6,0.2c-0.6,0.1-1.3,0.2-2,0.2c-0.2,0-0.3,0-0.5,0c-0.5,0-0.9-0.1-1.3-0.2c-0.1,0-0.1,0-0.2,0
			c-0.3-0.1-0.6-0.2-0.9-0.3c-0.1,0-0.2-0.1-0.3-0.1c-0.1,0-0.2-0.1-0.2-0.1C49.7,166.1,51.2,165.5,52.9,165.5z"/>
		<path class="st74" d="M53.7,170.8c0,0.9,0.1,1.9,0.1,2.8c0,1.2-0.5,3.3-2.1,2.6c0-0.7,0.1-1.5,0.1-1.9c0.1-0.6,0.1-1.2,0.2-1.8
			c0.1-0.6,0-1.1,0.1-1.7c0.3,0,0.7,0.1,1,0.1C53.3,170.8,53.5,170.8,53.7,170.8z"/>
		<path class="st72" d="M53.8,173.6c0,0.4,0,0.8,0,1.2c0,0.9,0.2,2.9-1,2.9c-0.1,0-0.2,0-0.4-0.1c-0.6-0.2-0.7-0.8-0.7-1.5
			C53.3,176.9,53.8,174.8,53.8,173.6z"/>
		<path class="st74" d="M56.3,170.2c0.1,0.4,0.2,0.8,0.3,1.2l-0.1,0c0.2,0.7,0.9,5.4-0.8,4.8c-0.3-0.8-0.4-1.8-0.5-2.3
			c-0.1-0.6-0.2-1.2-0.2-1.8c0-0.5-0.2-1-0.2-1.5c0.2,0,0.4-0.1,0.6-0.1C55.7,170.4,56,170.3,56.3,170.2z"/>
		<path class="st72" d="M56.6,171.4L56.6,171.4c0.3,0.9,0.6,1.7,0.8,2.6c0.2,0.8,0.8,2.6-0.1,3c-0.1,0.1-0.3,0.1-0.5,0.1
			c-0.4,0-0.7-0.4-0.9-0.9C57.5,176.9,56.7,172.1,56.6,171.4z"/>
		<path class="st77" d="M56.4,167.3c-0.1,0-0.2,0.1-0.3,0.1l0.6-0.3C56.6,167.2,56.5,167.2,56.4,167.3z"/>
		<path class="st78" d="M58.1,176.6c-0.2,0.2-0.5,0.3-0.8,0.4c-0.3,0.1-0.6,0.2-0.9,0.3c-0.9,0.2-1.9,0.4-2.9,0.4
			c-0.2,0-0.4,0-0.5,0c-0.8,0-1.6-0.1-2.4-0.3c-0.9-0.2-1.6-0.5-2.1-0.8c0,0,0,0,0,0c-0.1-0.1-0.2-0.2-0.3-0.3c0,0,0,0-0.1-0.1
			c0,0,0,0-0.1-0.1c0,0,0,0-0.1-0.1c-0.1-0.1-0.2-0.2-0.2-0.4c0,0,0,0,0,0c0,0,0,0,0-0.1c0,0,0-0.1,0-0.1c0,0,0,0,0-0.1l0,0l0-0.2
			l1.5-6l0,0c0.1,0.1,0.1,0.1,0.2,0.2c0.2,0.1,0.4,0.3,0.6,0.4c-0.2,0.5-0.3,0.9-0.5,1.4c-0.2,0.6-0.4,1.1-0.6,1.7
			c-0.1,0.4-0.4,1.1-0.6,1.7c-0.2,0.7-0.2,1.5,0.3,1.8c1.2,0.7,1.6-0.9,1.9-1.9c0-0.2,0.1-0.4,0.1-0.5c0.4-1.2,0.6-2.4,0.9-3.6
			c0.3,0.1,0.6,0.1,0.8,0.1c-0.1,0.6-0.1,1.1-0.1,1.7c-0.1,0.6-0.1,1.2-0.2,1.8c0,0.4-0.1,1.2-0.1,1.9c0,0.7,0.2,1.4,0.7,1.5
			c0.1,0,0.3,0.1,0.4,0.1c1.2,0,0.9-2.1,1-2.9c0-0.4,0-0.8,0-1.2c0-0.9-0.1-1.9-0.1-2.8c0.4,0,0.8-0.1,1.2-0.1
			c0.1,0.5,0.2,1,0.2,1.5c0.1,0.6,0.2,1.2,0.2,1.8c0.1,0.5,0.2,1.6,0.5,2.3c0.2,0.5,0.5,0.9,0.9,0.9c0.2,0,0.4,0,0.5-0.1
			c0.9-0.4,0.3-2.2,0.1-3c-0.2-0.9-0.5-1.8-0.7-2.6c-0.1-0.4-0.2-0.8-0.3-1.2c0.3-0.1,0.6-0.3,0.8-0.5c0,0,0,0,0,0l1.3,4.9
			C58.5,175.3,58.4,176,58.1,176.6z"/>
		<path class="st78" d="M57,167.7C57,167.7,57,167.7,57,167.7c-0.3,0.2-0.5,0.3-0.7,0.4c-0.3,0.1-0.6,0.2-1,0.3
			c-0.6,0.1-1.2,0.2-1.8,0.2c-0.1,0-0.3,0-0.4,0c-0.8,0-1.6-0.1-2.2-0.2c-0.7-0.2-1.2-0.4-1.6-0.6c0,0-0.1-0.1-0.1-0.1
			c-0.2-0.5-0.3-1-0.5-1.4c0,0,0,0,0,0c0,0,0,0,0,0c0,0.1,0.1,0.2,0.2,0.3c0,0,0,0,0,0.1c0,0,0,0,0.1,0.1c0,0,0,0,0.1,0.1
			c0.1,0.1,0.2,0.1,0.2,0.2c0.1,0.1,0.3,0.2,0.5,0.3c0.3,0.2,0.7,0.3,1.1,0.4c0.5,0.1,1.1,0.2,1.7,0.3c0.2,0,0.4,0,0.5,0
			c0.8,0,1.6-0.1,2.3-0.3c0.2-0.1,0.4-0.1,0.6-0.2c0.1,0,0.1,0,0.2-0.1c0.1,0,0.2-0.1,0.3-0.1c0.1-0.1,0.2-0.1,0.4-0.2
			c0.1,0,0.2-0.1,0.2-0.1c0,0,0,0,0.1-0.1c0,0,0,0,0.1-0.1c0,0,0.1-0.1,0.1-0.1c0,0,0,0,0.1-0.1c0,0,0,0,0-0.1c0,0,0,0,0-0.1
			c0,0,0,0,0,0c0,0,0,0,0,0c0,0,0,0,0,0c0,0,0-0.1,0.1-0.1c0-0.1,0.1-0.1,0.1-0.2c-0.1,0.2-0.1,0.4-0.2,0.6
			c-0.1,0.3-0.2,0.5-0.2,0.8C57.1,167.6,57.1,167.6,57,167.7C57.1,167.6,57,167.6,57,167.7z"/>
		<path class="st79" d="M57.8,164.7C57.8,164.8,57.8,164.8,57.8,164.7c0.1,0,0.1,0,0.1,0.1c0.2,0.1,0.4,0.3,0.5,0.5
			c-0.3,0.1-0.6,0.3-0.9,0.4c0-0.1-0.1-0.2-0.2-0.3c-0.1-0.1-0.2-0.2-0.3-0.3l0.5-0.2C57.7,164.7,57.7,164.7,57.8,164.7
			C57.7,164.7,57.8,164.7,57.8,164.7C57.8,164.7,57.8,164.7,57.8,164.7z"/>
		<path class="st80" d="M57.6,166.1c0-0.1,0-0.3,0-0.4c0.3-0.1,0.6-0.2,0.9-0.4c0,0,0,0,0,0c0,0,0,0,0,0c0.1,0.2,0.2,0.4,0.2,0.6
			c0,0,0,0,0,0c0,0.1,0,0.2-0.1,0.2l-1.2,0.6c0.1-0.2,0.1-0.4,0.2-0.6C57.6,166.1,57.6,166.1,57.6,166.1z"/>
		<path class="st81" d="M58.7,176.1c0,0-0.1,0.1-0.2,0.1c0,0-0.1,0-0.1,0.1c0,0-0.1,0-0.1,0.1c-0.1,0.1-0.2,0.2-0.3,0.2
			c0.3-0.6,0.4-1.3,0.4-2.1l0.2,0.7l0.2,0.7C58.8,176,58.8,176.1,58.7,176.1C58.8,176.1,58.7,176.1,58.7,176.1z"/>
		<path class="st82" d="M58.5,165.3C58.5,165.3,58.5,165.3,58.5,165.3C58.5,165.3,58.5,165.3,58.5,165.3c0.3-0.2,0.6-0.4,0.9-0.5
			c1-0.4,1.9-0.8,2.9-1.2c0.5-0.2,1-0.4,1.5-0.6c0.8-0.3,1.6-0.5,2.1-1.2c0.3-0.5-0.1-1.1-0.6-1.1c0.2-0.1,0.3-0.1,0.5-0.1
			c0.7,0,1.3,0.5,1.3,1.2c0.1,1.4-1.5,1.3-2.5,1.6c-0.4,0.1-1.8,0.8-2.3,1c0,0,0,0,0,0l0,0c0,0,0,0-0.1,0c0,0,0,0,0,0c0,0,0,0,0,0
			l-3.6,1.6c0,0,0,0,0-0.1c0,0,0,0,0,0C58.7,165.7,58.6,165.5,58.5,165.3z"/>
		<path class="st83" d="M58.5,165.3c0.1,0.2,0.2,0.4,0.2,0.6C58.7,165.7,58.6,165.5,58.5,165.3z"/>
		<path class="st69" d="M59,176.8C59,176.8,59,176.8,59,176.8C59,176.8,59,176.8,59,176.8C59,176.8,59,176.8,59,176.8z"/>
		<path class="st84" d="M61.4,162.9l1.1-0.5C62.2,162.5,61.8,162.7,61.4,162.9C61.5,162.9,61.4,162.9,61.4,162.9z"/>
		<path class="st83" d="M65.9,161.7c-0.5,0.7-1.3,0.9-2.1,1.2c-0.5,0.2-1,0.4-1.5,0.6c-1,0.4-1.9,0.8-2.9,1.2
			c-0.3,0.1-0.7,0.3-1,0.5c-0.1-0.2-0.3-0.4-0.5-0.5c0,0-0.1,0-0.1,0c0,0,0,0,0,0c0,0,0,0,0,0c0,0,0,0,0,0l3-1.6l0.6-0.3
			c0,0,0.1,0,0.1,0c0.3-0.1,0.7-0.4,1-0.6c0,0,0,0,0,0c0.2-0.1,0.3-0.2,0.4-0.2c0.5-0.3,1-0.6,1.5-0.9c0.3-0.2,0.6-0.4,0.9-0.6
			C65.8,160.6,66.2,161.3,65.9,161.7z"/>
	</g>
	<path class="st8" d="M53.1,164.9c-0.5-1.2-1.1-2.4-0.6-3.7c0.3-0.9,1-1.7,1.3-2.7c0.3-1-0.3-1.8-0.8-2.6c-0.9-1.4-0.6-2.7,0.1-4.1
		c0-0.1,0-0.1-0.1-0.1c-0.7,0.9-1,2-0.9,3.1c0.1,0.5,0.2,1,0.3,1.5c0.2,0.7,0.7,1.3,0.5,2.1c-0.2,1-0.8,1.9-1,3
		C51.9,162.8,52.4,163.9,53.1,164.9C53.1,164.9,53.1,164.9,53.1,164.9L53.1,164.9z"/>
	<path class="st8" d="M54.2,162.8c-0.6-1.7,0.7-2.6,1.2-4.1c0.3-0.9,0-1.8-0.6-2.4c-0.1-0.1-0.2,0-0.1,0.1c0.2,0.7,0.6,1.2,0.4,2
		c-0.2,0.7-0.7,1.3-1,1.9C53.5,161.2,53.6,162,54.2,162.8C54.2,162.9,54.2,162.9,54.2,162.8L54.2,162.8z"/>
	<path class="st8" d="M51.4,160c0.5-0.6,0.7-1.1,0.5-1.9c-0.1-0.3-0.3-0.6-0.4-1c-0.2-0.5-0.3-1-0.5-1.5c0-0.1-0.1-0.1-0.2,0
		c-0.2,0.5,0,1.1,0.2,1.6c0.2,0.3,0.4,0.6,0.5,0.9C51.8,158.7,51.6,159.4,51.4,160C51.3,160,51.3,160,51.4,160L51.4,160z"/>
	<g id="XMLID_4_">
		<g>
			<polygon class="st28" points="193.7,105.3 193.7,109.4 172.8,108.6 172.8,56.2 193.7,51.1 193.7,55.3 175.6,59 175.6,105.1 			
				"/>
			<polygon class="st8" points="193.7,55.3 193.7,105.3 175.6,105.1 175.6,59 			"/>
			<polygon class="st31" points="172.8,56.2 172.8,108.6 171.4,108.6 171.4,56.6 			"/>
			<path class="st28" d="M171.4,56.6v52l-16.3-0.6l-4.5-0.2v-2.3V92.6v-1.6V77.8v-2.5V63.5v-1.8l4.3-1L171.4,56.6z M169,105l0-44.7
				l-15.3,3.5l-0.1,41.1L169,105z"/>
			<polygon class="st8" points="168.9,60.3 169,105 153.5,104.9 153.6,63.8 			"/>
			<polygon class="st85" points="155.1,107.9 155.1,113 125.6,113.7 131.2,107.3 131.2,107.1 150.6,107.8 150.6,107.8 			"/>
			<polygon class="st28" points="150.6,90.9 150.6,92.6 113.7,94 113.7,92.4 			"/>
			<polygon class="st86" points="150.6,77.8 150.6,90.9 113.7,92.4 113.7,81.9 			"/>
			<polygon class="st28" points="150.6,75.2 150.6,77.8 113.7,81.9 113.7,79.9 			"/>
			<polygon class="st86" points="150.6,63.5 150.6,75.2 113.7,79.9 113.7,71.8 119.6,70.5 			"/>
			<polygon class="st22" points="131.2,107.3 125.6,113.7 125.5,113.7 131.1,107.3 131.1,107.1 131.2,107.1 			"/>
			<polygon class="st25" points="131.2,107.1 131.2,107.1 131.1,107.1 109.3,106.2 109.3,106.2 			"/>
			<path class="st40" d="M124,109.7c0.5,0,0.7,0.3,0.5,0.8c-0.2,0.4-0.6,0.8-1.1,0.8c-0.5,0-0.7-0.3-0.5-0.8
				C123,110,123.5,109.7,124,109.7z"/>
			<path class="st40" d="M121.7,109.5c0.5,0,0.7,0.3,0.5,0.8c-0.2,0.4-0.6,0.8-1.1,0.8c-0.5,0-0.7-0.3-0.5-0.8
				C120.8,109.9,121.3,109.5,121.7,109.5z"/>
			<path class="st40" d="M119.6,109.3c0.4,0,0.7,0.3,0.5,0.8c-0.2,0.4-0.6,0.8-1.1,0.8c-0.5,0-0.7-0.3-0.5-0.8
				C118.6,109.7,119.1,109.3,119.6,109.3z"/>
			<polygon class="st28" points="150.6,61.7 150.6,63.5 119.6,70.5 119.4,69.4 119.4,69.4 119.2,68.7 154.9,60.5 154.9,60.6 			"/>
			<polygon class="st28" points="119.6,70.5 113.7,71.8 105.1,73.7 105.1,81 105.1,82.8 105.1,92.7 105.1,94.3 105.2,104.2 
				113.6,104.4 150.6,105.5 150.6,107.8 150.6,107.8 131.2,107.1 131.2,107.1 109.3,106.2 109.3,106.2 109.2,106.2 103.3,106 
				103.3,72.4 119.2,68.7 119.4,69.4 119.3,69.4 119.4,69.4 			"/>
			<polygon class="st25" points="119.4,69.4 119.4,69.4 119.3,69.4 			"/>
			<polygon class="st87" points="117.4,109.2 116.4,110.6 108.7,110 109.9,108.5 			"/>
			<polygon class="st88" points="113.7,94 113.7,104.3 113.6,104.4 105.2,104.2 105.1,94.3 			"/>
			<polygon class="st28" points="113.7,92.4 113.7,94 105.1,94.3 105.1,92.7 			"/>
			<polygon class="st88" points="113.7,81.9 113.7,92.4 105.1,92.7 105.1,82.8 			"/>
			<polygon class="st28" points="113.7,79.9 113.7,81.9 105.1,82.8 105.1,81 			"/>
			<polygon class="st88" points="113.7,71.8 113.7,79.9 105.1,81 105.1,73.7 			"/>
			<path class="st86" d="M113.7,104.3V94l37-1.4v12.9l-37-1L113.7,104.3z"/>
			<path class="st89" d="M109.9,107l-2.9,3.8l17.7,1.5l3.7-4.4L109.9,107z M109.3,106.2l21.7,0.9l0,0.2l-5.6,6.4l0.1,0l0,0l-0.5,0
				l-20.1-1.9l4.4-5.5L109.3,106.2z"/>
			<path class="st8" d="M116.4,110.6l1-1.5l-7.5-0.6l-1.1,1.5L116.4,110.6z M120.1,110.1c0.2-0.4-0.1-0.8-0.5-0.8
				c-0.5,0-0.9,0.3-1.1,0.8c-0.2,0.4,0.1,0.8,0.5,0.8C119.5,110.8,120,110.5,120.1,110.1z M122.3,110.3c0.2-0.4-0.1-0.8-0.5-0.8
				c-0.5,0-0.9,0.3-1.1,0.8c-0.2,0.4,0.1,0.8,0.5,0.8C121.6,111,122.1,110.7,122.3,110.3z M124.7,112.4l-17.7-1.5l2.9-3.8l18.5,1
				L124.7,112.4z M123.4,111.2c0.5,0,0.9-0.3,1.1-0.8c0.2-0.4-0.1-0.8-0.5-0.8c-0.5,0-0.9,0.3-1.1,0.8
				C122.7,110.9,123,111.2,123.4,111.2z"/>
		</g>
	</g>
	<path class="st28" d="M178.9,84c0.4,0.2,0.8-0.1,0.9-0.7c0.1-0.6-0.2-1.2-0.5-1.4c-0.4-0.2-0.8,0.1-0.9,0.7
		C178.2,83.2,178.5,83.8,178.9,84z"/>
	<path class="st28" d="M166,84.4c0.4,0.2,0.8-0.1,0.9-0.6c0.1-0.6-0.1-1.2-0.5-1.4c-0.4-0.2-0.8,0.1-0.9,0.6
		C165.4,83.6,165.6,84.2,166,84.4z"/>
</g>
</svg>
